[
    {
      "duration": 0.6269553193359375,
      "durationTicks": 963,
      "midi": 57,
      "name": "A3",
      "ticks": 10,
      "time": 0.006510439453125001,
      "velocity": 0.8267716535433071
    },
    {
      "duration": 1.3092493740234374,
      "durationTicks": 2011,
      "midi": 62,
      "name": "D4",
      "ticks": 1028,
      "time": 0.6692731757812501,
      "velocity": 0.8267716535433071
    },
    {
      "duration": 0.3535168623046876,
      "durationTicks": 543,
      "midi": 66,
      "name": "F#4",
      "ticks": 3090,
      "time": 2.011725791015625,
      "velocity": 0.8267716535433071
    },
    {
      "duration": 0.2740895009765625,
      "durationTicks": 421,
      "midi": 62,
      "name": "D4",
      "ticks": 3591,
      "time": 2.337898807617188,
      "velocity": 0.7874015748031497
    },
    {
      "duration": 1.3092493740234379,
      "durationTicks": 2011,
      "midi": 66,
      "name": "F#4",
      "ticks": 4100,
      "time": 2.66928017578125,
      "velocity": 0.8267716535433071
    },
    {
      "duration": 0.6217469677734373,
      "durationTicks": 955,
      "midi": 64,
      "name": "E4",
      "ticks": 6162,
      "time": 4.011732791015626,
      "velocity": 0.8503937007874016
    },
    {
      "duration": 1.3092493740234374,
      "durationTicks": 2011,
      "midi": 62,
      "name": "D4",
      "ticks": 7172,
      "time": 4.669287175781251,
      "velocity": 0.8267716535433071
    },
    {
      "duration": 0.6217469677734373,
      "durationTicks": 955,
      "midi": 59,
      "name": "B3",
      "ticks": 9234,
      "time": 6.011739791015626,
      "velocity": 0.8503937007874016
    },
    {
      "duration": 1.3418015712890634,
      "durationTicks": 2061,
      "midi": 57,
      "name": "A3",
      "ticks": 10244,
      "time": 6.669294175781251,
      "velocity": 0.8267716535433071
    },
    {
      "duration": 0.6217469677734382,
      "durationTicks": 955,
      "midi": 57,
      "name": "A3",
      "ticks": 12306,
      "time": 8.011746791015625,
      "velocity": 0.8503937007874016
    },
    {
      "duration": 1.3092493740234374,
      "durationTicks": 2011,
      "midi": 62,
      "name": "D4",
      "ticks": 13316,
      "time": 8.669301175781252,
      "velocity": 0.8267716535433071
    },
    {
      "duration": 0.35351686230468893,
      "durationTicks": 543,
      "midi": 66,
      "name": "F#4",
      "ticks": 15378,
      "time": 10.011753791015625,
      "velocity": 0.8267716535433071
    },
    {
      "duration": 0.2740895009765616,
      "durationTicks": 421,
      "midi": 62,
      "name": "D4",
      "ticks": 15879,
      "time": 10.337926807617189,
      "velocity": 0.7874015748031497
    },
    {
      "duration": 1.3092493740234374,
      "durationTicks": 2011,
      "midi": 66,
      "name": "F#4",
      "ticks": 16388,
      "time": 10.669308175781252,
      "velocity": 0.8267716535433071
    },
    {
      "duration": 0.6217469677734364,
      "durationTicks": 955,
      "midi": 64,
      "name": "E4",
      "ticks": 18450,
      "time": 12.011760791015627,
      "velocity": 0.8503937007874016
    },
    {
      "duration": 2.6477957255859366,
      "durationTicks": 4067,
      "midi": 69,
      "name": "A4",
      "ticks": 19460,
      "time": 12.669315175781252,
      "velocity": 0.8267716535433071
    },
    {
      "duration": 0.62174696777344,
      "durationTicks": 955,
      "midi": 66,
      "name": "F#4",
      "ticks": 24594,
      "time": 16.011774791015625,
      "velocity": 0.8582677165354331
    },
    {
      "duration": 1.3092493740234374,
      "durationTicks": 2011,
      "midi": 69,
      "name": "A4",
      "ticks": 25604,
      "time": 16.66932917578125,
      "velocity": 0.8346456692913385
    },
    {
      "duration": 0.35351686230468715,
      "durationTicks": 543,
      "midi": 66,
      "name": "F#4",
      "ticks": 27666,
      "time": 18.011781791015625,
      "velocity": 0.8346456692913385
    },
    {
      "duration": 0.2740895009765616,
      "durationTicks": 421,
      "midi": 62,
      "name": "D4",
      "ticks": 28167,
      "time": 18.33795480761719,
      "velocity": 0.7952755905511811
    },
    {
      "duration": 1.3092493740234374,
      "durationTicks": 2011,
      "midi": 66,
      "name": "F#4",
      "ticks": 28676,
      "time": 18.66933617578125,
      "velocity": 0.8346456692913385
    },
    {
      "duration": 0.62174696777344,
      "durationTicks": 955,
      "midi": 57,
      "name": "A3",
      "ticks": 30738,
      "time": 20.011788791015626,
      "velocity": 0.8582677165354331
    },
    {
      "duration": 1.309249374023441,
      "durationTicks": 2011,
      "midi": 59,
      "name": "B3",
      "ticks": 31748,
      "time": 20.66934317578125,
      "velocity": 0.8346456692913385
    },
    {
      "duration": 0.3535168623046907,
      "durationTicks": 543,
      "midi": 62,
      "name": "D4",
      "ticks": 33810,
      "time": 22.011795791015626,
      "velocity": 0.8346456692913385
    },
    {
      "duration": 0.2740895009765616,
      "durationTicks": 421,
      "midi": 59,
      "name": "B3",
      "ticks": 34311,
      "time": 22.33796880761719,
      "velocity": 0.7952755905511811
    },
    {
      "duration": 1.3418015712890643,
      "durationTicks": 2061,
      "midi": 57,
      "name": "A3",
      "ticks": 34820,
      "time": 22.66935017578125,
      "velocity": 0.8346456692913385
    },
    {
      "duration": 0.62174696777344,
      "durationTicks": 955,
      "midi": 57,
      "name": "A3",
      "ticks": 36882,
      "time": 24.011802791015626,
      "velocity": 0.8582677165354331
    },
    {
      "duration": 1.3092493740234374,
      "durationTicks": 2011,
      "midi": 62,
      "name": "D4",
      "ticks": 37892,
      "time": 24.669357175781254,
      "velocity": 0.8346456692913385
    },
    {
      "duration": 0.3535168623046907,
      "durationTicks": 543,
      "midi": 66,
      "name": "F#4",
      "ticks": 39954,
      "time": 26.011809791015626,
      "velocity": 0.8346456692913385
    },
    {
      "duration": 0.2740895009765616,
      "durationTicks": 421,
      "midi": 62,
      "name": "D4",
      "ticks": 40455,
      "time": 26.33798280761719,
      "velocity": 0.7952755905511811
    },
    {
      "duration": 1.3092493740234374,
      "durationTicks": 2011,
      "midi": 66,
      "name": "F#4",
      "ticks": 40964,
      "time": 26.669364175781254,
      "velocity": 0.8346456692913385
    },
    {
      "duration": 0.6217469677734364,
      "durationTicks": 955,
      "midi": 64,
      "name": "E4",
      "ticks": 43026,
      "time": 28.01181679101563,
      "velocity": 0.8582677165354331
    },
    {
      "duration": 2.6308685830078105,
      "durationTicks": 4041,
      "midi": 62,
      "name": "D4",
      "ticks": 44036,
      "time": 28.669371175781254,
      "velocity": 0.8346456692913385
    }
  ]