function getArbeauMatachins() { return {"tracks":[{"name":"Track 2","notes":[{"duration":0.3392853750000002,"durationTicks":228,"midi":62,"name":"D4","ticks":2304,"time":3.4285680000000003,"velocity":0.8976377952755905},{"duration":0.14880937500000035,"durationTicks":100,"midi":64,"name":"E4","ticks":2496,"time":3.7142820000000003,"velocity":0.8031496062992126},{"duration":0.07738087500000024,"durationTicks":52,"midi":66,"name":"F#4","ticks":2688,"time":3.9999960000000003,"velocity":0.8110236220472441},{"duration":0.0744046875000004,"durationTicks":50,"midi":66,"name":"F#4","ticks":2880,"time":4.28571,"velocity":0.8661417322834646},{"duration":0.4523804999999994,"durationTicks":304,"midi":67,"name":"G4","ticks":3072,"time":4.571424,"velocity":0.9921259842519685},{"duration":0.5119042500000006,"durationTicks":344,"midi":67,"name":"G4","ticks":3456,"time":5.142852,"velocity":0.8976377952755905},{"duration":0.2708330625000004,"durationTicks":182,"midi":66,"name":"F#4","ticks":3840,"time":5.7142800000000005,"velocity":0.8661417322834646},{"duration":0.08630943749999886,"durationTicks":58,"midi":64,"name":"E4","ticks":4032,"time":5.999994000000001,"velocity":0.7322834645669292},{"duration":0.08035706250000008,"durationTicks":54,"midi":66,"name":"F#4","ticks":4224,"time":6.2857080000000005,"velocity":0.8661417322834646},{"duration":0.0922618125000012,"durationTicks":62,"midi":62,"name":"D4","ticks":4416,"time":6.571422,"velocity":0.8346456692913385},{"duration":0.47321381250000005,"durationTicks":318,"midi":64,"name":"E4","ticks":4608,"time":6.857136000000001,"velocity":0.8661417322834646},{"duration":0.43154718750000054,"durationTicks":290,"midi":64,"name":"E4","ticks":4992,"time":7.428564000000001,"velocity":0.8976377952755905},{"duration":0.3095234999999992,"durationTicks":208,"midi":62,"name":"D4","ticks":5376,"time":7.999992000000001,"velocity":0.8661417322834646},{"duration":0.11904750000000064,"durationTicks":80,"midi":64,"name":"E4","ticks":5568,"time":8.285706000000001,"velocity":0.8346456692913385},{"duration":0.07738087500000113,"durationTicks":52,"midi":66,"name":"F#4","ticks":5760,"time":8.57142,"velocity":0.8661417322834646},{"duration":0.09226181250000032,"durationTicks":62,"midi":66,"name":"F#4","ticks":5952,"time":8.857134,"velocity":0.8661417322834646},{"duration":0.45535668750000013,"durationTicks":306,"midi":67,"name":"G4","ticks":6144,"time":9.142848,"velocity":0.937007874015748},{"duration":0.4821423749999987,"durationTicks":324,"midi":67,"name":"G4","ticks":6528,"time":9.714276000000002,"velocity":0.8346456692913385},{"duration":0.2738092500000011,"durationTicks":184,"midi":66,"name":"F#4","ticks":6912,"time":10.285704,"velocity":0.8661417322834646},{"duration":0.10119037499999806,"durationTicks":68,"midi":62,"name":"D4","ticks":7104,"time":10.571418000000001,"velocity":0.7716535433070866},{"duration":0.08035706250000096,"durationTicks":54,"midi":64,"name":"E4","ticks":7296,"time":10.857132,"velocity":0.937007874015748},{"duration":0.10119037499999983,"durationTicks":68,"midi":64,"name":"E4","ticks":7488,"time":11.142846,"velocity":0.8661417322834646},{"duration":0.48214237500000046,"durationTicks":324,"midi":62,"name":"D4","ticks":7680,"time":11.428560000000001,"velocity":0.8976377952755905},{"duration":0.41666625000000046,"durationTicks":280,"midi":62,"name":"D4","ticks":8064,"time":11.999988000000002,"velocity":0.8346456692913385},{"duration":0.458332875,"durationTicks":308,"midi":69,"name":"A4","ticks":8448,"time":12.571416000000001,"velocity":0.9921259842519685},{"duration":0.09523800000000193,"durationTicks":64,"midi":71,"name":"B4","ticks":8832,"time":13.142844,"velocity":0.8976377952755905},{"duration":0.08035706250000096,"durationTicks":54,"midi":69,"name":"A4","ticks":9024,"time":13.428558,"velocity":0.8661417322834646},{"duration":0.43749956249999933,"durationTicks":294,"midi":67,"name":"G4","ticks":9216,"time":13.714272000000001,"velocity":0.7716535433070866},{"duration":0.49107093749999997,"durationTicks":330,"midi":67,"name":"G4","ticks":9600,"time":14.285700000000002,"velocity":0.7716535433070866},{"duration":0.2559521250000003,"durationTicks":172,"midi":66,"name":"F#4","ticks":9984,"time":14.857128000000001,"velocity":0.8661417322834646},{"duration":0.0892856249999987,"durationTicks":60,"midi":64,"name":"E4","ticks":10176,"time":15.142842000000002,"velocity":0.7322834645669292},{"duration":0.10119037499999983,"durationTicks":68,"midi":66,"name":"F#4","ticks":10368,"time":15.428556,"velocity":0.8661417322834646},{"duration":0.08630943750000064,"durationTicks":58,"midi":67,"name":"G4","ticks":10560,"time":15.71427,"velocity":0.8976377952755905},{"duration":0.4374995625000011,"durationTicks":294,"midi":69,"name":"A4","ticks":10752,"time":15.999984000000001,"velocity":0.937007874015748},{"duration":0.4404757499999974,"durationTicks":296,"midi":69,"name":"A4","ticks":11136,"time":16.571412000000002,"velocity":0.8031496062992126},{"duration":0.4702376250000029,"durationTicks":316,"midi":69,"name":"A4","ticks":11520,"time":17.14284,"velocity":0.937007874015748},{"duration":0.09523800000000193,"durationTicks":64,"midi":71,"name":"B4","ticks":11904,"time":17.714268,"velocity":0.7716535433070866},{"duration":0.09523799999999838,"durationTicks":64,"midi":69,"name":"A4","ticks":12096,"time":17.999982000000003,"velocity":0.8976377952755905},{"duration":0.45535668750000013,"durationTicks":306,"midi":67,"name":"G4","ticks":12288,"time":18.285696,"velocity":0.8031496062992126},{"duration":0.48809474999999836,"durationTicks":328,"midi":67,"name":"G4","ticks":12672,"time":18.857124000000002,"velocity":0.8031496062992126},{"duration":0.2946425624999982,"durationTicks":198,"midi":66,"name":"F#4","ticks":13056,"time":19.428552000000003,"velocity":0.8661417322834646},{"duration":0.09821418749999822,"durationTicks":66,"midi":62,"name":"D4","ticks":13248,"time":19.714266000000002,"velocity":0.7322834645669292},{"duration":0.08928562500000226,"durationTicks":60,"midi":64,"name":"E4","ticks":13440,"time":19.99998,"velocity":0.8661417322834646},{"duration":0.10119037500000161,"durationTicks":68,"midi":64,"name":"E4","ticks":13632,"time":20.285694000000003,"velocity":0.8661417322834646},{"duration":0.47321381249999916,"durationTicks":318,"midi":62,"name":"D4","ticks":13824,"time":20.571408,"velocity":0.8346456692913385},{"duration":0.4255948124999982,"durationTicks":286,"midi":62,"name":"D4","ticks":14208,"time":21.142836000000003,"velocity":0.7322834645669292},{"duration":0.4940471250000016,"durationTicks":332,"midi":69,"name":"A4","ticks":14592,"time":21.714264,"velocity":0.937007874015748},{"duration":0.09523799999999838,"durationTicks":64,"midi":71,"name":"B4","ticks":14976,"time":22.285692,"velocity":0.8346456692913385},{"duration":0.08333324999999903,"durationTicks":56,"midi":69,"name":"A4","ticks":15168,"time":22.571406000000003,"velocity":0.8661417322834646},{"duration":0.4226186250000019,"durationTicks":284,"midi":67,"name":"G4","ticks":15360,"time":22.857120000000002,"velocity":0.8346456692913385},{"duration":0.5178566250000003,"durationTicks":348,"midi":67,"name":"G4","ticks":15744,"time":23.428548000000003,"velocity":0.8661417322834646},{"duration":0.2767854374999992,"durationTicks":186,"midi":66,"name":"F#4","ticks":16128,"time":23.999976000000004,"velocity":0.8110236220472441},{"duration":0.09821418749999822,"durationTicks":66,"midi":64,"name":"E4","ticks":16320,"time":24.285690000000002,"velocity":0.7322834645669292},{"duration":0.0922618125000021,"durationTicks":62,"midi":66,"name":"F#4","ticks":16512,"time":24.571404,"velocity":0.8110236220472441},{"duration":0.09226181249999854,"durationTicks":62,"midi":67,"name":"G4","ticks":16704,"time":24.857118000000003,"velocity":0.8976377952755905},{"duration":0.46428524999999965,"durationTicks":312,"midi":69,"name":"A4","ticks":16896,"time":25.142832000000002,"velocity":0.937007874015748},{"duration":0.4226186250000019,"durationTicks":284,"midi":69,"name":"A4","ticks":17280,"time":25.714260000000003,"velocity":0.8661417322834646},{"duration":0.4523805000000003,"durationTicks":304,"midi":69,"name":"A4","ticks":17664,"time":26.285688,"velocity":0.8661417322834646},{"duration":0.10119037500000161,"durationTicks":68,"midi":71,"name":"B4","ticks":18048,"time":26.857116,"velocity":0.8031496062992126},{"duration":0.09821418749999822,"durationTicks":66,"midi":69,"name":"A4","ticks":18240,"time":27.142830000000004,"velocity":0.8661417322834646},{"duration":0.4226186250000019,"durationTicks":284,"midi":67,"name":"G4","ticks":18432,"time":27.428544000000002,"velocity":0.8661417322834646},{"duration":0.4672614374999995,"durationTicks":314,"midi":67,"name":"G4","ticks":18816,"time":27.999972000000003,"velocity":0.8031496062992126},{"duration":0.279761624999999,"durationTicks":188,"midi":66,"name":"F#4","ticks":19200,"time":28.571400000000004,"velocity":0.8110236220472441},{"duration":0.08333325000000258,"durationTicks":56,"midi":62,"name":"D4","ticks":19392,"time":28.857114000000003,"velocity":0.7716535433070866},{"duration":0.08333325000000258,"durationTicks":56,"midi":64,"name":"E4","ticks":19584,"time":29.142828,"velocity":0.8661417322834646},{"duration":0.1041665624999979,"durationTicks":70,"midi":64,"name":"E4","ticks":19776,"time":29.428542000000004,"velocity":0.8661417322834646},{"duration":2.1398788124999975,"durationTicks":1438,"midi":62,"name":"D4","ticks":19968,"time":29.714256000000002,"velocity":0.8661417322834646},{"duration":0.3392853750000029,"durationTicks":228,"midi":62,"name":"D4","ticks":24576,"time":36.571392,"velocity":0.8976377952755905},{"duration":0.14880937500000613,"durationTicks":100,"midi":64,"name":"E4","ticks":24768,"time":36.857106,"velocity":0.8031496062992126},{"duration":0.0773808750000029,"durationTicks":52,"midi":66,"name":"F#4","ticks":24960,"time":37.14282,"velocity":0.8110236220472441},{"duration":0.0744046874999924,"durationTicks":50,"midi":66,"name":"F#4","ticks":25152,"time":37.428534000000006,"velocity":0.8661417322834646},{"duration":0.45238050000000385,"durationTicks":304,"midi":67,"name":"G4","ticks":25344,"time":37.714248000000005,"velocity":0.9921259842519685},{"duration":0.5119042500000006,"durationTicks":344,"midi":67,"name":"G4","ticks":25728,"time":38.285676,"velocity":0.8976377952755905},{"duration":0.27083306249999595,"durationTicks":182,"midi":66,"name":"F#4","ticks":26112,"time":38.85710400000001,"velocity":0.8661417322834646},{"duration":0.08630943749999886,"durationTicks":58,"midi":64,"name":"E4","ticks":26304,"time":39.142818000000005,"velocity":0.7322834645669292},{"duration":0.08035706249999919,"durationTicks":54,"midi":66,"name":"F#4","ticks":26496,"time":39.428532000000004,"velocity":0.8661417322834646},{"duration":0.09226181249999854,"durationTicks":62,"midi":62,"name":"D4","ticks":26688,"time":39.714246,"velocity":0.8346456692913385},{"duration":0.47321381249999916,"durationTicks":318,"midi":64,"name":"E4","ticks":26880,"time":39.99996,"velocity":0.8661417322834646},{"duration":0.4315471874999943,"durationTicks":290,"midi":64,"name":"E4","ticks":27264,"time":40.571388000000006,"velocity":0.8976377952755905},{"duration":0.3095235000000045,"durationTicks":208,"midi":62,"name":"D4","ticks":27648,"time":41.142816,"velocity":0.8661417322834646},{"duration":0.11904750000000064,"durationTicks":80,"midi":64,"name":"E4","ticks":27840,"time":41.42853,"velocity":0.8346456692913385},{"duration":0.0773808750000029,"durationTicks":52,"midi":66,"name":"F#4","ticks":28032,"time":41.714244,"velocity":0.8661417322834646},{"duration":0.09226181249999144,"durationTicks":62,"midi":66,"name":"F#4","ticks":28224,"time":41.99995800000001,"velocity":0.8661417322834646},{"duration":0.45535668750000013,"durationTicks":306,"midi":67,"name":"G4","ticks":28416,"time":42.285672000000005,"velocity":0.937007874015748},{"duration":0.48214237500000223,"durationTicks":324,"midi":67,"name":"G4","ticks":28800,"time":42.8571,"velocity":0.8346456692913385},{"duration":0.27380925000000644,"durationTicks":184,"midi":66,"name":"F#4","ticks":29184,"time":43.428528,"velocity":0.8661417322834646},{"duration":0.1011903749999945,"durationTicks":68,"midi":62,"name":"D4","ticks":29376,"time":43.714242000000006,"velocity":0.7716535433070866},{"duration":0.08035706249999919,"durationTicks":54,"midi":64,"name":"E4","ticks":29568,"time":43.999956000000005,"velocity":0.937007874015748},{"duration":0.1011903749999945,"durationTicks":68,"midi":64,"name":"E4","ticks":29760,"time":44.28567,"velocity":0.8661417322834646},{"duration":0.48214237500000223,"durationTicks":324,"midi":62,"name":"D4","ticks":29952,"time":44.571384,"velocity":0.8976377952755905},{"duration":0.4166662499999987,"durationTicks":280,"midi":62,"name":"D4","ticks":30336,"time":45.142812000000006,"velocity":0.8346456692913385},{"duration":0.4583328749999964,"durationTicks":308,"midi":69,"name":"A4","ticks":30720,"time":45.714240000000004,"velocity":0.9921259842519685},{"duration":0.09523800000000193,"durationTicks":64,"midi":71,"name":"B4","ticks":31104,"time":46.285668,"velocity":0.8976377952755905},{"duration":0.08035706249999919,"durationTicks":54,"midi":69,"name":"A4","ticks":31296,"time":46.57138200000001,"velocity":0.8661417322834646},{"duration":0.4374995625000011,"durationTicks":294,"midi":67,"name":"G4","ticks":31488,"time":46.857096000000006,"velocity":0.7716535433070866},{"duration":0.4910709374999982,"durationTicks":330,"midi":67,"name":"G4","ticks":31872,"time":47.428524,"velocity":0.7716535433070866},{"duration":0.2559521250000003,"durationTicks":172,"midi":66,"name":"F#4","ticks":32256,"time":47.99995200000001,"velocity":0.8661417322834646},{"duration":0.08928562499999515,"durationTicks":60,"midi":64,"name":"E4","ticks":32448,"time":48.285666000000006,"velocity":0.7322834645669292},{"duration":0.1011903749999945,"durationTicks":68,"midi":66,"name":"F#4","ticks":32640,"time":48.571380000000005,"velocity":0.8661417322834646},{"duration":0.08630943750000597,"durationTicks":58,"midi":67,"name":"G4","ticks":32832,"time":48.857094000000004,"velocity":0.8976377952755905},{"duration":0.4374995625000011,"durationTicks":294,"midi":69,"name":"A4","ticks":33024,"time":49.142808,"velocity":0.937007874015748},{"duration":0.4404757499999974,"durationTicks":296,"midi":69,"name":"A4","ticks":33408,"time":49.71423600000001,"velocity":0.8031496062992126},{"duration":0.4702376250000029,"durationTicks":316,"midi":69,"name":"A4","ticks":33792,"time":50.285664000000004,"velocity":0.937007874015748},{"duration":0.09523800000000193,"durationTicks":64,"midi":71,"name":"B4","ticks":34176,"time":50.857092,"velocity":0.7716535433070866},{"duration":0.09523800000000193,"durationTicks":64,"midi":69,"name":"A4","ticks":34368,"time":51.14280600000001,"velocity":0.8976377952755905},{"duration":0.45535668750000013,"durationTicks":306,"midi":67,"name":"G4","ticks":34560,"time":51.428520000000006,"velocity":0.8031496062992126},{"duration":0.4880947500000019,"durationTicks":328,"midi":67,"name":"G4","ticks":34944,"time":51.999948,"velocity":0.8031496062992126},{"duration":0.29464256250000176,"durationTicks":198,"midi":66,"name":"F#4","ticks":35328,"time":52.571376,"velocity":0.8661417322834646},{"duration":0.09821418749999822,"durationTicks":66,"midi":62,"name":"D4","ticks":35520,"time":52.85709000000001,"velocity":0.7322834645669292},{"duration":0.08928562500000226,"durationTicks":60,"midi":64,"name":"E4","ticks":35712,"time":53.142804000000005,"velocity":0.8661417322834646},{"duration":0.1011903749999945,"durationTicks":68,"midi":64,"name":"E4","ticks":35904,"time":53.428518000000004,"velocity":0.8661417322834646},{"duration":0.47321381249999916,"durationTicks":318,"midi":62,"name":"D4","ticks":36096,"time":53.714232,"velocity":0.8346456692913385},{"duration":0.42559481250000175,"durationTicks":286,"midi":62,"name":"D4","ticks":36480,"time":54.28566000000001,"velocity":0.7322834645669292},{"duration":0.4940471249999945,"durationTicks":332,"midi":69,"name":"A4","ticks":36864,"time":54.857088000000005,"velocity":0.937007874015748},{"duration":0.09523800000000193,"durationTicks":64,"midi":71,"name":"B4","ticks":37248,"time":55.428516,"velocity":0.8346456692913385},{"duration":0.08333324999999547,"durationTicks":56,"midi":69,"name":"A4","ticks":37440,"time":55.71423000000001,"velocity":0.8661417322834646},{"duration":0.42261862499999836,"durationTicks":284,"midi":67,"name":"G4","ticks":37632,"time":55.999944000000006,"velocity":0.8346456692913385},{"duration":0.5178566250000003,"durationTicks":348,"midi":67,"name":"G4","ticks":38016,"time":56.571372000000004,"velocity":0.8661417322834646},{"duration":0.2767854374999956,"durationTicks":186,"midi":66,"name":"F#4","ticks":38400,"time":57.14280000000001,"velocity":0.8110236220472441},{"duration":0.09821418749999822,"durationTicks":66,"midi":64,"name":"E4","ticks":38592,"time":57.42851400000001,"velocity":0.7322834645669292},{"duration":0.09226181249999854,"durationTicks":62,"midi":66,"name":"F#4","ticks":38784,"time":57.714228000000006,"velocity":0.8110236220472441},{"duration":0.09226181249999854,"durationTicks":62,"midi":67,"name":"G4","ticks":38976,"time":57.999942000000004,"velocity":0.8976377952755905},{"duration":0.4642852500000032,"durationTicks":312,"midi":69,"name":"A4","ticks":39168,"time":58.285656,"velocity":0.937007874015748},{"duration":0.42261862499999125,"durationTicks":284,"midi":69,"name":"A4","ticks":39552,"time":58.85708400000001,"velocity":0.8661417322834646},{"duration":0.45238050000000385,"durationTicks":304,"midi":69,"name":"A4","ticks":39936,"time":59.428512000000005,"velocity":0.8661417322834646},{"duration":0.10119037500000161,"durationTicks":68,"midi":71,"name":"B4","ticks":40320,"time":59.99994,"velocity":0.8031496062992126},{"duration":0.09821418749999822,"durationTicks":66,"midi":69,"name":"A4","ticks":40512,"time":60.28565400000001,"velocity":0.8661417322834646},{"duration":0.42261862499999836,"durationTicks":284,"midi":67,"name":"G4","ticks":40704,"time":60.57136800000001,"velocity":0.8661417322834646},{"duration":0.4672614374999995,"durationTicks":314,"midi":67,"name":"G4","ticks":41088,"time":61.142796000000004,"velocity":0.8031496062992126},{"duration":0.279761624999999,"durationTicks":188,"midi":66,"name":"F#4","ticks":41472,"time":61.714224,"velocity":0.8110236220472441},{"duration":0.08333324999999547,"durationTicks":56,"midi":62,"name":"D4","ticks":41664,"time":61.99993800000001,"velocity":0.7716535433070866},{"duration":0.08333324999999547,"durationTicks":56,"midi":64,"name":"E4","ticks":41856,"time":62.285652000000006,"velocity":0.8661417322834646},{"duration":0.104166562500005,"durationTicks":70,"midi":64,"name":"E4","ticks":42048,"time":62.571366000000005,"velocity":0.8661417322834646},{"duration":2.139878812500008,"durationTicks":1438,"midi":62,"name":"D4","ticks":42240,"time":62.85708,"velocity":0.8661417322834646},{"duration":0.3392853750000029,"durationTicks":228,"midi":62,"name":"D4","ticks":45312,"time":67.428504,"velocity":0.8976377952755905},{"duration":0.14880937499999902,"durationTicks":100,"midi":64,"name":"E4","ticks":45504,"time":67.714218,"velocity":0.8031496062992126},{"duration":0.0773808750000029,"durationTicks":52,"midi":66,"name":"F#4","ticks":45696,"time":67.999932,"velocity":0.8110236220472441},{"duration":0.07440468750000662,"durationTicks":50,"midi":66,"name":"F#4","ticks":45888,"time":68.285646,"velocity":0.8661417322834646},{"duration":0.45238050000000385,"durationTicks":304,"midi":67,"name":"G4","ticks":46080,"time":68.57136,"velocity":0.9921259842519685},{"duration":0.5119042499999864,"durationTicks":344,"midi":67,"name":"G4","ticks":46464,"time":69.14278800000001,"velocity":0.8976377952755905},{"duration":0.27083306249998884,"durationTicks":182,"midi":66,"name":"F#4","ticks":46848,"time":69.71421600000001,"velocity":0.8661417322834646},{"duration":0.08630943750000597,"durationTicks":58,"midi":64,"name":"E4","ticks":47040,"time":69.99993,"velocity":0.7322834645669292},{"duration":0.08035706249999919,"durationTicks":54,"midi":66,"name":"F#4","ticks":47232,"time":70.285644,"velocity":0.8661417322834646},{"duration":0.09226181249999854,"durationTicks":62,"midi":62,"name":"D4","ticks":47424,"time":70.571358,"velocity":0.8346456692913385},{"duration":0.47321381250000627,"durationTicks":318,"midi":64,"name":"E4","ticks":47616,"time":70.857072,"velocity":0.8661417322834646},{"duration":0.43154718750000143,"durationTicks":290,"midi":64,"name":"E4","ticks":48000,"time":71.4285,"velocity":0.8976377952755905},{"duration":0.3095234999999974,"durationTicks":208,"midi":62,"name":"D4","ticks":48384,"time":71.99992800000001,"velocity":0.8661417322834646},{"duration":0.11904749999999353,"durationTicks":80,"midi":64,"name":"E4","ticks":48576,"time":72.28564200000001,"velocity":0.8346456692913385},{"duration":0.0773808750000029,"durationTicks":52,"midi":66,"name":"F#4","ticks":48768,"time":72.57135600000001,"velocity":0.8661417322834646},{"duration":0.09226181249999854,"durationTicks":62,"midi":66,"name":"F#4","ticks":48960,"time":72.85707000000001,"velocity":0.8661417322834646},{"duration":0.45535668750000013,"durationTicks":306,"midi":67,"name":"G4","ticks":49152,"time":73.142784,"velocity":0.937007874015748},{"duration":0.48214237500000934,"durationTicks":324,"midi":67,"name":"G4","ticks":49536,"time":73.714212,"velocity":0.8346456692913385},{"duration":0.27380924999999934,"durationTicks":184,"midi":66,"name":"F#4","ticks":49920,"time":74.28564,"velocity":0.8661417322834646},{"duration":0.10119037500001582,"durationTicks":68,"midi":62,"name":"D4","ticks":50112,"time":74.571354,"velocity":0.7716535433070866},{"duration":0.08035706249999919,"durationTicks":54,"midi":64,"name":"E4","ticks":50304,"time":74.85706800000001,"velocity":0.937007874015748},{"duration":0.10119037500000161,"durationTicks":68,"midi":64,"name":"E4","ticks":50496,"time":75.14278200000001,"velocity":0.8661417322834646},{"duration":0.4821423749999951,"durationTicks":324,"midi":62,"name":"D4","ticks":50688,"time":75.42849600000001,"velocity":0.8976377952755905},{"duration":0.4166662499999916,"durationTicks":280,"midi":62,"name":"D4","ticks":51072,"time":75.99992400000001,"velocity":0.8346456692913385},{"duration":0.45833287500001063,"durationTicks":308,"midi":69,"name":"A4","ticks":51456,"time":76.571352,"velocity":0.9921259842519685},{"duration":0.09523799999999483,"durationTicks":64,"midi":71,"name":"B4","ticks":51840,"time":77.14278,"velocity":0.8976377952755905},{"duration":0.08035706249999919,"durationTicks":54,"midi":69,"name":"A4","ticks":52032,"time":77.428494,"velocity":0.8661417322834646},{"duration":0.437499562499994,"durationTicks":294,"midi":67,"name":"G4","ticks":52224,"time":77.71420800000001,"velocity":0.7716535433070866},{"duration":0.4910709374999982,"durationTicks":330,"midi":67,"name":"G4","ticks":52608,"time":78.28563600000001,"velocity":0.7716535433070866},{"duration":0.2559521249999932,"durationTicks":172,"midi":66,"name":"F#4","ticks":52992,"time":78.85706400000001,"velocity":0.8661417322834646},{"duration":0.08928562500000226,"durationTicks":60,"midi":64,"name":"E4","ticks":53184,"time":79.142778,"velocity":0.7322834645669292},{"duration":0.10119037500000161,"durationTicks":68,"midi":66,"name":"F#4","ticks":53376,"time":79.428492,"velocity":0.8661417322834646},{"duration":0.08630943749999176,"durationTicks":58,"midi":67,"name":"G4","ticks":53568,"time":79.714206,"velocity":0.8976377952755905},{"duration":0.4374995625000082,"durationTicks":294,"midi":69,"name":"A4","ticks":53760,"time":79.99992,"velocity":0.937007874015748},{"duration":0.4404757500000187,"durationTicks":296,"midi":69,"name":"A4","ticks":54144,"time":80.571348,"velocity":0.8031496062992126},{"duration":0.4702376249999958,"durationTicks":316,"midi":69,"name":"A4","ticks":54528,"time":81.14277600000001,"velocity":0.937007874015748},{"duration":0.09523799999999483,"durationTicks":64,"midi":71,"name":"B4","ticks":54912,"time":81.71420400000001,"velocity":0.7716535433070866},{"duration":0.09523799999999483,"durationTicks":64,"midi":69,"name":"A4","ticks":55104,"time":81.99991800000001,"velocity":0.8976377952755905},{"duration":0.45535668750000013,"durationTicks":306,"midi":67,"name":"G4","ticks":55296,"time":82.285632,"velocity":0.8031496062992126},{"duration":0.4880947500000019,"durationTicks":328,"midi":67,"name":"G4","ticks":55680,"time":82.85706,"velocity":0.8031496062992126},{"duration":0.29464256250000176,"durationTicks":198,"midi":66,"name":"F#4","ticks":56064,"time":83.428488,"velocity":0.8661417322834646},{"duration":0.09821418750000532,"durationTicks":66,"midi":62,"name":"D4","ticks":56256,"time":83.714202,"velocity":0.7322834645669292},{"duration":0.08928562499998804,"durationTicks":60,"midi":64,"name":"E4","ticks":56448,"time":83.99991600000001,"velocity":0.8661417322834646},{"duration":0.10119037500000161,"durationTicks":68,"midi":64,"name":"E4","ticks":56640,"time":84.28563000000001,"velocity":0.8661417322834646},{"duration":0.47321381249999206,"durationTicks":318,"midi":62,"name":"D4","ticks":56832,"time":84.57134400000001,"velocity":0.8346456692913385},{"duration":0.42559481249999465,"durationTicks":286,"midi":62,"name":"D4","ticks":57216,"time":85.14277200000001,"velocity":0.7322834645669292},{"duration":0.4940471250000087,"durationTicks":332,"midi":69,"name":"A4","ticks":57600,"time":85.7142,"velocity":0.937007874015748},{"duration":0.09523799999999483,"durationTicks":64,"midi":71,"name":"B4","ticks":57984,"time":86.285628,"velocity":0.8346456692913385},{"duration":0.08333325000000968,"durationTicks":56,"midi":69,"name":"A4","ticks":58176,"time":86.571342,"velocity":0.8661417322834646},{"duration":0.42261862500001257,"durationTicks":284,"midi":67,"name":"G4","ticks":58368,"time":86.857056,"velocity":0.8346456692913385},{"duration":0.5178566249999932,"durationTicks":348,"midi":67,"name":"G4","ticks":58752,"time":87.42848400000001,"velocity":0.8661417322834646},{"duration":0.2767854374999956,"durationTicks":186,"midi":66,"name":"F#4","ticks":59136,"time":87.99991200000001,"velocity":0.8110236220472441},{"duration":0.09821418750000532,"durationTicks":66,"midi":64,"name":"E4","ticks":59328,"time":88.28562600000001,"velocity":0.7322834645669292},{"duration":0.09226181250001275,"durationTicks":62,"midi":66,"name":"F#4","ticks":59520,"time":88.57134,"velocity":0.8110236220472441},{"duration":0.09226181250001275,"durationTicks":62,"midi":67,"name":"G4","ticks":59712,"time":88.857054,"velocity":0.8976377952755905},{"duration":0.4642852500000032,"durationTicks":312,"midi":69,"name":"A4","ticks":59904,"time":89.142768,"velocity":0.937007874015748},{"duration":0.42261862500001257,"durationTicks":284,"midi":69,"name":"A4","ticks":60288,"time":89.714196,"velocity":0.8661417322834646},{"duration":0.45238049999998964,"durationTicks":304,"midi":69,"name":"A4","ticks":60672,"time":90.28562400000001,"velocity":0.8661417322834646},{"duration":0.10119037500000161,"durationTicks":68,"midi":71,"name":"B4","ticks":61056,"time":90.85705200000001,"velocity":0.8031496062992126},{"duration":0.09821418750000532,"durationTicks":66,"midi":69,"name":"A4","ticks":61248,"time":91.14276600000001,"velocity":0.8661417322834646},{"duration":0.42261862499999836,"durationTicks":284,"midi":67,"name":"G4","ticks":61440,"time":91.42848000000001,"velocity":0.8661417322834646},{"duration":0.4672614375000137,"durationTicks":314,"midi":67,"name":"G4","ticks":61824,"time":91.999908,"velocity":0.8031496062992126},{"duration":0.2797616250000061,"durationTicks":188,"midi":66,"name":"F#4","ticks":62208,"time":92.571336,"velocity":0.8110236220472441},{"duration":0.08333325000000968,"durationTicks":56,"midi":62,"name":"D4","ticks":62400,"time":92.85705,"velocity":0.7716535433070866},{"duration":0.08333324999999547,"durationTicks":56,"midi":64,"name":"E4","ticks":62592,"time":93.14276400000001,"velocity":0.8661417322834646},{"duration":0.10416656249998368,"durationTicks":70,"midi":64,"name":"E4","ticks":62784,"time":93.42847800000001,"velocity":0.8661417322834646},{"duration":2.139878812499987,"durationTicks":1438,"midi":62,"name":"D4","ticks":62976,"time":93.71419200000001,"velocity":0.8661417322834646}]},{"name":"Track 4","notes":[{"duration":0.3392853750000029,"durationTicks":228,"midi":86,"name":"D6","ticks":24576,"time":36.571392,"velocity":0.8976377952755905},{"duration":0.14880937500000613,"durationTicks":100,"midi":88,"name":"E6","ticks":24768,"time":36.857106,"velocity":0.8031496062992126},{"duration":0.0773808750000029,"durationTicks":52,"midi":90,"name":"F#6","ticks":24960,"time":37.14282,"velocity":0.8110236220472441},{"duration":0.0744046874999924,"durationTicks":50,"midi":90,"name":"F#6","ticks":25152,"time":37.428534000000006,"velocity":0.8661417322834646},{"duration":0.45238050000000385,"durationTicks":304,"midi":91,"name":"G6","ticks":25344,"time":37.714248000000005,"velocity":0.9921259842519685},{"duration":0.5119042500000006,"durationTicks":344,"midi":91,"name":"G6","ticks":25728,"time":38.285676,"velocity":0.8976377952755905},{"duration":0.27083306249999595,"durationTicks":182,"midi":90,"name":"F#6","ticks":26112,"time":38.85710400000001,"velocity":0.8661417322834646},{"duration":0.08630943749999886,"durationTicks":58,"midi":88,"name":"E6","ticks":26304,"time":39.142818000000005,"velocity":0.7322834645669292},{"duration":0.08035706249999919,"durationTicks":54,"midi":90,"name":"F#6","ticks":26496,"time":39.428532000000004,"velocity":0.8661417322834646},{"duration":0.09226181249999854,"durationTicks":62,"midi":86,"name":"D6","ticks":26688,"time":39.714246,"velocity":0.8346456692913385},{"duration":0.47321381249999916,"durationTicks":318,"midi":88,"name":"E6","ticks":26880,"time":39.99996,"velocity":0.8661417322834646},{"duration":0.4315471874999943,"durationTicks":290,"midi":88,"name":"E6","ticks":27264,"time":40.571388000000006,"velocity":0.8976377952755905},{"duration":0.3095235000000045,"durationTicks":208,"midi":86,"name":"D6","ticks":27648,"time":41.142816,"velocity":0.8661417322834646},{"duration":0.11904750000000064,"durationTicks":80,"midi":88,"name":"E6","ticks":27840,"time":41.42853,"velocity":0.8346456692913385},{"duration":0.0773808750000029,"durationTicks":52,"midi":90,"name":"F#6","ticks":28032,"time":41.714244,"velocity":0.8661417322834646},{"duration":0.09226181249999144,"durationTicks":62,"midi":90,"name":"F#6","ticks":28224,"time":41.99995800000001,"velocity":0.8661417322834646},{"duration":0.45535668750000013,"durationTicks":306,"midi":91,"name":"G6","ticks":28416,"time":42.285672000000005,"velocity":0.937007874015748},{"duration":0.48214237500000223,"durationTicks":324,"midi":91,"name":"G6","ticks":28800,"time":42.8571,"velocity":0.8346456692913385},{"duration":0.27380925000000644,"durationTicks":184,"midi":90,"name":"F#6","ticks":29184,"time":43.428528,"velocity":0.8661417322834646},{"duration":0.1011903749999945,"durationTicks":68,"midi":86,"name":"D6","ticks":29376,"time":43.714242000000006,"velocity":0.7716535433070866},{"duration":0.08035706249999919,"durationTicks":54,"midi":88,"name":"E6","ticks":29568,"time":43.999956000000005,"velocity":0.937007874015748},{"duration":0.1011903749999945,"durationTicks":68,"midi":88,"name":"E6","ticks":29760,"time":44.28567,"velocity":0.8661417322834646},{"duration":0.48214237500000223,"durationTicks":324,"midi":86,"name":"D6","ticks":29952,"time":44.571384,"velocity":0.8976377952755905},{"duration":0.4166662499999987,"durationTicks":280,"midi":86,"name":"D6","ticks":30336,"time":45.142812000000006,"velocity":0.8346456692913385},{"duration":0.4583328749999964,"durationTicks":308,"midi":93,"name":"A6","ticks":30720,"time":45.714240000000004,"velocity":0.9921259842519685},{"duration":0.09523800000000193,"durationTicks":64,"midi":95,"name":"B6","ticks":31104,"time":46.285668,"velocity":0.8976377952755905},{"duration":0.08035706249999919,"durationTicks":54,"midi":93,"name":"A6","ticks":31296,"time":46.57138200000001,"velocity":0.8661417322834646},{"duration":0.4374995625000011,"durationTicks":294,"midi":91,"name":"G6","ticks":31488,"time":46.857096000000006,"velocity":0.7716535433070866},{"duration":0.4910709374999982,"durationTicks":330,"midi":91,"name":"G6","ticks":31872,"time":47.428524,"velocity":0.7716535433070866},{"duration":0.2559521250000003,"durationTicks":172,"midi":90,"name":"F#6","ticks":32256,"time":47.99995200000001,"velocity":0.8661417322834646},{"duration":0.08928562499999515,"durationTicks":60,"midi":88,"name":"E6","ticks":32448,"time":48.285666000000006,"velocity":0.7322834645669292},{"duration":0.1011903749999945,"durationTicks":68,"midi":90,"name":"F#6","ticks":32640,"time":48.571380000000005,"velocity":0.8661417322834646},{"duration":0.08630943750000597,"durationTicks":58,"midi":91,"name":"G6","ticks":32832,"time":48.857094000000004,"velocity":0.8976377952755905},{"duration":0.4374995625000011,"durationTicks":294,"midi":93,"name":"A6","ticks":33024,"time":49.142808,"velocity":0.937007874015748},{"duration":0.4404757499999974,"durationTicks":296,"midi":93,"name":"A6","ticks":33408,"time":49.71423600000001,"velocity":0.8031496062992126},{"duration":0.4702376250000029,"durationTicks":316,"midi":93,"name":"A6","ticks":33792,"time":50.285664000000004,"velocity":0.937007874015748},{"duration":0.09523800000000193,"durationTicks":64,"midi":95,"name":"B6","ticks":34176,"time":50.857092,"velocity":0.7716535433070866},{"duration":0.09523800000000193,"durationTicks":64,"midi":93,"name":"A6","ticks":34368,"time":51.14280600000001,"velocity":0.8976377952755905},{"duration":0.45535668750000013,"durationTicks":306,"midi":91,"name":"G6","ticks":34560,"time":51.428520000000006,"velocity":0.8031496062992126},{"duration":0.4880947500000019,"durationTicks":328,"midi":91,"name":"G6","ticks":34944,"time":51.999948,"velocity":0.8031496062992126},{"duration":0.29464256250000176,"durationTicks":198,"midi":90,"name":"F#6","ticks":35328,"time":52.571376,"velocity":0.8661417322834646},{"duration":0.09821418749999822,"durationTicks":66,"midi":86,"name":"D6","ticks":35520,"time":52.85709000000001,"velocity":0.7322834645669292},{"duration":0.08928562500000226,"durationTicks":60,"midi":88,"name":"E6","ticks":35712,"time":53.142804000000005,"velocity":0.8661417322834646},{"duration":0.1011903749999945,"durationTicks":68,"midi":88,"name":"E6","ticks":35904,"time":53.428518000000004,"velocity":0.8661417322834646},{"duration":0.47321381249999916,"durationTicks":318,"midi":86,"name":"D6","ticks":36096,"time":53.714232,"velocity":0.8346456692913385},{"duration":0.42559481250000175,"durationTicks":286,"midi":86,"name":"D6","ticks":36480,"time":54.28566000000001,"velocity":0.7322834645669292},{"duration":0.4940471249999945,"durationTicks":332,"midi":93,"name":"A6","ticks":36864,"time":54.857088000000005,"velocity":0.937007874015748},{"duration":0.09523800000000193,"durationTicks":64,"midi":95,"name":"B6","ticks":37248,"time":55.428516,"velocity":0.8346456692913385},{"duration":0.08333324999999547,"durationTicks":56,"midi":93,"name":"A6","ticks":37440,"time":55.71423000000001,"velocity":0.8661417322834646},{"duration":0.42261862499999836,"durationTicks":284,"midi":91,"name":"G6","ticks":37632,"time":55.999944000000006,"velocity":0.8346456692913385},{"duration":0.5178566250000003,"durationTicks":348,"midi":91,"name":"G6","ticks":38016,"time":56.571372000000004,"velocity":0.8661417322834646},{"duration":0.2767854374999956,"durationTicks":186,"midi":90,"name":"F#6","ticks":38400,"time":57.14280000000001,"velocity":0.8110236220472441},{"duration":0.09821418749999822,"durationTicks":66,"midi":88,"name":"E6","ticks":38592,"time":57.42851400000001,"velocity":0.7322834645669292},{"duration":0.09226181249999854,"durationTicks":62,"midi":90,"name":"F#6","ticks":38784,"time":57.714228000000006,"velocity":0.8110236220472441},{"duration":0.09226181249999854,"durationTicks":62,"midi":91,"name":"G6","ticks":38976,"time":57.999942000000004,"velocity":0.8976377952755905},{"duration":0.4642852500000032,"durationTicks":312,"midi":93,"name":"A6","ticks":39168,"time":58.285656,"velocity":0.937007874015748},{"duration":0.42261862499999125,"durationTicks":284,"midi":93,"name":"A6","ticks":39552,"time":58.85708400000001,"velocity":0.8661417322834646},{"duration":0.45238050000000385,"durationTicks":304,"midi":93,"name":"A6","ticks":39936,"time":59.428512000000005,"velocity":0.8661417322834646},{"duration":0.10119037500000161,"durationTicks":68,"midi":95,"name":"B6","ticks":40320,"time":59.99994,"velocity":0.8031496062992126},{"duration":0.09821418749999822,"durationTicks":66,"midi":93,"name":"A6","ticks":40512,"time":60.28565400000001,"velocity":0.8661417322834646},{"duration":0.42261862499999836,"durationTicks":284,"midi":91,"name":"G6","ticks":40704,"time":60.57136800000001,"velocity":0.8661417322834646},{"duration":0.4672614374999995,"durationTicks":314,"midi":91,"name":"G6","ticks":41088,"time":61.142796000000004,"velocity":0.8031496062992126},{"duration":0.279761624999999,"durationTicks":188,"midi":90,"name":"F#6","ticks":41472,"time":61.714224,"velocity":0.8110236220472441},{"duration":0.08333324999999547,"durationTicks":56,"midi":86,"name":"D6","ticks":41664,"time":61.99993800000001,"velocity":0.7716535433070866},{"duration":0.08333324999999547,"durationTicks":56,"midi":88,"name":"E6","ticks":41856,"time":62.285652000000006,"velocity":0.8661417322834646},{"duration":0.104166562500005,"durationTicks":70,"midi":88,"name":"E6","ticks":42048,"time":62.571366000000005,"velocity":0.8661417322834646},{"duration":2.139878812500008,"durationTicks":1438,"midi":86,"name":"D6","ticks":42240,"time":62.85708,"velocity":0.8661417322834646},{"duration":0.3392853750000029,"durationTicks":228,"midi":86,"name":"D6","ticks":45312,"time":67.428504,"velocity":0.8976377952755905},{"duration":0.14880937499999902,"durationTicks":100,"midi":88,"name":"E6","ticks":45504,"time":67.714218,"velocity":0.8031496062992126},{"duration":0.0773808750000029,"durationTicks":52,"midi":90,"name":"F#6","ticks":45696,"time":67.999932,"velocity":0.8110236220472441},{"duration":0.07440468750000662,"durationTicks":50,"midi":90,"name":"F#6","ticks":45888,"time":68.285646,"velocity":0.8661417322834646},{"duration":0.45238050000000385,"durationTicks":304,"midi":91,"name":"G6","ticks":46080,"time":68.57136,"velocity":0.9921259842519685},{"duration":0.5119042499999864,"durationTicks":344,"midi":91,"name":"G6","ticks":46464,"time":69.14278800000001,"velocity":0.8976377952755905},{"duration":0.27083306249998884,"durationTicks":182,"midi":90,"name":"F#6","ticks":46848,"time":69.71421600000001,"velocity":0.8661417322834646},{"duration":0.08630943750000597,"durationTicks":58,"midi":88,"name":"E6","ticks":47040,"time":69.99993,"velocity":0.7322834645669292},{"duration":0.08035706249999919,"durationTicks":54,"midi":90,"name":"F#6","ticks":47232,"time":70.285644,"velocity":0.8661417322834646},{"duration":0.09226181249999854,"durationTicks":62,"midi":86,"name":"D6","ticks":47424,"time":70.571358,"velocity":0.8346456692913385},{"duration":0.47321381250000627,"durationTicks":318,"midi":88,"name":"E6","ticks":47616,"time":70.857072,"velocity":0.8661417322834646},{"duration":0.43154718750000143,"durationTicks":290,"midi":88,"name":"E6","ticks":48000,"time":71.4285,"velocity":0.8976377952755905},{"duration":0.3095234999999974,"durationTicks":208,"midi":86,"name":"D6","ticks":48384,"time":71.99992800000001,"velocity":0.8661417322834646},{"duration":0.11904749999999353,"durationTicks":80,"midi":88,"name":"E6","ticks":48576,"time":72.28564200000001,"velocity":0.8346456692913385},{"duration":0.0773808750000029,"durationTicks":52,"midi":90,"name":"F#6","ticks":48768,"time":72.57135600000001,"velocity":0.8661417322834646},{"duration":0.09226181249999854,"durationTicks":62,"midi":90,"name":"F#6","ticks":48960,"time":72.85707000000001,"velocity":0.8661417322834646},{"duration":0.45535668750000013,"durationTicks":306,"midi":91,"name":"G6","ticks":49152,"time":73.142784,"velocity":0.937007874015748},{"duration":0.48214237500000934,"durationTicks":324,"midi":91,"name":"G6","ticks":49536,"time":73.714212,"velocity":0.8346456692913385},{"duration":0.27380924999999934,"durationTicks":184,"midi":90,"name":"F#6","ticks":49920,"time":74.28564,"velocity":0.8661417322834646},{"duration":0.10119037500001582,"durationTicks":68,"midi":86,"name":"D6","ticks":50112,"time":74.571354,"velocity":0.7716535433070866},{"duration":0.08035706249999919,"durationTicks":54,"midi":88,"name":"E6","ticks":50304,"time":74.85706800000001,"velocity":0.937007874015748},{"duration":0.10119037500000161,"durationTicks":68,"midi":88,"name":"E6","ticks":50496,"time":75.14278200000001,"velocity":0.8661417322834646},{"duration":0.4821423749999951,"durationTicks":324,"midi":86,"name":"D6","ticks":50688,"time":75.42849600000001,"velocity":0.8976377952755905},{"duration":0.4166662499999916,"durationTicks":280,"midi":86,"name":"D6","ticks":51072,"time":75.99992400000001,"velocity":0.8346456692913385},{"duration":0.45833287500001063,"durationTicks":308,"midi":93,"name":"A6","ticks":51456,"time":76.571352,"velocity":0.9921259842519685},{"duration":0.09523799999999483,"durationTicks":64,"midi":95,"name":"B6","ticks":51840,"time":77.14278,"velocity":0.8976377952755905},{"duration":0.08035706249999919,"durationTicks":54,"midi":93,"name":"A6","ticks":52032,"time":77.428494,"velocity":0.8661417322834646},{"duration":0.437499562499994,"durationTicks":294,"midi":91,"name":"G6","ticks":52224,"time":77.71420800000001,"velocity":0.7716535433070866},{"duration":0.4910709374999982,"durationTicks":330,"midi":91,"name":"G6","ticks":52608,"time":78.28563600000001,"velocity":0.7716535433070866},{"duration":0.2559521249999932,"durationTicks":172,"midi":90,"name":"F#6","ticks":52992,"time":78.85706400000001,"velocity":0.8661417322834646},{"duration":0.08928562500000226,"durationTicks":60,"midi":88,"name":"E6","ticks":53184,"time":79.142778,"velocity":0.7322834645669292},{"duration":0.10119037500000161,"durationTicks":68,"midi":90,"name":"F#6","ticks":53376,"time":79.428492,"velocity":0.8661417322834646},{"duration":0.08630943749999176,"durationTicks":58,"midi":91,"name":"G6","ticks":53568,"time":79.714206,"velocity":0.8976377952755905},{"duration":0.4374995625000082,"durationTicks":294,"midi":93,"name":"A6","ticks":53760,"time":79.99992,"velocity":0.937007874015748},{"duration":0.4404757500000187,"durationTicks":296,"midi":93,"name":"A6","ticks":54144,"time":80.571348,"velocity":0.8031496062992126},{"duration":0.4702376249999958,"durationTicks":316,"midi":93,"name":"A6","ticks":54528,"time":81.14277600000001,"velocity":0.937007874015748},{"duration":0.09523799999999483,"durationTicks":64,"midi":95,"name":"B6","ticks":54912,"time":81.71420400000001,"velocity":0.7716535433070866},{"duration":0.09523799999999483,"durationTicks":64,"midi":93,"name":"A6","ticks":55104,"time":81.99991800000001,"velocity":0.8976377952755905},{"duration":0.45535668750000013,"durationTicks":306,"midi":91,"name":"G6","ticks":55296,"time":82.285632,"velocity":0.8031496062992126},{"duration":0.4880947500000019,"durationTicks":328,"midi":91,"name":"G6","ticks":55680,"time":82.85706,"velocity":0.8031496062992126},{"duration":0.29464256250000176,"durationTicks":198,"midi":90,"name":"F#6","ticks":56064,"time":83.428488,"velocity":0.8661417322834646},{"duration":0.09821418750000532,"durationTicks":66,"midi":86,"name":"D6","ticks":56256,"time":83.714202,"velocity":0.7322834645669292},{"duration":0.08928562499998804,"durationTicks":60,"midi":88,"name":"E6","ticks":56448,"time":83.99991600000001,"velocity":0.8661417322834646},{"duration":0.10119037500000161,"durationTicks":68,"midi":88,"name":"E6","ticks":56640,"time":84.28563000000001,"velocity":0.8661417322834646},{"duration":0.47321381249999206,"durationTicks":318,"midi":86,"name":"D6","ticks":56832,"time":84.57134400000001,"velocity":0.8346456692913385},{"duration":0.42559481249999465,"durationTicks":286,"midi":86,"name":"D6","ticks":57216,"time":85.14277200000001,"velocity":0.7322834645669292},{"duration":0.4940471250000087,"durationTicks":332,"midi":93,"name":"A6","ticks":57600,"time":85.7142,"velocity":0.937007874015748},{"duration":0.09523799999999483,"durationTicks":64,"midi":95,"name":"B6","ticks":57984,"time":86.285628,"velocity":0.8346456692913385},{"duration":0.08333325000000968,"durationTicks":56,"midi":93,"name":"A6","ticks":58176,"time":86.571342,"velocity":0.8661417322834646},{"duration":0.42261862500001257,"durationTicks":284,"midi":91,"name":"G6","ticks":58368,"time":86.857056,"velocity":0.8346456692913385},{"duration":0.5178566249999932,"durationTicks":348,"midi":91,"name":"G6","ticks":58752,"time":87.42848400000001,"velocity":0.8661417322834646},{"duration":0.2767854374999956,"durationTicks":186,"midi":90,"name":"F#6","ticks":59136,"time":87.99991200000001,"velocity":0.8110236220472441},{"duration":0.09821418750000532,"durationTicks":66,"midi":88,"name":"E6","ticks":59328,"time":88.28562600000001,"velocity":0.7322834645669292},{"duration":0.09226181250001275,"durationTicks":62,"midi":90,"name":"F#6","ticks":59520,"time":88.57134,"velocity":0.8110236220472441},{"duration":0.09226181250001275,"durationTicks":62,"midi":91,"name":"G6","ticks":59712,"time":88.857054,"velocity":0.8976377952755905},{"duration":0.4642852500000032,"durationTicks":312,"midi":93,"name":"A6","ticks":59904,"time":89.142768,"velocity":0.937007874015748},{"duration":0.42261862500001257,"durationTicks":284,"midi":93,"name":"A6","ticks":60288,"time":89.714196,"velocity":0.8661417322834646},{"duration":0.45238049999998964,"durationTicks":304,"midi":93,"name":"A6","ticks":60672,"time":90.28562400000001,"velocity":0.8661417322834646},{"duration":0.10119037500000161,"durationTicks":68,"midi":95,"name":"B6","ticks":61056,"time":90.85705200000001,"velocity":0.8031496062992126},{"duration":0.09821418750000532,"durationTicks":66,"midi":93,"name":"A6","ticks":61248,"time":91.14276600000001,"velocity":0.8661417322834646},{"duration":0.42261862499999836,"durationTicks":284,"midi":91,"name":"G6","ticks":61440,"time":91.42848000000001,"velocity":0.8661417322834646},{"duration":0.4672614375000137,"durationTicks":314,"midi":91,"name":"G6","ticks":61824,"time":91.999908,"velocity":0.8031496062992126},{"duration":0.2797616250000061,"durationTicks":188,"midi":90,"name":"F#6","ticks":62208,"time":92.571336,"velocity":0.8110236220472441},{"duration":0.08333325000000968,"durationTicks":56,"midi":86,"name":"D6","ticks":62400,"time":92.85705,"velocity":0.7716535433070866},{"duration":0.08333324999999547,"durationTicks":56,"midi":88,"name":"E6","ticks":62592,"time":93.14276400000001,"velocity":0.8661417322834646},{"duration":0.10416656249998368,"durationTicks":70,"midi":88,"name":"E6","ticks":62784,"time":93.42847800000001,"velocity":0.8661417322834646},{"duration":2.139878812499987,"durationTicks":1438,"midi":86,"name":"D6","ticks":62976,"time":93.71419200000001,"velocity":0.8661417322834646}]},{"name":"Track 5","notes":[{"duration":0.4374995625,"durationTicks":294,"midi":50,"name":"D3","ticks":768,"time":1.142856,"velocity":0.6929133858267716},{"duration":0.45535668750000013,"durationTicks":306,"midi":57,"name":"A3","ticks":768,"time":1.142856,"velocity":0.7716535433070866},{"duration":0.07440468750000018,"durationTicks":50,"midi":50,"name":"D3","ticks":1152,"time":1.7142840000000001,"velocity":0.6771653543307087},{"duration":0.07440468750000018,"durationTicks":50,"midi":57,"name":"A3","ticks":1152,"time":1.7142840000000001,"velocity":0.7086614173228346},{"duration":0.09523799999999971,"durationTicks":64,"midi":50,"name":"D3","ticks":1344,"time":1.9999980000000002,"velocity":0.6299212598425197},{"duration":0.09226181249999987,"durationTicks":62,"midi":57,"name":"A3","ticks":1344,"time":1.9999980000000002,"velocity":0.6456692913385826},{"duration":0.4494043125,"durationTicks":302,"midi":50,"name":"D3","ticks":1536,"time":2.285712,"velocity":0.6771653543307087},{"duration":0.46726143749999993,"durationTicks":314,"midi":57,"name":"A3","ticks":1536,"time":2.285712,"velocity":0.7716535433070866},{"duration":0.09226181249999987,"durationTicks":62,"midi":50,"name":"D3","ticks":1920,"time":2.8571400000000002,"velocity":0.5511811023622047},{"duration":0.09523800000000016,"durationTicks":64,"midi":57,"name":"A3","ticks":1920,"time":2.8571400000000002,"velocity":0.6535433070866141},{"duration":0.07738087500000024,"durationTicks":52,"midi":50,"name":"D3","ticks":2112,"time":3.1428540000000003,"velocity":0.5590551181102362},{"duration":0.0863094375000002,"durationTicks":58,"midi":57,"name":"A3","ticks":2112,"time":3.1428540000000003,"velocity":0.5984251968503937},{"duration":0.3482139375000002,"durationTicks":234,"midi":50,"name":"D3","ticks":2304,"time":3.4285680000000003,"velocity":0.5984251968503937},{"duration":0.3601186875,"durationTicks":242,"midi":57,"name":"A3","ticks":2304,"time":3.4285680000000003,"velocity":0.7480314960629921},{"duration":1.0654751249999999,"durationTicks":716,"midi":62,"name":"D4","ticks":2304,"time":3.4285680000000003,"velocity":0.8031496062992126},{"duration":0.06845231249999983,"durationTicks":46,"midi":50,"name":"D3","ticks":2688,"time":3.9999960000000003,"velocity":0.5511811023622047},{"duration":0.07738087500000024,"durationTicks":52,"midi":57,"name":"A3","ticks":2688,"time":3.9999960000000003,"velocity":0.6456692913385826},{"duration":0.08630943750000064,"durationTicks":58,"midi":50,"name":"D3","ticks":2880,"time":4.28571,"velocity":0.5433070866141733},{"duration":0.09523800000000104,"durationTicks":64,"midi":57,"name":"A3","ticks":2880,"time":4.28571,"velocity":0.6535433070866141},{"duration":0.3452377499999999,"durationTicks":232,"midi":50,"name":"D3","ticks":3072,"time":4.571424,"velocity":0.5748031496062992},{"duration":0.4434519374999999,"durationTicks":298,"midi":55,"name":"G3","ticks":3072,"time":4.571424,"velocity":0.7480314960629921},{"duration":0.29166637499999926,"durationTicks":196,"midi":59,"name":"B3","ticks":3072,"time":4.571424,"velocity":0.6929133858267716},{"duration":0.196428375,"durationTicks":132,"midi":61,"name":"C#4","ticks":3264,"time":4.857138000000001,"velocity":0.6771653543307087},{"duration":0.053571374999999755,"durationTicks":36,"midi":50,"name":"D3","ticks":3456,"time":5.142852,"velocity":0.5511811023622047},{"duration":0.06249993750000016,"durationTicks":42,"midi":59,"name":"B3","ticks":3456,"time":5.142852,"velocity":0.5590551181102362},{"duration":0.07142849999999967,"durationTicks":48,"midi":62,"name":"D4","ticks":3456,"time":5.142852,"velocity":0.7480314960629921},{"duration":0.05357137500000064,"durationTicks":36,"midi":50,"name":"D3","ticks":3648,"time":5.428566,"velocity":0.6771653543307087},{"duration":0.06845231249999983,"durationTicks":46,"midi":59,"name":"B3","ticks":3648,"time":5.428566,"velocity":0.5433070866141733},{"duration":0.05952375000000032,"durationTicks":40,"midi":62,"name":"D4","ticks":3648,"time":5.428566,"velocity":0.7480314960629921},{"duration":0.42261862500000014,"durationTicks":284,"midi":50,"name":"D3","ticks":3840,"time":5.7142800000000005,"velocity":0.6141732283464567},{"duration":0.4374995625000002,"durationTicks":294,"midi":57,"name":"A3","ticks":3840,"time":5.7142800000000005,"velocity":0.7322834645669292},{"duration":1.1041655624999995,"durationTicks":742,"midi":62,"name":"D4","ticks":3840,"time":5.7142800000000005,"velocity":0.7716535433070866},{"duration":0.05952374999999943,"durationTicks":40,"midi":50,"name":"D3","ticks":4224,"time":6.2857080000000005,"velocity":0.7086614173228346},{"duration":0.05654756250000048,"durationTicks":38,"midi":57,"name":"A3","ticks":4224,"time":6.2857080000000005,"velocity":0.6141732283464567},{"duration":0.07142850000000056,"durationTicks":48,"midi":50,"name":"D3","ticks":4416,"time":6.571422,"velocity":0.6535433070866141},{"duration":0.11904750000000064,"durationTicks":80,"midi":57,"name":"A3","ticks":4416,"time":6.571422,"velocity":0.5748031496062992},{"duration":0.36607106249999966,"durationTicks":246,"midi":45,"name":"A2","ticks":4608,"time":6.857136000000001,"velocity":0.5748031496062992},{"duration":0.3601186875,"durationTicks":242,"midi":52,"name":"E3","ticks":4608,"time":6.857136000000001,"velocity":0.5826771653543307},{"duration":0.2946425625,"durationTicks":198,"midi":61,"name":"C#4","ticks":4608,"time":6.857136000000001,"velocity":0.7716535433070866},{"duration":0.0982141875,"durationTicks":66,"midi":59,"name":"B3","ticks":4800,"time":7.142850000000001,"velocity":0.6456692913385826},{"duration":0.08333324999999991,"durationTicks":56,"midi":45,"name":"A2","ticks":4992,"time":7.428564000000001,"velocity":0.4645669291338583},{"duration":0.07142849999999967,"durationTicks":48,"midi":52,"name":"E3","ticks":4992,"time":7.428564000000001,"velocity":0.5748031496062992},{"duration":0.15178556249999975,"durationTicks":102,"midi":61,"name":"C#4","ticks":4992,"time":7.428564000000001,"velocity":0.7086614173228346},{"duration":0.047619000000000966,"durationTicks":32,"midi":45,"name":"A2","ticks":5184,"time":7.714278,"velocity":0.5039370078740157},{"duration":0.05952375000000032,"durationTicks":40,"midi":52,"name":"E3","ticks":5184,"time":7.714278,"velocity":0.5826771653543307},{"duration":0.11309512500000007,"durationTicks":76,"midi":57,"name":"A3","ticks":5184,"time":7.714278,"velocity":0.6535433070866141},{"duration":0.4017853124999995,"durationTicks":270,"midi":50,"name":"D3","ticks":5376,"time":7.999992000000001,"velocity":0.5039370078740157},{"duration":0.4047615000000011,"durationTicks":272,"midi":57,"name":"A3","ticks":5376,"time":7.999992000000001,"velocity":0.5748031496062992},{"duration":1.130951249999999,"durationTicks":760,"midi":62,"name":"D4","ticks":5376,"time":7.999992000000001,"velocity":0.8346456692913385},{"duration":0.0833332500000008,"durationTicks":56,"midi":50,"name":"D3","ticks":5760,"time":8.57142,"velocity":0.5590551181102362},{"duration":0.08035706250000096,"durationTicks":54,"midi":57,"name":"A3","ticks":5760,"time":8.57142,"velocity":0.6141732283464567},{"duration":0.05357137500000064,"durationTicks":36,"midi":50,"name":"D3","ticks":5952,"time":8.857134,"velocity":0.4881889763779528},{"duration":0.04464281250000113,"durationTicks":30,"midi":57,"name":"A3","ticks":5952,"time":8.857134,"velocity":0.5984251968503937},{"duration":0.36607106249999966,"durationTicks":246,"midi":43,"name":"G2","ticks":6144,"time":9.142848,"velocity":0.48031496062992124},{"duration":0.35714250000000014,"durationTicks":240,"midi":50,"name":"D3","ticks":6144,"time":9.142848,"velocity":0.6299212598425197},{"duration":0.3035711249999995,"durationTicks":204,"midi":59,"name":"B3","ticks":6144,"time":9.142848,"velocity":0.7086614173228346},{"duration":0.08333324999999903,"durationTicks":56,"midi":57,"name":"A3","ticks":6336,"time":9.428562000000001,"velocity":0.6929133858267716},{"duration":0.07142849999999967,"durationTicks":48,"midi":43,"name":"G2","ticks":6528,"time":9.714276000000002,"velocity":0.4881889763779528},{"duration":0.07738087499999935,"durationTicks":52,"midi":50,"name":"D3","ticks":6528,"time":9.714276000000002,"velocity":0.5984251968503937},{"duration":0.08333324999999903,"durationTicks":56,"midi":59,"name":"B3","ticks":6528,"time":9.714276000000002,"velocity":0.6771653543307087},{"duration":0.04761899999999919,"durationTicks":32,"midi":43,"name":"G2","ticks":6720,"time":9.99999,"velocity":0.4094488188976378},{"duration":0.05952375000000032,"durationTicks":40,"midi":50,"name":"D3","ticks":6720,"time":9.99999,"velocity":0.5354330708661418},{"duration":0.07738087500000113,"durationTicks":52,"midi":59,"name":"B3","ticks":6720,"time":9.99999,"velocity":0.6929133858267716},{"duration":0.33333299999999966,"durationTicks":224,"midi":45,"name":"A2","ticks":6912,"time":10.285704,"velocity":0.5511811023622047},{"duration":0.2708330624999995,"durationTicks":182,"midi":50,"name":"D3","ticks":6912,"time":10.285704,"velocity":0.5039370078740157},{"duration":0.3452377500000008,"durationTicks":232,"midi":54,"name":"F#3","ticks":6912,"time":10.285704,"velocity":0.4094488188976378},{"duration":0.47321381249999916,"durationTicks":318,"midi":57,"name":"A3","ticks":6912,"time":10.285704,"velocity":0.6771653543307087},{"duration":0.3869043750000003,"durationTicks":260,"midi":45,"name":"A2","ticks":7296,"time":10.857132,"velocity":0.5354330708661418},{"duration":0.40178531250000127,"durationTicks":270,"midi":52,"name":"E3","ticks":7296,"time":10.857132,"velocity":0.5826771653543307},{"duration":0.5089280625000008,"durationTicks":342,"midi":61,"name":"C#4","ticks":7296,"time":10.857132,"velocity":0.8110236220472441},{"duration":0.9999990000000007,"durationTicks":672,"midi":50,"name":"D3","ticks":7680,"time":11.428560000000001,"velocity":0.6141732283464567},{"duration":0.9791656875000001,"durationTicks":658,"midi":54,"name":"F#3","ticks":7680,"time":11.428560000000001,"velocity":0.6456692913385826},{"duration":1.095237000000001,"durationTicks":736,"midi":62,"name":"D4","ticks":7680,"time":11.428560000000001,"velocity":0.8976377952755905},{"duration":0.4702376250000011,"durationTicks":316,"midi":50,"name":"D3","ticks":8448,"time":12.571416000000001,"velocity":0.5984251968503937},{"duration":0.4940471249999998,"durationTicks":332,"midi":57,"name":"A3","ticks":8448,"time":12.571416000000001,"velocity":0.5748031496062992},{"duration":0.4940471249999998,"durationTicks":332,"midi":66,"name":"F#4","ticks":8448,"time":12.571416000000001,"velocity":0.8110236220472441},{"duration":0.07142850000000145,"durationTicks":48,"midi":50,"name":"D3","ticks":8832,"time":13.142844,"velocity":0.6456692913385826},{"duration":0.08035706250000096,"durationTicks":54,"midi":57,"name":"A3","ticks":8832,"time":13.142844,"velocity":0.5590551181102362},{"duration":0.08928562500000048,"durationTicks":60,"midi":67,"name":"G4","ticks":8832,"time":13.142844,"velocity":0.8346456692913385},{"duration":0.065476125,"durationTicks":44,"midi":50,"name":"D3","ticks":9024,"time":13.428558,"velocity":0.5590551181102362},{"duration":0.065476125,"durationTicks":44,"midi":57,"name":"A3","ticks":9024,"time":13.428558,"velocity":0.5511811023622047},{"duration":0.04761899999999919,"durationTicks":32,"midi":66,"name":"F#4","ticks":9024,"time":13.428558,"velocity":0.7401574803149606},{"duration":0.4999994999999995,"durationTicks":336,"midi":48,"name":"C3","ticks":9216,"time":13.714272000000001,"velocity":0.5433070866141733},{"duration":0.4672614374999995,"durationTicks":314,"midi":60,"name":"C4","ticks":9216,"time":13.714272000000001,"velocity":0.4330708661417323},{"duration":0.5208328125000001,"durationTicks":350,"midi":64,"name":"E4","ticks":9216,"time":13.714272000000001,"velocity":0.7716535433070866},{"duration":0.0892856249999987,"durationTicks":60,"midi":48,"name":"C3","ticks":9600,"time":14.285700000000002,"velocity":0.5590551181102362},{"duration":0.07738087499999935,"durationTicks":52,"midi":52,"name":"E3","ticks":9600,"time":14.285700000000002,"velocity":0.6535433070866141},{"duration":0.10119037499999806,"durationTicks":68,"midi":62,"name":"D4","ticks":9600,"time":14.285700000000002,"velocity":0.7480314960629921},{"duration":0.065476125,"durationTicks":44,"midi":48,"name":"C3","ticks":9792,"time":14.571414,"velocity":0.5039370078740157},{"duration":0.06845231250000161,"durationTicks":46,"midi":52,"name":"E3","ticks":9792,"time":14.571414,"velocity":0.5039370078740157},{"duration":0.08630943750000064,"durationTicks":58,"midi":60,"name":"C4","ticks":9792,"time":14.571414,"velocity":0.7322834645669292},{"duration":0.3958329374999998,"durationTicks":266,"midi":50,"name":"D3","ticks":9984,"time":14.857128000000001,"velocity":0.5433070866141733},{"duration":0.40773768750000094,"durationTicks":274,"midi":57,"name":"A3","ticks":9984,"time":14.857128000000001,"velocity":0.4881889763779528},{"duration":1.0565465624999995,"durationTicks":710,"midi":62,"name":"D4","ticks":9984,"time":14.857128000000001,"velocity":0.8031496062992126},{"duration":0.08035706250000096,"durationTicks":54,"midi":50,"name":"D3","ticks":10368,"time":15.428556,"velocity":0.5984251968503937},{"duration":0.07738087500000113,"durationTicks":52,"midi":57,"name":"A3","ticks":10368,"time":15.428556,"velocity":0.5511811023622047},{"duration":0.05654756250000048,"durationTicks":38,"midi":50,"name":"D3","ticks":10560,"time":15.71427,"velocity":0.6141732283464567},{"duration":0.08630943750000064,"durationTicks":58,"midi":57,"name":"A3","ticks":10560,"time":15.71427,"velocity":0.5433070866141733},{"duration":0.39285675,"durationTicks":264,"midi":45,"name":"A2","ticks":10752,"time":15.999984000000001,"velocity":0.5118110236220472},{"duration":0.39285675,"durationTicks":264,"midi":52,"name":"E3","ticks":10752,"time":15.999984000000001,"velocity":0.6141732283464567},{"duration":0.28869018749999853,"durationTicks":194,"midi":61,"name":"C#4","ticks":10752,"time":15.999984000000001,"velocity":0.6771653543307087},{"duration":0.11309512500000096,"durationTicks":76,"midi":57,"name":"A3","ticks":10944,"time":16.285698,"velocity":0.5354330708661418},{"duration":0.05357137500000064,"durationTicks":36,"midi":59,"name":"B3","ticks":10944,"time":16.285698,"velocity":0.4645669291338583},{"duration":0.08630943749999886,"durationTicks":58,"midi":45,"name":"A2","ticks":11136,"time":16.571412000000002,"velocity":0.4645669291338583},{"duration":0.08630943749999886,"durationTicks":58,"midi":52,"name":"E3","ticks":11136,"time":16.571412000000002,"velocity":0.6299212598425197},{"duration":0.15773793749999854,"durationTicks":106,"midi":61,"name":"C#4","ticks":11136,"time":16.571412000000002,"velocity":0.7716535433070866},{"duration":0.03869043750000145,"durationTicks":26,"midi":45,"name":"A2","ticks":11328,"time":16.857126,"velocity":0.4881889763779528},{"duration":0.05357137500000064,"durationTicks":36,"midi":52,"name":"E3","ticks":11328,"time":16.857126,"velocity":0.6141732283464567},{"duration":0.050595187500000804,"durationTicks":34,"midi":64,"name":"E4","ticks":11328,"time":16.857126,"velocity":0.7480314960629921},{"duration":0.4196424375000021,"durationTicks":282,"midi":50,"name":"D3","ticks":11520,"time":17.14284,"velocity":0.5433070866141733},{"duration":0.4374995625000011,"durationTicks":294,"midi":57,"name":"A3","ticks":11520,"time":17.14284,"velocity":0.6771653543307087},{"duration":0.458332875,"durationTicks":308,"midi":66,"name":"F#4","ticks":11520,"time":17.14284,"velocity":0.8110236220472441},{"duration":0.08333324999999903,"durationTicks":56,"midi":50,"name":"D3","ticks":11904,"time":17.714268,"velocity":0.5748031496062992},{"duration":0.0773808750000029,"durationTicks":52,"midi":57,"name":"A3","ticks":11904,"time":17.714268,"velocity":0.6535433070866141},{"duration":0.10714275000000129,"durationTicks":72,"midi":67,"name":"G4","ticks":11904,"time":17.714268,"velocity":0.7716535433070866},{"duration":0.06547612499999644,"durationTicks":44,"midi":50,"name":"D3","ticks":12096,"time":17.999982000000003,"velocity":0.5118110236220472},{"duration":0.06249993750000016,"durationTicks":42,"midi":57,"name":"A3","ticks":12096,"time":17.999982000000003,"velocity":0.5826771653543307},{"duration":0.05952375000000032,"durationTicks":40,"midi":66,"name":"F#4","ticks":12096,"time":17.999982000000003,"velocity":0.7086614173228346},{"duration":0.4226186250000019,"durationTicks":284,"midi":48,"name":"C3","ticks":12288,"time":18.285696,"velocity":0.5511811023622047},{"duration":0.4285710000000016,"durationTicks":288,"midi":52,"name":"E3","ticks":12288,"time":18.285696,"velocity":0.5590551181102362},{"duration":0.9374990624999988,"durationTicks":630,"midi":60,"name":"C4","ticks":12288,"time":18.285696,"velocity":0.6141732283464567},{"duration":0.9880942499999996,"durationTicks":664,"midi":67,"name":"G4","ticks":12288,"time":18.285696,"velocity":0.6771653543307087},{"duration":0.09523799999999838,"durationTicks":64,"midi":48,"name":"C3","ticks":12672,"time":18.857124000000002,"velocity":0.5433070866141733},{"duration":0.09523799999999838,"durationTicks":64,"midi":53,"name":"F3","ticks":12672,"time":18.857124000000002,"velocity":0.6456692913385826},{"duration":0.06249993750000016,"durationTicks":42,"midi":48,"name":"C3","ticks":12864,"time":19.142838,"velocity":0.3700787401574803},{"duration":0.06547612500000355,"durationTicks":44,"midi":52,"name":"E3","ticks":12864,"time":19.142838,"velocity":0.5826771653543307},{"duration":0.25595212499999676,"durationTicks":172,"midi":50,"name":"D3","ticks":13056,"time":19.428552000000003,"velocity":0.6141732283464567},{"duration":0.3184520624999969,"durationTicks":214,"midi":57,"name":"A3","ticks":13056,"time":19.428552000000003,"velocity":0.4881889763779528},{"duration":0.32142824999999675,"durationTicks":216,"midi":62,"name":"D4","ticks":13056,"time":19.428552000000003,"velocity":0.6929133858267716},{"duration":0.34821393749999885,"durationTicks":234,"midi":66,"name":"F#4","ticks":13056,"time":19.428552000000003,"velocity":0.7086614173228346},{"duration":0.5357137499999993,"durationTicks":360,"midi":45,"name":"A2","ticks":13440,"time":19.99998,"velocity":0.6141732283464567},{"duration":0.5297613750000032,"durationTicks":356,"midi":57,"name":"A3","ticks":13440,"time":19.99998,"velocity":0.5511811023622047},{"duration":0.28273781249999885,"durationTicks":190,"midi":62,"name":"D4","ticks":13440,"time":19.99998,"velocity":0.7322834645669292},{"duration":0.3035711250000013,"durationTicks":204,"midi":64,"name":"E4","ticks":13440,"time":19.99998,"velocity":0.8031496062992126},{"duration":0.28869018749999853,"durationTicks":194,"midi":61,"name":"C#4","ticks":13632,"time":20.285694000000003,"velocity":0.6062992125984252},{"duration":0.9910704374999995,"durationTicks":666,"midi":50,"name":"D3","ticks":13824,"time":20.571408,"velocity":0.6141732283464567},{"duration":0.9642847500000009,"durationTicks":648,"midi":54,"name":"F#3","ticks":13824,"time":20.571408,"velocity":0.6062992125984252},{"duration":1.0714274999999986,"durationTicks":720,"midi":62,"name":"D4","ticks":13824,"time":20.571408,"velocity":0.6929133858267716},{"duration":0.4732138125000027,"durationTicks":318,"midi":50,"name":"D3","ticks":14592,"time":21.714264,"velocity":0.6535433070866141},{"duration":0.4970233125000014,"durationTicks":334,"midi":57,"name":"A3","ticks":14592,"time":21.714264,"velocity":0.5984251968503937},{"duration":0.5029756875000047,"durationTicks":338,"midi":66,"name":"F#4","ticks":14592,"time":21.714264,"velocity":0.8110236220472441},{"duration":0.06845231249999983,"durationTicks":46,"midi":50,"name":"D3","ticks":14976,"time":22.285692,"velocity":0.6141732283464567},{"duration":0.09523799999999838,"durationTicks":64,"midi":57,"name":"A3","ticks":14976,"time":22.285692,"velocity":0.5748031496062992},{"duration":0.0922618125000021,"durationTicks":62,"midi":67,"name":"G4","ticks":14976,"time":22.285692,"velocity":0.7480314960629921},{"duration":0.14583318749999918,"durationTicks":98,"midi":50,"name":"D3","ticks":15168,"time":22.571406000000003,"velocity":0.5590551181102362},{"duration":0.14285699999999935,"durationTicks":96,"midi":57,"name":"A3","ticks":15168,"time":22.571406000000003,"velocity":0.4881889763779528},{"duration":0.08333324999999903,"durationTicks":56,"midi":66,"name":"F#4","ticks":15168,"time":22.571406000000003,"velocity":0.8661417322834646},{"duration":0.523809,"durationTicks":352,"midi":55,"name":"G3","ticks":15360,"time":22.857120000000002,"velocity":0.7480314960629921},{"duration":0.5386899375000027,"durationTicks":362,"midi":59,"name":"B3","ticks":15360,"time":22.857120000000002,"velocity":0.6535433070866141},{"duration":0.5208328125000001,"durationTicks":350,"midi":67,"name":"G4","ticks":15360,"time":22.857120000000002,"velocity":0.5984251968503937},{"duration":0.44047575000000094,"durationTicks":296,"midi":55,"name":"G3","ticks":15744,"time":23.428548000000003,"velocity":0.6535433070866141},{"duration":0.23214262499999805,"durationTicks":156,"midi":60,"name":"C4","ticks":15744,"time":23.428548000000003,"velocity":0.7086614173228346},{"duration":0.49702331249999787,"durationTicks":334,"midi":67,"name":"G4","ticks":15744,"time":23.428548000000003,"velocity":0.7086614173228346},{"duration":0.23511881250000144,"durationTicks":158,"midi":59,"name":"B3","ticks":15936,"time":23.714262,"velocity":0.6299212598425197},{"duration":0.4702376249999958,"durationTicks":316,"midi":50,"name":"D3","ticks":16128,"time":23.999976000000004,"velocity":0.5826771653543307},{"duration":0.4702376249999958,"durationTicks":316,"midi":57,"name":"A3","ticks":16128,"time":23.999976000000004,"velocity":0.5826771653543307},{"duration":0.4910709374999982,"durationTicks":330,"midi":66,"name":"F#4","ticks":16128,"time":23.999976000000004,"velocity":0.7716535433070866},{"duration":0.3303568124999998,"durationTicks":222,"midi":50,"name":"D3","ticks":16512,"time":24.571404,"velocity":0.5984251968503937},{"duration":0.3244044375000037,"durationTicks":218,"midi":54,"name":"F#3","ticks":16512,"time":24.571404,"velocity":0.6220472440944882},{"duration":0.5059518750000009,"durationTicks":340,"midi":62,"name":"D4","ticks":16512,"time":24.571404,"velocity":0.7322834645669292},{"duration":0.8422610625000004,"durationTicks":566,"midi":45,"name":"A2","ticks":16896,"time":25.142832000000002,"velocity":0.5511811023622047},{"duration":0.10714275000000129,"durationTicks":72,"midi":50,"name":"D3","ticks":16896,"time":25.142832000000002,"velocity":0.5354330708661418},{"duration":0.3035711250000013,"durationTicks":204,"midi":52,"name":"E3","ticks":16896,"time":25.142832000000002,"velocity":0.5354330708661418},{"duration":1.0446418125,"durationTicks":702,"midi":61,"name":"C#4","ticks":16896,"time":25.142832000000002,"velocity":0.7401574803149606},{"duration":0.20535693750000306,"durationTicks":138,"midi":50,"name":"D3","ticks":17088,"time":25.428546,"velocity":0.6141732283464567},{"duration":0.3065473125000011,"durationTicks":206,"midi":52,"name":"E3","ticks":17280,"time":25.714260000000003,"velocity":0.6535433070866141},{"duration":0.1398808124999995,"durationTicks":94,"midi":57,"name":"A3","ticks":17472,"time":25.999974,"velocity":0.6535433070866141},{"duration":0.46726143750000304,"durationTicks":314,"midi":50,"name":"D3","ticks":17664,"time":26.285688,"velocity":0.5984251968503937},{"duration":0.45535668750000013,"durationTicks":306,"midi":54,"name":"F#3","ticks":17664,"time":26.285688,"velocity":0.7401574803149606},{"duration":0.4970233125000014,"durationTicks":334,"midi":62,"name":"D4","ticks":17664,"time":26.285688,"velocity":0.8031496062992126},{"duration":0.4166662499999987,"durationTicks":280,"midi":50,"name":"D3","ticks":18048,"time":26.857116,"velocity":0.6141732283464567},{"duration":0.3154758750000006,"durationTicks":212,"midi":55,"name":"G3","ticks":18048,"time":26.857116,"velocity":0.7322834645669292},{"duration":0.5505946874999985,"durationTicks":370,"midi":62,"name":"D4","ticks":18048,"time":26.857116,"velocity":0.7480314960629921},{"duration":0.12202368749999692,"durationTicks":82,"midi":54,"name":"F#3","ticks":18240,"time":27.142830000000004,"velocity":0.5039370078740157},{"duration":0.8273801249999977,"durationTicks":556,"midi":43,"name":"G2","ticks":18432,"time":27.428544000000002,"velocity":0.4409448818897638},{"duration":0.8690467500000025,"durationTicks":584,"midi":50,"name":"D3","ticks":18432,"time":27.428544000000002,"velocity":0.5196850393700787},{"duration":0.5267851874999998,"durationTicks":354,"midi":59,"name":"B3","ticks":18432,"time":27.428544000000002,"velocity":0.7086614173228346},{"duration":0.3065473125000011,"durationTicks":206,"midi":60,"name":"C4","ticks":18816,"time":27.999972000000003,"velocity":0.7322834645669292},{"duration":0.24107118750000112,"durationTicks":162,"midi":59,"name":"B3","ticks":19008,"time":28.285686000000002,"velocity":0.6771653543307087},{"duration":0.4851185624999985,"durationTicks":326,"midi":45,"name":"A2","ticks":19200,"time":28.571400000000004,"velocity":0.5826771653543307},{"duration":0.458332875,"durationTicks":308,"midi":54,"name":"F#3","ticks":19200,"time":28.571400000000004,"velocity":0.47244094488188976},{"duration":0.5029756875000011,"durationTicks":338,"midi":57,"name":"A3","ticks":19200,"time":28.571400000000004,"velocity":0.7480314960629921},{"duration":0.2559521250000003,"durationTicks":172,"midi":45,"name":"A2","ticks":19584,"time":29.142828,"velocity":0.5590551181102362},{"duration":0.30952350000000095,"durationTicks":208,"midi":52,"name":"E3","ticks":19584,"time":29.142828,"velocity":0.6771653543307087},{"duration":0.5178566250000003,"durationTicks":348,"midi":61,"name":"C#4","ticks":19584,"time":29.142828,"velocity":0.8110236220472441},{"duration":0.44345193749999723,"durationTicks":298,"midi":50,"name":"D3","ticks":19968,"time":29.714256000000002,"velocity":0.6141732283464567},{"duration":0.4464281250000006,"durationTicks":300,"midi":54,"name":"F#3","ticks":19968,"time":29.714256000000002,"velocity":0.6771653543307087},{"duration":4.470233625000002,"durationTicks":3004,"midi":62,"name":"D4","ticks":19968,"time":29.714256000000002,"velocity":0.8346456692913385},{"duration":0.09821418749999822,"durationTicks":66,"midi":50,"name":"D3","ticks":20352,"time":30.285684000000003,"velocity":0.6141732283464567},{"duration":0.09821418749999822,"durationTicks":66,"midi":57,"name":"A3","ticks":20352,"time":30.285684000000003,"velocity":0.5590551181102362},{"duration":0.07440468750000306,"durationTicks":50,"midi":50,"name":"D3","ticks":20544,"time":30.571398000000002,"velocity":0.6299212598425197},{"duration":0.07738087499999935,"durationTicks":52,"midi":57,"name":"A3","ticks":20544,"time":30.571398000000002,"velocity":0.5511811023622047},{"duration":0.42559481250000175,"durationTicks":286,"midi":50,"name":"D3","ticks":20736,"time":30.857112,"velocity":0.6299212598425197},{"duration":0.4285710000000016,"durationTicks":288,"midi":57,"name":"A3","ticks":20736,"time":30.857112,"velocity":0.5984251968503937},{"duration":0.07142849999999967,"durationTicks":48,"midi":50,"name":"D3","ticks":21120,"time":31.42854,"velocity":0.6141732283464567},{"duration":0.07142849999999967,"durationTicks":48,"midi":57,"name":"A3","ticks":21120,"time":31.42854,"velocity":0.5590551181102362},{"duration":0.065476125,"durationTicks":44,"midi":50,"name":"D3","ticks":21312,"time":31.714254000000004,"velocity":0.6299212598425197},{"duration":0.065476125,"durationTicks":44,"midi":57,"name":"A3","ticks":21312,"time":31.714254000000004,"velocity":0.5511811023622047},{"duration":0.42559481250000175,"durationTicks":286,"midi":50,"name":"D3","ticks":21504,"time":31.999968000000003,"velocity":0.6299212598425197},{"duration":0.42857099999999804,"durationTicks":288,"midi":57,"name":"A3","ticks":21504,"time":31.999968000000003,"velocity":0.5984251968503937},{"duration":0.07142850000000323,"durationTicks":48,"midi":50,"name":"D3","ticks":21888,"time":32.571396,"velocity":0.6141732283464567},{"duration":0.07142850000000323,"durationTicks":48,"midi":57,"name":"A3","ticks":21888,"time":32.571396,"velocity":0.5590551181102362},{"duration":0.06547612499999644,"durationTicks":44,"midi":50,"name":"D3","ticks":22080,"time":32.857110000000006,"velocity":0.6299212598425197},{"duration":0.06547612499999644,"durationTicks":44,"midi":57,"name":"A3","ticks":22080,"time":32.857110000000006,"velocity":0.5511811023622047},{"duration":0.42559481249999465,"durationTicks":286,"midi":50,"name":"D3","ticks":22272,"time":33.142824000000005,"velocity":0.6299212598425197},{"duration":0.42857099999999804,"durationTicks":288,"midi":57,"name":"A3","ticks":22272,"time":33.142824000000005,"velocity":0.5984251968503937},{"duration":0.07142850000000323,"durationTicks":48,"midi":50,"name":"D3","ticks":22656,"time":33.714252,"velocity":0.6141732283464567},{"duration":0.07142850000000323,"durationTicks":48,"midi":57,"name":"A3","ticks":22656,"time":33.714252,"velocity":0.5590551181102362},{"duration":0.06547612500000355,"durationTicks":44,"midi":50,"name":"D3","ticks":22848,"time":33.999966,"velocity":0.6299212598425197},{"duration":0.06547612500000355,"durationTicks":44,"midi":57,"name":"A3","ticks":22848,"time":33.999966,"velocity":0.5511811023622047},{"duration":0.4374995625000011,"durationTicks":294,"midi":50,"name":"D3","ticks":23040,"time":34.28568,"velocity":0.6929133858267716},{"duration":0.45535668750000013,"durationTicks":306,"midi":57,"name":"A3","ticks":23040,"time":34.28568,"velocity":0.7716535433070866},{"duration":0.07440468749999951,"durationTicks":50,"midi":50,"name":"D3","ticks":23424,"time":34.857108000000004,"velocity":0.6771653543307087},{"duration":0.07440468749999951,"durationTicks":50,"midi":57,"name":"A3","ticks":23424,"time":34.857108000000004,"velocity":0.7086614173228346},{"duration":0.09523800000000193,"durationTicks":64,"midi":50,"name":"D3","ticks":23616,"time":35.142822,"velocity":0.6299212598425197},{"duration":0.09226181249999854,"durationTicks":62,"midi":57,"name":"A3","ticks":23616,"time":35.142822,"velocity":0.6456692913385826},{"duration":0.44940431250000046,"durationTicks":302,"midi":50,"name":"D3","ticks":23808,"time":35.428536,"velocity":0.6771653543307087},{"duration":0.4672614375000066,"durationTicks":314,"midi":57,"name":"A3","ticks":23808,"time":35.428536,"velocity":0.7716535433070866},{"duration":0.09226181249999854,"durationTicks":62,"midi":50,"name":"D3","ticks":24192,"time":35.999964000000006,"velocity":0.5511811023622047},{"duration":0.09523799999999483,"durationTicks":64,"midi":57,"name":"A3","ticks":24192,"time":35.999964000000006,"velocity":0.6535433070866141},{"duration":0.0773808749999958,"durationTicks":52,"midi":50,"name":"D3","ticks":24384,"time":36.285678000000004,"velocity":0.5590551181102362},{"duration":0.08630943749999886,"durationTicks":58,"midi":57,"name":"A3","ticks":24384,"time":36.285678000000004,"velocity":0.5984251968503937},{"duration":0.34821393749999885,"durationTicks":234,"midi":50,"name":"D3","ticks":24576,"time":36.571392,"velocity":0.5984251968503937},{"duration":0.3601186874999982,"durationTicks":242,"midi":57,"name":"A3","ticks":24576,"time":36.571392,"velocity":0.7480314960629921},{"duration":1.065475124999999,"durationTicks":716,"midi":62,"name":"D4","ticks":24576,"time":36.571392,"velocity":0.8031496062992126},{"duration":0.06845231250000694,"durationTicks":46,"midi":50,"name":"D3","ticks":24960,"time":37.14282,"velocity":0.5511811023622047},{"duration":0.0773808750000029,"durationTicks":52,"midi":57,"name":"A3","ticks":24960,"time":37.14282,"velocity":0.6456692913385826},{"duration":0.08630943749999886,"durationTicks":58,"midi":50,"name":"D3","ticks":25152,"time":37.428534000000006,"velocity":0.5433070866141733},{"duration":0.09523800000000193,"durationTicks":64,"midi":57,"name":"A3","ticks":25152,"time":37.428534000000006,"velocity":0.6535433070866141},{"duration":0.34523775000000256,"durationTicks":232,"midi":50,"name":"D3","ticks":25344,"time":37.714248000000005,"velocity":0.5748031496062992},{"duration":0.4434519375000008,"durationTicks":298,"midi":55,"name":"G3","ticks":25344,"time":37.714248000000005,"velocity":0.7480314960629921},{"duration":0.29166637499999837,"durationTicks":196,"midi":59,"name":"B3","ticks":25344,"time":37.714248000000005,"velocity":0.6929133858267716},{"duration":0.19642837499999644,"durationTicks":132,"midi":61,"name":"C#4","ticks":25536,"time":37.999962000000004,"velocity":0.6771653543307087},{"duration":0.053571375000004195,"durationTicks":36,"midi":50,"name":"D3","ticks":25728,"time":38.285676,"velocity":0.5511811023622047},{"duration":0.06249993750000016,"durationTicks":42,"midi":59,"name":"B3","ticks":25728,"time":38.285676,"velocity":0.5590551181102362},{"duration":0.07142850000000323,"durationTicks":48,"midi":62,"name":"D4","ticks":25728,"time":38.285676,"velocity":0.7480314960629921},{"duration":0.053571375000004195,"durationTicks":36,"midi":50,"name":"D3","ticks":25920,"time":38.57139,"velocity":0.6771653543307087},{"duration":0.06845231250000694,"durationTicks":46,"midi":59,"name":"B3","ticks":25920,"time":38.57139,"velocity":0.5433070866141733},{"duration":0.05952375000000387,"durationTicks":40,"midi":62,"name":"D4","ticks":25920,"time":38.57139,"velocity":0.7480314960629921},{"duration":0.42261862499999125,"durationTicks":284,"midi":50,"name":"D3","ticks":26112,"time":38.85710400000001,"velocity":0.6141732283464567},{"duration":0.437499562499994,"durationTicks":294,"midi":57,"name":"A3","ticks":26112,"time":38.85710400000001,"velocity":0.7322834645669292},{"duration":1.1041655625000004,"durationTicks":742,"midi":62,"name":"D4","ticks":26112,"time":38.85710400000001,"velocity":0.7716535433070866},{"duration":0.05952375000000387,"durationTicks":40,"midi":50,"name":"D3","ticks":26496,"time":39.428532000000004,"velocity":0.7086614173228346},{"duration":0.056547562499993376,"durationTicks":38,"midi":57,"name":"A3","ticks":26496,"time":39.428532000000004,"velocity":0.6141732283464567},{"duration":0.07142850000000323,"durationTicks":48,"midi":50,"name":"D3","ticks":26688,"time":39.714246,"velocity":0.6535433070866141},{"duration":0.11904750000000064,"durationTicks":80,"midi":57,"name":"A3","ticks":26688,"time":39.714246,"velocity":0.5748031496062992},{"duration":0.366071062500005,"durationTicks":246,"midi":45,"name":"A2","ticks":26880,"time":39.99996,"velocity":0.5748031496062992},{"duration":0.3601186874999982,"durationTicks":242,"midi":52,"name":"E3","ticks":26880,"time":39.99996,"velocity":0.5826771653543307},{"duration":0.29464256250000176,"durationTicks":198,"midi":61,"name":"C#4","ticks":26880,"time":39.99996,"velocity":0.7716535433070866},{"duration":0.09821418750000532,"durationTicks":66,"midi":59,"name":"B3","ticks":27072,"time":40.285674,"velocity":0.6456692913385826},{"duration":0.08333324999999547,"durationTicks":56,"midi":45,"name":"A2","ticks":27264,"time":40.571388000000006,"velocity":0.4645669291338583},{"duration":0.07142849999999612,"durationTicks":48,"midi":52,"name":"E3","ticks":27264,"time":40.571388000000006,"velocity":0.5748031496062992},{"duration":0.1517855624999953,"durationTicks":102,"midi":61,"name":"C#4","ticks":27264,"time":40.571388000000006,"velocity":0.7086614173228346},{"duration":0.04761899999999741,"durationTicks":32,"midi":45,"name":"A2","ticks":27456,"time":40.857102000000005,"velocity":0.5039370078740157},{"duration":0.05952375000000387,"durationTicks":40,"midi":52,"name":"E3","ticks":27456,"time":40.857102000000005,"velocity":0.5826771653543307},{"duration":0.11309512500000096,"durationTicks":76,"midi":57,"name":"A3","ticks":27456,"time":40.857102000000005,"velocity":0.6535433070866141},{"duration":0.40178531250000304,"durationTicks":270,"midi":50,"name":"D3","ticks":27648,"time":41.142816,"velocity":0.5039370078740157},{"duration":0.40476149999999933,"durationTicks":272,"midi":57,"name":"A3","ticks":27648,"time":41.142816,"velocity":0.5748031496062992},{"duration":1.1309512500000025,"durationTicks":760,"midi":62,"name":"D4","ticks":27648,"time":41.142816,"velocity":0.8346456692913385},{"duration":0.08333325000000258,"durationTicks":56,"midi":50,"name":"D3","ticks":28032,"time":41.714244,"velocity":0.5590551181102362},{"duration":0.08035706249999919,"durationTicks":54,"midi":57,"name":"A3","ticks":28032,"time":41.714244,"velocity":0.6141732283464567},{"duration":0.05357137499999709,"durationTicks":36,"midi":50,"name":"D3","ticks":28224,"time":41.99995800000001,"velocity":0.4881889763779528},{"duration":0.04464281249999402,"durationTicks":30,"midi":57,"name":"A3","ticks":28224,"time":41.99995800000001,"velocity":0.5984251968503937},{"duration":0.3660710624999979,"durationTicks":246,"midi":43,"name":"G2","ticks":28416,"time":42.285672000000005,"velocity":0.48031496062992124},{"duration":0.3571424999999948,"durationTicks":240,"midi":50,"name":"D3","ticks":28416,"time":42.285672000000005,"velocity":0.6299212598425197},{"duration":0.3035711249999977,"durationTicks":204,"midi":59,"name":"B3","ticks":28416,"time":42.285672000000005,"velocity":0.7086614173228346},{"duration":0.08333324999999547,"durationTicks":56,"midi":57,"name":"A3","ticks":28608,"time":42.571386000000004,"velocity":0.6929133858267716},{"duration":0.07142850000000323,"durationTicks":48,"midi":43,"name":"G2","ticks":28800,"time":42.8571,"velocity":0.4881889763779528},{"duration":0.0773808750000029,"durationTicks":52,"midi":50,"name":"D3","ticks":28800,"time":42.8571,"velocity":0.5984251968503937},{"duration":0.08333324999999547,"durationTicks":56,"midi":59,"name":"B3","ticks":28800,"time":42.8571,"velocity":0.6771653543307087},{"duration":0.04761899999999741,"durationTicks":32,"midi":43,"name":"G2","ticks":28992,"time":43.142814,"velocity":0.4094488188976378},{"duration":0.05952375000000387,"durationTicks":40,"midi":50,"name":"D3","ticks":28992,"time":43.142814,"velocity":0.5354330708661418},{"duration":0.0773808750000029,"durationTicks":52,"midi":59,"name":"B3","ticks":28992,"time":43.142814,"velocity":0.6929133858267716},{"duration":0.3333330000000032,"durationTicks":224,"midi":45,"name":"A2","ticks":29184,"time":43.428528,"velocity":0.5511811023622047},{"duration":0.27083306250000305,"durationTicks":182,"midi":50,"name":"D3","ticks":29184,"time":43.428528,"velocity":0.5039370078740157},{"duration":0.34523775000000967,"durationTicks":232,"midi":54,"name":"F#3","ticks":29184,"time":43.428528,"velocity":0.4094488188976378},{"duration":0.47321381250000627,"durationTicks":318,"midi":57,"name":"A3","ticks":29184,"time":43.428528,"velocity":0.6771653543307087},{"duration":0.3869043749999932,"durationTicks":260,"midi":45,"name":"A2","ticks":29568,"time":43.999956000000005,"velocity":0.5354330708661418},{"duration":0.40178531249999594,"durationTicks":270,"midi":52,"name":"E3","ticks":29568,"time":43.999956000000005,"velocity":0.5826771653543307},{"duration":0.5089280624999972,"durationTicks":342,"midi":61,"name":"C#4","ticks":29568,"time":43.999956000000005,"velocity":0.8110236220472441},{"duration":0.9999990000000025,"durationTicks":672,"midi":50,"name":"D3","ticks":29952,"time":44.571384,"velocity":0.6141732283464567},{"duration":0.9791656875000072,"durationTicks":658,"midi":54,"name":"F#3","ticks":29952,"time":44.571384,"velocity":0.6456692913385826},{"duration":1.0952370000000045,"durationTicks":736,"midi":62,"name":"D4","ticks":29952,"time":44.571384,"velocity":0.8976377952755905},{"duration":0.4702376250000029,"durationTicks":316,"midi":50,"name":"D3","ticks":30720,"time":45.714240000000004,"velocity":0.5984251968503937},{"duration":0.4940471249999945,"durationTicks":332,"midi":57,"name":"A3","ticks":30720,"time":45.714240000000004,"velocity":0.5748031496062992},{"duration":0.4940471249999945,"durationTicks":332,"midi":66,"name":"F#4","ticks":30720,"time":45.714240000000004,"velocity":0.8110236220472441},{"duration":0.07142850000000323,"durationTicks":48,"midi":50,"name":"D3","ticks":31104,"time":46.285668,"velocity":0.6456692913385826},{"duration":0.08035706249999919,"durationTicks":54,"midi":57,"name":"A3","ticks":31104,"time":46.285668,"velocity":0.5590551181102362},{"duration":0.08928562500000226,"durationTicks":60,"midi":67,"name":"G4","ticks":31104,"time":46.285668,"velocity":0.8346456692913385},{"duration":0.06547612499999644,"durationTicks":44,"midi":50,"name":"D3","ticks":31296,"time":46.57138200000001,"velocity":0.5590551181102362},{"duration":0.06547612499999644,"durationTicks":44,"midi":57,"name":"A3","ticks":31296,"time":46.57138200000001,"velocity":0.5511811023622047},{"duration":0.04761899999999741,"durationTicks":32,"midi":66,"name":"F#4","ticks":31296,"time":46.57138200000001,"velocity":0.7401574803149606},{"duration":0.49999950000000126,"durationTicks":336,"midi":48,"name":"C3","ticks":31488,"time":46.857096000000006,"velocity":0.5433070866141733},{"duration":0.4672614374999924,"durationTicks":314,"midi":60,"name":"C4","ticks":31488,"time":46.857096000000006,"velocity":0.4330708661417323},{"duration":0.5208328124999966,"durationTicks":350,"midi":64,"name":"E4","ticks":31488,"time":46.857096000000006,"velocity":0.7716535433070866},{"duration":0.08928562500000226,"durationTicks":60,"midi":48,"name":"C3","ticks":31872,"time":47.428524,"velocity":0.5590551181102362},{"duration":0.0773808750000029,"durationTicks":52,"midi":52,"name":"E3","ticks":31872,"time":47.428524,"velocity":0.6535433070866141},{"duration":0.10119037500000161,"durationTicks":68,"midi":62,"name":"D4","ticks":31872,"time":47.428524,"velocity":0.7480314960629921},{"duration":0.06547612499999644,"durationTicks":44,"midi":48,"name":"C3","ticks":32064,"time":47.714238,"velocity":0.5039370078740157},{"duration":0.06845231250000694,"durationTicks":46,"midi":52,"name":"E3","ticks":32064,"time":47.714238,"velocity":0.5039370078740157},{"duration":0.08630943750000597,"durationTicks":58,"midi":60,"name":"C4","ticks":32064,"time":47.714238,"velocity":0.7322834645669292},{"duration":0.39583293749999626,"durationTicks":266,"midi":50,"name":"D3","ticks":32256,"time":47.99995200000001,"velocity":0.5433070866141733},{"duration":0.4077376875000027,"durationTicks":274,"midi":57,"name":"A3","ticks":32256,"time":47.99995200000001,"velocity":0.4881889763779528},{"duration":1.056546562499996,"durationTicks":710,"midi":62,"name":"D4","ticks":32256,"time":47.99995200000001,"velocity":0.8031496062992126},{"duration":0.08035706249999919,"durationTicks":54,"midi":50,"name":"D3","ticks":32640,"time":48.571380000000005,"velocity":0.5984251968503937},{"duration":0.0773808750000029,"durationTicks":52,"midi":57,"name":"A3","ticks":32640,"time":48.571380000000005,"velocity":0.5511811023622047},{"duration":0.05654756250000048,"durationTicks":38,"midi":50,"name":"D3","ticks":32832,"time":48.857094000000004,"velocity":0.6141732283464567},{"duration":0.08630943750000597,"durationTicks":58,"midi":57,"name":"A3","ticks":32832,"time":48.857094000000004,"velocity":0.5433070866141733},{"duration":0.39285675,"durationTicks":264,"midi":45,"name":"A2","ticks":33024,"time":49.142808,"velocity":0.5118110236220472},{"duration":0.39285675,"durationTicks":264,"midi":52,"name":"E3","ticks":33024,"time":49.142808,"velocity":0.6141732283464567},{"duration":0.2886901875000021,"durationTicks":194,"midi":61,"name":"C#4","ticks":33024,"time":49.142808,"velocity":0.6771653543307087},{"duration":0.11309512500000807,"durationTicks":76,"midi":57,"name":"A3","ticks":33216,"time":49.428522,"velocity":0.5354330708661418},{"duration":0.053571375000004195,"durationTicks":36,"midi":59,"name":"B3","ticks":33216,"time":49.428522,"velocity":0.4645669291338583},{"duration":0.08630943749999886,"durationTicks":58,"midi":45,"name":"A2","ticks":33408,"time":49.71423600000001,"velocity":0.4645669291338583},{"duration":0.08630943749999886,"durationTicks":58,"midi":52,"name":"E3","ticks":33408,"time":49.71423600000001,"velocity":0.6299212598425197},{"duration":0.1577379375000021,"durationTicks":106,"midi":61,"name":"C#4","ticks":33408,"time":49.71423600000001,"velocity":0.7716535433070866},{"duration":0.038690437499994346,"durationTicks":26,"midi":45,"name":"A2","ticks":33600,"time":49.999950000000005,"velocity":0.4881889763779528},{"duration":0.05357137499999709,"durationTicks":36,"midi":52,"name":"E3","ticks":33600,"time":49.999950000000005,"velocity":0.6141732283464567},{"duration":0.050595187500000804,"durationTicks":34,"midi":64,"name":"E4","ticks":33600,"time":49.999950000000005,"velocity":0.7480314960629921},{"duration":0.4196424375000021,"durationTicks":282,"midi":50,"name":"D3","ticks":33792,"time":50.285664000000004,"velocity":0.5433070866141733},{"duration":0.4374995625000011,"durationTicks":294,"midi":57,"name":"A3","ticks":33792,"time":50.285664000000004,"velocity":0.6771653543307087},{"duration":0.4583328749999964,"durationTicks":308,"midi":66,"name":"F#4","ticks":33792,"time":50.285664000000004,"velocity":0.8110236220472441},{"duration":0.08333325000000258,"durationTicks":56,"midi":50,"name":"D3","ticks":34176,"time":50.857092,"velocity":0.5748031496062992},{"duration":0.0773808750000029,"durationTicks":52,"midi":57,"name":"A3","ticks":34176,"time":50.857092,"velocity":0.6535433070866141},{"duration":0.10714275000000129,"durationTicks":72,"midi":67,"name":"G4","ticks":34176,"time":50.857092,"velocity":0.7716535433070866},{"duration":0.06547612499999644,"durationTicks":44,"midi":50,"name":"D3","ticks":34368,"time":51.14280600000001,"velocity":0.5118110236220472},{"duration":0.06249993750000016,"durationTicks":42,"midi":57,"name":"A3","ticks":34368,"time":51.14280600000001,"velocity":0.5826771653543307},{"duration":0.05952374999999677,"durationTicks":40,"midi":66,"name":"F#4","ticks":34368,"time":51.14280600000001,"velocity":0.7086614173228346},{"duration":0.42261862499999836,"durationTicks":284,"midi":48,"name":"C3","ticks":34560,"time":51.428520000000006,"velocity":0.5511811023622047},{"duration":0.42857099999999804,"durationTicks":288,"midi":52,"name":"E3","ticks":34560,"time":51.428520000000006,"velocity":0.5590551181102362},{"duration":0.9374990624999953,"durationTicks":630,"midi":60,"name":"C4","ticks":34560,"time":51.428520000000006,"velocity":0.6141732283464567},{"duration":0.9880942500000032,"durationTicks":664,"midi":67,"name":"G4","ticks":34560,"time":51.428520000000006,"velocity":0.6771653543307087},{"duration":0.09523800000000193,"durationTicks":64,"midi":48,"name":"C3","ticks":34944,"time":51.999948,"velocity":0.5433070866141733},{"duration":0.09523800000000193,"durationTicks":64,"midi":53,"name":"F3","ticks":34944,"time":51.999948,"velocity":0.6456692913385826},{"duration":0.06249993750000016,"durationTicks":42,"midi":48,"name":"C3","ticks":35136,"time":52.285662,"velocity":0.3700787401574803},{"duration":0.06547612499999644,"durationTicks":44,"midi":52,"name":"E3","ticks":35136,"time":52.285662,"velocity":0.5826771653543307},{"duration":0.2559521250000074,"durationTicks":172,"midi":50,"name":"D3","ticks":35328,"time":52.571376,"velocity":0.6141732283464567},{"duration":0.31845206250000757,"durationTicks":214,"midi":57,"name":"A3","ticks":35328,"time":52.571376,"velocity":0.4881889763779528},{"duration":0.32142825000000386,"durationTicks":216,"midi":62,"name":"D4","ticks":35328,"time":52.571376,"velocity":0.6929133858267716},{"duration":0.34821393750000595,"durationTicks":234,"midi":66,"name":"F#4","ticks":35328,"time":52.571376,"velocity":0.7086614173228346},{"duration":0.5357137499999993,"durationTicks":360,"midi":45,"name":"A2","ticks":35712,"time":53.142804000000005,"velocity":0.6141732283464567},{"duration":0.5297613749999996,"durationTicks":356,"midi":57,"name":"A3","ticks":35712,"time":53.142804000000005,"velocity":0.5511811023622047},{"duration":0.2827378125000024,"durationTicks":190,"midi":62,"name":"D4","ticks":35712,"time":53.142804000000005,"velocity":0.7322834645669292},{"duration":0.3035711249999977,"durationTicks":204,"midi":64,"name":"E4","ticks":35712,"time":53.142804000000005,"velocity":0.8031496062992126},{"duration":0.288690187499995,"durationTicks":194,"midi":61,"name":"C#4","ticks":35904,"time":53.428518000000004,"velocity":0.6062992125984252},{"duration":0.9910704374999995,"durationTicks":666,"midi":50,"name":"D3","ticks":36096,"time":53.714232,"velocity":0.6141732283464567},{"duration":0.9642847500000045,"durationTicks":648,"midi":54,"name":"F#3","ticks":36096,"time":53.714232,"velocity":0.6062992125984252},{"duration":1.0714274999999986,"durationTicks":720,"midi":62,"name":"D4","ticks":36096,"time":53.714232,"velocity":0.6929133858267716},{"duration":0.47321381249999916,"durationTicks":318,"midi":50,"name":"D3","ticks":36864,"time":54.857088000000005,"velocity":0.6535433070866141},{"duration":0.497023312500005,"durationTicks":334,"midi":57,"name":"A3","ticks":36864,"time":54.857088000000005,"velocity":0.5984251968503937},{"duration":0.5029756874999975,"durationTicks":338,"midi":66,"name":"F#4","ticks":36864,"time":54.857088000000005,"velocity":0.8110236220472441},{"duration":0.06845231250000694,"durationTicks":46,"midi":50,"name":"D3","ticks":37248,"time":55.428516,"velocity":0.6141732283464567},{"duration":0.09523800000000193,"durationTicks":64,"midi":57,"name":"A3","ticks":37248,"time":55.428516,"velocity":0.5748031496062992},{"duration":0.09226181249999854,"durationTicks":62,"midi":67,"name":"G4","ticks":37248,"time":55.428516,"velocity":0.7480314960629921},{"duration":0.14583318749999563,"durationTicks":98,"midi":50,"name":"D3","ticks":37440,"time":55.71423000000001,"velocity":0.5590551181102362},{"duration":0.14285699999999935,"durationTicks":96,"midi":57,"name":"A3","ticks":37440,"time":55.71423000000001,"velocity":0.4881889763779528},{"duration":0.08333324999999547,"durationTicks":56,"midi":66,"name":"F#4","ticks":37440,"time":55.71423000000001,"velocity":0.8661417322834646},{"duration":0.523809,"durationTicks":352,"midi":55,"name":"G3","ticks":37632,"time":55.999944000000006,"velocity":0.7480314960629921},{"duration":0.5386899374999956,"durationTicks":362,"midi":59,"name":"B3","ticks":37632,"time":55.999944000000006,"velocity":0.6535433070866141},{"duration":0.5208328124999966,"durationTicks":350,"midi":67,"name":"G4","ticks":37632,"time":55.999944000000006,"velocity":0.5984251968503937},{"duration":0.4404757499999974,"durationTicks":296,"midi":55,"name":"G3","ticks":38016,"time":56.571372000000004,"velocity":0.6535433070866141},{"duration":0.2321426250000016,"durationTicks":156,"midi":60,"name":"C4","ticks":38016,"time":56.571372000000004,"velocity":0.7086614173228346},{"duration":0.497023312500005,"durationTicks":334,"midi":67,"name":"G4","ticks":38016,"time":56.571372000000004,"velocity":0.7086614173228346},{"duration":0.2351188124999979,"durationTicks":158,"midi":59,"name":"B3","ticks":38208,"time":56.857086,"velocity":0.6299212598425197},{"duration":0.4702376249999958,"durationTicks":316,"midi":50,"name":"D3","ticks":38400,"time":57.14280000000001,"velocity":0.5826771653543307},{"duration":0.4702376249999958,"durationTicks":316,"midi":57,"name":"A3","ticks":38400,"time":57.14280000000001,"velocity":0.5826771653543307},{"duration":0.4910709374999982,"durationTicks":330,"midi":66,"name":"F#4","ticks":38400,"time":57.14280000000001,"velocity":0.7716535433070866},{"duration":0.3303568124999998,"durationTicks":222,"midi":50,"name":"D3","ticks":38784,"time":57.714228000000006,"velocity":0.5984251968503937},{"duration":0.32440443749999304,"durationTicks":218,"midi":54,"name":"F#3","ticks":38784,"time":57.714228000000006,"velocity":0.6220472440944882},{"duration":0.5059518750000009,"durationTicks":340,"midi":62,"name":"D4","ticks":38784,"time":57.714228000000006,"velocity":0.7322834645669292},{"duration":0.8422610625000004,"durationTicks":566,"midi":45,"name":"A2","ticks":39168,"time":58.285656,"velocity":0.5511811023622047},{"duration":0.10714275000000129,"durationTicks":72,"midi":50,"name":"D3","ticks":39168,"time":58.285656,"velocity":0.5354330708661418},{"duration":0.3035711250000048,"durationTicks":204,"midi":52,"name":"E3","ticks":39168,"time":58.285656,"velocity":0.5354330708661418},{"duration":1.0446418125000037,"durationTicks":702,"midi":61,"name":"C#4","ticks":39168,"time":58.285656,"velocity":0.7401574803149606},{"duration":0.2053569375000066,"durationTicks":138,"midi":50,"name":"D3","ticks":39360,"time":58.57137,"velocity":0.6141732283464567},{"duration":0.306547312499994,"durationTicks":206,"midi":52,"name":"E3","ticks":39552,"time":58.85708400000001,"velocity":0.6535433070866141},{"duration":0.13988081250000306,"durationTicks":94,"midi":57,"name":"A3","ticks":39744,"time":59.142798000000006,"velocity":0.6535433070866141},{"duration":0.4672614374999995,"durationTicks":314,"midi":50,"name":"D3","ticks":39936,"time":59.428512000000005,"velocity":0.5984251968503937},{"duration":0.45535668750000013,"durationTicks":306,"midi":54,"name":"F#3","ticks":39936,"time":59.428512000000005,"velocity":0.7401574803149606},{"duration":0.497023312500005,"durationTicks":334,"midi":62,"name":"D4","ticks":39936,"time":59.428512000000005,"velocity":0.8031496062992126},{"duration":0.4166662500000058,"durationTicks":280,"midi":50,"name":"D3","ticks":40320,"time":59.99994,"velocity":0.6141732283464567},{"duration":0.3154758749999971,"durationTicks":212,"midi":55,"name":"G3","ticks":40320,"time":59.99994,"velocity":0.7322834645669292},{"duration":0.5505946875000021,"durationTicks":370,"midi":62,"name":"D4","ticks":40320,"time":59.99994,"velocity":0.7480314960629921},{"duration":0.12202368749999692,"durationTicks":82,"midi":54,"name":"F#3","ticks":40512,"time":60.28565400000001,"velocity":0.5039370078740157},{"duration":0.8273801249999977,"durationTicks":556,"midi":43,"name":"G2","ticks":40704,"time":60.57136800000001,"velocity":0.4409448818897638},{"duration":0.8690467499999954,"durationTicks":584,"midi":50,"name":"D3","ticks":40704,"time":60.57136800000001,"velocity":0.5196850393700787},{"duration":0.5267851874999963,"durationTicks":354,"midi":59,"name":"B3","ticks":40704,"time":60.57136800000001,"velocity":0.7086614173228346},{"duration":0.3065473125000011,"durationTicks":206,"midi":60,"name":"C4","ticks":41088,"time":61.142796000000004,"velocity":0.7322834645669292},{"duration":0.24107118750000467,"durationTicks":162,"midi":59,"name":"B3","ticks":41280,"time":61.42851,"velocity":0.6771653543307087},{"duration":0.4851185624999985,"durationTicks":326,"midi":45,"name":"A2","ticks":41472,"time":61.714224,"velocity":0.5826771653543307},{"duration":0.4583328750000035,"durationTicks":308,"midi":54,"name":"F#3","ticks":41472,"time":61.714224,"velocity":0.47244094488188976},{"duration":0.5029756874999975,"durationTicks":338,"midi":57,"name":"A3","ticks":41472,"time":61.714224,"velocity":0.7480314960629921},{"duration":0.2559521250000003,"durationTicks":172,"midi":45,"name":"A2","ticks":41856,"time":62.285652000000006,"velocity":0.5590551181102362},{"duration":0.3095235000000045,"durationTicks":208,"midi":52,"name":"E3","ticks":41856,"time":62.285652000000006,"velocity":0.6771653543307087},{"duration":0.5178566250000003,"durationTicks":348,"midi":61,"name":"C#4","ticks":41856,"time":62.285652000000006,"velocity":0.8110236220472441},{"duration":0.4434519375000079,"durationTicks":298,"midi":50,"name":"D3","ticks":42240,"time":62.85708,"velocity":0.6141732283464567},{"duration":0.4464281250000042,"durationTicks":300,"midi":54,"name":"F#3","ticks":42240,"time":62.85708,"velocity":0.6771653543307087},{"duration":2.1845216250000092,"durationTicks":1468,"midi":62,"name":"D4","ticks":42240,"time":62.85708,"velocity":0.8346456692913385},{"duration":0.09821418749999822,"durationTicks":66,"midi":50,"name":"D3","ticks":42624,"time":63.42850800000001,"velocity":0.6141732283464567},{"duration":0.09821418749999822,"durationTicks":66,"midi":57,"name":"A3","ticks":42624,"time":63.42850800000001,"velocity":0.5590551181102362},{"duration":0.07440468749999951,"durationTicks":50,"midi":50,"name":"D3","ticks":42816,"time":63.71422200000001,"velocity":0.6299212598425197},{"duration":0.0773808750000029,"durationTicks":52,"midi":57,"name":"A3","ticks":42816,"time":63.71422200000001,"velocity":0.5511811023622047},{"duration":0.42559481250000886,"durationTicks":286,"midi":50,"name":"D3","ticks":43008,"time":63.999936000000005,"velocity":0.6299212598425197},{"duration":0.42857100000000514,"durationTicks":288,"midi":57,"name":"A3","ticks":43008,"time":63.999936000000005,"velocity":0.5984251968503937},{"duration":0.07142849999999612,"durationTicks":48,"midi":50,"name":"D3","ticks":43392,"time":64.571364,"velocity":0.6141732283464567},{"duration":0.07142849999999612,"durationTicks":48,"midi":57,"name":"A3","ticks":43392,"time":64.571364,"velocity":0.5590551181102362},{"duration":0.06547612500000355,"durationTicks":44,"midi":50,"name":"D3","ticks":43584,"time":64.857078,"velocity":0.6299212598425197},{"duration":0.06547612500000355,"durationTicks":44,"midi":57,"name":"A3","ticks":43584,"time":64.857078,"velocity":0.5511811023622047},{"duration":0.4374995625000082,"durationTicks":294,"midi":50,"name":"D3","ticks":43776,"time":65.142792,"velocity":0.6929133858267716},{"duration":0.45535668750000013,"durationTicks":306,"midi":57,"name":"A3","ticks":43776,"time":65.142792,"velocity":0.7716535433070866},{"duration":0.0744046874999924,"durationTicks":50,"midi":50,"name":"D3","ticks":44160,"time":65.71422000000001,"velocity":0.6771653543307087},{"duration":0.0744046874999924,"durationTicks":50,"midi":57,"name":"A3","ticks":44160,"time":65.71422000000001,"velocity":0.7086614173228346},{"duration":0.09523799999999483,"durationTicks":64,"midi":50,"name":"D3","ticks":44352,"time":65.99993400000001,"velocity":0.6299212598425197},{"duration":0.09226181249999854,"durationTicks":62,"midi":57,"name":"A3","ticks":44352,"time":65.99993400000001,"velocity":0.6456692913385826},{"duration":0.44940431249999335,"durationTicks":302,"midi":50,"name":"D3","ticks":44544,"time":66.28564800000001,"velocity":0.6771653543307087},{"duration":0.4672614374999995,"durationTicks":314,"midi":57,"name":"A3","ticks":44544,"time":66.28564800000001,"velocity":0.7716535433070866},{"duration":0.09226181249999854,"durationTicks":62,"midi":50,"name":"D3","ticks":44928,"time":66.857076,"velocity":0.5511811023622047},{"duration":0.09523799999999483,"durationTicks":64,"midi":57,"name":"A3","ticks":44928,"time":66.857076,"velocity":0.6535433070866141},{"duration":0.0773808750000029,"durationTicks":52,"midi":50,"name":"D3","ticks":45120,"time":67.14279,"velocity":0.5590551181102362},{"duration":0.08630943750000597,"durationTicks":58,"midi":57,"name":"A3","ticks":45120,"time":67.14279,"velocity":0.5984251968503937},{"duration":0.34821393750000595,"durationTicks":234,"midi":50,"name":"D3","ticks":45312,"time":67.428504,"velocity":0.5984251968503937},{"duration":0.3601186875000053,"durationTicks":242,"midi":57,"name":"A3","ticks":45312,"time":67.428504,"velocity":0.7480314960629921},{"duration":1.065475125000006,"durationTicks":716,"midi":62,"name":"D4","ticks":45312,"time":67.428504,"velocity":0.8031496062992126},{"duration":0.06845231250001405,"durationTicks":46,"midi":50,"name":"D3","ticks":45696,"time":67.999932,"velocity":0.5511811023622047},{"duration":0.0773808750000029,"durationTicks":52,"midi":57,"name":"A3","ticks":45696,"time":67.999932,"velocity":0.6456692913385826},{"duration":0.08630943750000597,"durationTicks":58,"midi":50,"name":"D3","ticks":45888,"time":68.285646,"velocity":0.5433070866141733},{"duration":0.09523800000000904,"durationTicks":64,"midi":57,"name":"A3","ticks":45888,"time":68.285646,"velocity":0.6535433070866141},{"duration":0.34523775000000967,"durationTicks":232,"midi":50,"name":"D3","ticks":46080,"time":68.57136,"velocity":0.5748031496062992},{"duration":0.443451937500015,"durationTicks":298,"midi":55,"name":"G3","ticks":46080,"time":68.57136,"velocity":0.7480314960629921},{"duration":0.2916663750000055,"durationTicks":196,"midi":59,"name":"B3","ticks":46080,"time":68.57136,"velocity":0.6929133858267716},{"duration":0.19642837499999644,"durationTicks":132,"midi":61,"name":"C#4","ticks":46272,"time":68.85707400000001,"velocity":0.6771653543307087},{"duration":0.053571374999989985,"durationTicks":36,"midi":50,"name":"D3","ticks":46464,"time":69.14278800000001,"velocity":0.5511811023622047},{"duration":0.06249993749999305,"durationTicks":42,"midi":59,"name":"B3","ticks":46464,"time":69.14278800000001,"velocity":0.5590551181102362},{"duration":0.07142849999999612,"durationTicks":48,"midi":62,"name":"D4","ticks":46464,"time":69.14278800000001,"velocity":0.7480314960629921},{"duration":0.053571374999989985,"durationTicks":36,"midi":50,"name":"D3","ticks":46656,"time":69.42850200000001,"velocity":0.6771653543307087},{"duration":0.06845231249999983,"durationTicks":46,"midi":59,"name":"B3","ticks":46656,"time":69.42850200000001,"velocity":0.5433070866141733},{"duration":0.05952374999999677,"durationTicks":40,"midi":62,"name":"D4","ticks":46656,"time":69.42850200000001,"velocity":0.7480314960629921},{"duration":0.42261862499999836,"durationTicks":284,"midi":50,"name":"D3","ticks":46848,"time":69.71421600000001,"velocity":0.6141732283464567},{"duration":0.437499562499994,"durationTicks":294,"midi":57,"name":"A3","ticks":46848,"time":69.71421600000001,"velocity":0.7322834645669292},{"duration":1.1041655625000004,"durationTicks":742,"midi":62,"name":"D4","ticks":46848,"time":69.71421600000001,"velocity":0.7716535433070866},{"duration":0.05952374999999677,"durationTicks":40,"midi":50,"name":"D3","ticks":47232,"time":70.285644,"velocity":0.7086614173228346},{"duration":0.05654756250000048,"durationTicks":38,"midi":57,"name":"A3","ticks":47232,"time":70.285644,"velocity":0.6141732283464567},{"duration":0.07142849999999612,"durationTicks":48,"midi":50,"name":"D3","ticks":47424,"time":70.571358,"velocity":0.6535433070866141},{"duration":0.11904749999999353,"durationTicks":80,"midi":57,"name":"A3","ticks":47424,"time":70.571358,"velocity":0.5748031496062992},{"duration":0.3660710624999979,"durationTicks":246,"midi":45,"name":"A2","ticks":47616,"time":70.857072,"velocity":0.5748031496062992},{"duration":0.3601186875000053,"durationTicks":242,"midi":52,"name":"E3","ticks":47616,"time":70.857072,"velocity":0.5826771653543307},{"duration":0.29464256250000176,"durationTicks":198,"midi":61,"name":"C#4","ticks":47616,"time":70.857072,"velocity":0.7716535433070866},{"duration":0.09821418750000532,"durationTicks":66,"midi":59,"name":"B3","ticks":47808,"time":71.142786,"velocity":0.6456692913385826},{"duration":0.08333325000000968,"durationTicks":56,"midi":45,"name":"A2","ticks":48000,"time":71.4285,"velocity":0.4645669291338583},{"duration":0.07142850000001033,"durationTicks":48,"midi":52,"name":"E3","ticks":48000,"time":71.4285,"velocity":0.5748031496062992},{"duration":0.15178556250000952,"durationTicks":102,"midi":61,"name":"C#4","ticks":48000,"time":71.4285,"velocity":0.7086614173228346},{"duration":0.04761899999999741,"durationTicks":32,"midi":45,"name":"A2","ticks":48192,"time":71.71421400000001,"velocity":0.5039370078740157},{"duration":0.05952374999999677,"durationTicks":40,"midi":52,"name":"E3","ticks":48192,"time":71.71421400000001,"velocity":0.5826771653543307},{"duration":0.11309512500000096,"durationTicks":76,"midi":57,"name":"A3","ticks":48192,"time":71.71421400000001,"velocity":0.6535433070866141},{"duration":0.40178531249999594,"durationTicks":270,"midi":50,"name":"D3","ticks":48384,"time":71.99992800000001,"velocity":0.5039370078740157},{"duration":0.4047614999999922,"durationTicks":272,"midi":57,"name":"A3","ticks":48384,"time":71.99992800000001,"velocity":0.5748031496062992},{"duration":1.1309512499999954,"durationTicks":760,"midi":62,"name":"D4","ticks":48384,"time":71.99992800000001,"velocity":0.8346456692913385},{"duration":0.08333324999999547,"durationTicks":56,"midi":50,"name":"D3","ticks":48768,"time":72.57135600000001,"velocity":0.5590551181102362},{"duration":0.08035706249999919,"durationTicks":54,"midi":57,"name":"A3","ticks":48768,"time":72.57135600000001,"velocity":0.6141732283464567},{"duration":0.053571375000004195,"durationTicks":36,"midi":50,"name":"D3","ticks":48960,"time":72.85707000000001,"velocity":0.4881889763779528},{"duration":0.04464281250000113,"durationTicks":30,"midi":57,"name":"A3","ticks":48960,"time":72.85707000000001,"velocity":0.5984251968503937},{"duration":0.3660710624999979,"durationTicks":246,"midi":43,"name":"G2","ticks":49152,"time":73.142784,"velocity":0.48031496062992124},{"duration":0.3571424999999948,"durationTicks":240,"midi":50,"name":"D3","ticks":49152,"time":73.142784,"velocity":0.6299212598425197},{"duration":0.3035711250000048,"durationTicks":204,"midi":59,"name":"B3","ticks":49152,"time":73.142784,"velocity":0.7086614173228346},{"duration":0.08333325000000968,"durationTicks":56,"midi":57,"name":"A3","ticks":49344,"time":73.428498,"velocity":0.6929133858267716},{"duration":0.07142849999999612,"durationTicks":48,"midi":43,"name":"G2","ticks":49536,"time":73.714212,"velocity":0.4881889763779528},{"duration":0.0773808750000029,"durationTicks":52,"midi":50,"name":"D3","ticks":49536,"time":73.714212,"velocity":0.5984251968503937},{"duration":0.08333325000000968,"durationTicks":56,"midi":59,"name":"B3","ticks":49536,"time":73.714212,"velocity":0.6771653543307087},{"duration":0.047619000000011624,"durationTicks":32,"midi":43,"name":"G2","ticks":49728,"time":73.999926,"velocity":0.4094488188976378},{"duration":0.05952374999999677,"durationTicks":40,"midi":50,"name":"D3","ticks":49728,"time":73.999926,"velocity":0.5354330708661418},{"duration":0.0773808750000029,"durationTicks":52,"midi":59,"name":"B3","ticks":49728,"time":73.999926,"velocity":0.6929133858267716},{"duration":0.3333330000000103,"durationTicks":224,"midi":45,"name":"A2","ticks":49920,"time":74.28564,"velocity":0.5511811023622047},{"duration":0.27083306250001726,"durationTicks":182,"midi":50,"name":"D3","ticks":49920,"time":74.28564,"velocity":0.5039370078740157},{"duration":0.34523774999999546,"durationTicks":232,"midi":54,"name":"F#3","ticks":49920,"time":74.28564,"velocity":0.4094488188976378},{"duration":0.47321381250000627,"durationTicks":318,"midi":57,"name":"A3","ticks":49920,"time":74.28564,"velocity":0.6771653543307087},{"duration":0.3869043750000003,"durationTicks":260,"midi":45,"name":"A2","ticks":50304,"time":74.85706800000001,"velocity":0.5354330708661418},{"duration":0.40178531249999594,"durationTicks":270,"midi":52,"name":"E3","ticks":50304,"time":74.85706800000001,"velocity":0.5826771653543307},{"duration":0.5089280624999901,"durationTicks":342,"midi":61,"name":"C#4","ticks":50304,"time":74.85706800000001,"velocity":0.8110236220472441},{"duration":0.9999990000000025,"durationTicks":672,"midi":50,"name":"D3","ticks":50688,"time":75.42849600000001,"velocity":0.6141732283464567},{"duration":0.9791656874999859,"durationTicks":658,"midi":54,"name":"F#3","ticks":50688,"time":75.42849600000001,"velocity":0.6456692913385826},{"duration":1.0952369999999974,"durationTicks":736,"midi":62,"name":"D4","ticks":50688,"time":75.42849600000001,"velocity":0.8976377952755905},{"duration":0.4702376249999958,"durationTicks":316,"midi":50,"name":"D3","ticks":51456,"time":76.571352,"velocity":0.5984251968503937},{"duration":0.4940471250000087,"durationTicks":332,"midi":57,"name":"A3","ticks":51456,"time":76.571352,"velocity":0.5748031496062992},{"duration":0.4940471250000087,"durationTicks":332,"midi":66,"name":"F#4","ticks":51456,"time":76.571352,"velocity":0.8110236220472441},{"duration":0.07142850000001033,"durationTicks":48,"midi":50,"name":"D3","ticks":51840,"time":77.14278,"velocity":0.6456692913385826},{"duration":0.08035706249999919,"durationTicks":54,"midi":57,"name":"A3","ticks":51840,"time":77.14278,"velocity":0.5590551181102362},{"duration":0.08928562500000226,"durationTicks":60,"midi":67,"name":"G4","ticks":51840,"time":77.14278,"velocity":0.8346456692913385},{"duration":0.06547612500001776,"durationTicks":44,"midi":50,"name":"D3","ticks":52032,"time":77.428494,"velocity":0.5590551181102362},{"duration":0.06547612500001776,"durationTicks":44,"midi":57,"name":"A3","ticks":52032,"time":77.428494,"velocity":0.5511811023622047},{"duration":0.047619000000011624,"durationTicks":32,"midi":66,"name":"F#4","ticks":52032,"time":77.428494,"velocity":0.7401574803149606},{"duration":0.49999949999998705,"durationTicks":336,"midi":48,"name":"C3","ticks":52224,"time":77.71420800000001,"velocity":0.5433070866141733},{"duration":0.4672614374999995,"durationTicks":314,"midi":60,"name":"C4","ticks":52224,"time":77.71420800000001,"velocity":0.4330708661417323},{"duration":0.5208328125000037,"durationTicks":350,"midi":64,"name":"E4","ticks":52224,"time":77.71420800000001,"velocity":0.7716535433070866},{"duration":0.08928562500000226,"durationTicks":60,"midi":48,"name":"C3","ticks":52608,"time":78.28563600000001,"velocity":0.5590551181102362},{"duration":0.07738087499998869,"durationTicks":52,"midi":52,"name":"E3","ticks":52608,"time":78.28563600000001,"velocity":0.6535433070866141},{"duration":0.10119037500000161,"durationTicks":68,"midi":62,"name":"D4","ticks":52608,"time":78.28563600000001,"velocity":0.7480314960629921},{"duration":0.06547612500000355,"durationTicks":44,"midi":48,"name":"C3","ticks":52800,"time":78.57135000000001,"velocity":0.5039370078740157},{"duration":0.06845231249998562,"durationTicks":46,"midi":52,"name":"E3","ticks":52800,"time":78.57135000000001,"velocity":0.5039370078740157},{"duration":0.08630943749999176,"durationTicks":58,"midi":60,"name":"C4","ticks":52800,"time":78.57135000000001,"velocity":0.7322834645669292},{"duration":0.39583293750000337,"durationTicks":266,"midi":50,"name":"D3","ticks":52992,"time":78.85706400000001,"velocity":0.5433070866141733},{"duration":0.4077376874999885,"durationTicks":274,"midi":57,"name":"A3","ticks":52992,"time":78.85706400000001,"velocity":0.4881889763779528},{"duration":1.056546562500003,"durationTicks":710,"midi":62,"name":"D4","ticks":52992,"time":78.85706400000001,"velocity":0.8031496062992126},{"duration":0.08035706249999919,"durationTicks":54,"midi":50,"name":"D3","ticks":53376,"time":79.428492,"velocity":0.5984251968503937},{"duration":0.07738087499998869,"durationTicks":52,"midi":57,"name":"A3","ticks":53376,"time":79.428492,"velocity":0.5511811023622047},{"duration":0.05654756250001469,"durationTicks":38,"midi":50,"name":"D3","ticks":53568,"time":79.714206,"velocity":0.6141732283464567},{"duration":0.08630943749999176,"durationTicks":58,"midi":57,"name":"A3","ticks":53568,"time":79.714206,"velocity":0.5433070866141733},{"duration":0.3928567500000071,"durationTicks":264,"midi":45,"name":"A2","ticks":53760,"time":79.99992,"velocity":0.5118110236220472},{"duration":0.3928567500000071,"durationTicks":264,"midi":52,"name":"E3","ticks":53760,"time":79.99992,"velocity":0.6141732283464567},{"duration":0.2886901875000092,"durationTicks":194,"midi":61,"name":"C#4","ticks":53760,"time":79.99992,"velocity":0.6771653543307087},{"duration":0.11309512500000096,"durationTicks":76,"midi":57,"name":"A3","ticks":53952,"time":80.285634,"velocity":0.5354330708661418},{"duration":0.053571375000004195,"durationTicks":36,"midi":59,"name":"B3","ticks":53952,"time":80.285634,"velocity":0.4645669291338583},{"duration":0.08630943750000597,"durationTicks":58,"midi":45,"name":"A2","ticks":54144,"time":80.571348,"velocity":0.4645669291338583},{"duration":0.08630943750000597,"durationTicks":58,"midi":52,"name":"E3","ticks":54144,"time":80.571348,"velocity":0.6299212598425197},{"duration":0.1577379375000021,"durationTicks":106,"midi":61,"name":"C#4","ticks":54144,"time":80.571348,"velocity":0.7716535433070866},{"duration":0.038690437499994346,"durationTicks":26,"midi":45,"name":"A2","ticks":54336,"time":80.85706200000001,"velocity":0.4881889763779528},{"duration":0.053571374999989985,"durationTicks":36,"midi":52,"name":"E3","ticks":54336,"time":80.85706200000001,"velocity":0.6141732283464567},{"duration":0.0505951874999937,"durationTicks":34,"midi":64,"name":"E4","ticks":54336,"time":80.85706200000001,"velocity":0.7480314960629921},{"duration":0.41964243749998786,"durationTicks":282,"midi":50,"name":"D3","ticks":54528,"time":81.14277600000001,"velocity":0.5433070866141733},{"duration":0.437499562499994,"durationTicks":294,"midi":57,"name":"A3","ticks":54528,"time":81.14277600000001,"velocity":0.6771653543307087},{"duration":0.4583328749999964,"durationTicks":308,"midi":66,"name":"F#4","ticks":54528,"time":81.14277600000001,"velocity":0.8110236220472441},{"duration":0.08333325000000968,"durationTicks":56,"midi":50,"name":"D3","ticks":54912,"time":81.71420400000001,"velocity":0.5748031496062992},{"duration":0.07738087499998869,"durationTicks":52,"midi":57,"name":"A3","ticks":54912,"time":81.71420400000001,"velocity":0.6535433070866141},{"duration":0.10714274999999418,"durationTicks":72,"midi":67,"name":"G4","ticks":54912,"time":81.71420400000001,"velocity":0.7716535433070866},{"duration":0.06547612500000355,"durationTicks":44,"midi":50,"name":"D3","ticks":55104,"time":81.99991800000001,"velocity":0.5118110236220472},{"duration":0.06249993749999305,"durationTicks":42,"midi":57,"name":"A3","ticks":55104,"time":81.99991800000001,"velocity":0.5826771653543307},{"duration":0.05952374999999677,"durationTicks":40,"midi":66,"name":"F#4","ticks":55104,"time":81.99991800000001,"velocity":0.7086614173228346},{"duration":0.42261862499999836,"durationTicks":284,"midi":48,"name":"C3","ticks":55296,"time":82.285632,"velocity":0.5511811023622047},{"duration":0.42857100000000514,"durationTicks":288,"midi":52,"name":"E3","ticks":55296,"time":82.285632,"velocity":0.5590551181102362},{"duration":0.9374990624999953,"durationTicks":630,"midi":60,"name":"C4","ticks":55296,"time":82.285632,"velocity":0.6141732283464567},{"duration":0.988094249999989,"durationTicks":664,"midi":67,"name":"G4","ticks":55296,"time":82.285632,"velocity":0.6771653543307087},{"duration":0.09523799999999483,"durationTicks":64,"midi":48,"name":"C3","ticks":55680,"time":82.85706,"velocity":0.5433070866141733},{"duration":0.09523799999999483,"durationTicks":64,"midi":53,"name":"F3","ticks":55680,"time":82.85706,"velocity":0.6456692913385826},{"duration":0.06249993750000726,"durationTicks":42,"midi":48,"name":"C3","ticks":55872,"time":83.142774,"velocity":0.3700787401574803},{"duration":0.06547612500000355,"durationTicks":44,"midi":52,"name":"E3","ticks":55872,"time":83.142774,"velocity":0.5826771653543307},{"duration":0.2559521249999932,"durationTicks":172,"midi":50,"name":"D3","ticks":56064,"time":83.428488,"velocity":0.6141732283464567},{"duration":0.31845206250000047,"durationTicks":214,"midi":57,"name":"A3","ticks":56064,"time":83.428488,"velocity":0.4881889763779528},{"duration":0.32142825000001096,"durationTicks":216,"midi":62,"name":"D4","ticks":56064,"time":83.428488,"velocity":0.6929133858267716},{"duration":0.34821393750000595,"durationTicks":234,"midi":66,"name":"F#4","ticks":56064,"time":83.428488,"velocity":0.7086614173228346},{"duration":0.5357137499999993,"durationTicks":360,"midi":45,"name":"A2","ticks":56448,"time":83.99991600000001,"velocity":0.6141732283464567},{"duration":0.5297613749999925,"durationTicks":356,"midi":57,"name":"A3","ticks":56448,"time":83.99991600000001,"velocity":0.5511811023622047},{"duration":0.2827378124999882,"durationTicks":190,"midi":62,"name":"D4","ticks":56448,"time":83.99991600000001,"velocity":0.7322834645669292},{"duration":0.3035711249999906,"durationTicks":204,"midi":64,"name":"E4","ticks":56448,"time":83.99991600000001,"velocity":0.8031496062992126},{"duration":0.288690187499995,"durationTicks":194,"midi":61,"name":"C#4","ticks":56640,"time":84.28563000000001,"velocity":0.6062992125984252},{"duration":0.9910704374999995,"durationTicks":666,"midi":50,"name":"D3","ticks":56832,"time":84.57134400000001,"velocity":0.6141732283464567},{"duration":0.9642847499999903,"durationTicks":648,"midi":54,"name":"F#3","ticks":56832,"time":84.57134400000001,"velocity":0.6062992125984252},{"duration":1.0714274999999986,"durationTicks":720,"midi":62,"name":"D4","ticks":56832,"time":84.57134400000001,"velocity":0.6929133858267716},{"duration":0.47321381250000627,"durationTicks":318,"midi":50,"name":"D3","ticks":57600,"time":85.7142,"velocity":0.6535433070866141},{"duration":0.49702331249999077,"durationTicks":334,"midi":57,"name":"A3","ticks":57600,"time":85.7142,"velocity":0.5984251968503937},{"duration":0.5029756875000118,"durationTicks":338,"midi":66,"name":"F#4","ticks":57600,"time":85.7142,"velocity":0.8110236220472441},{"duration":0.06845231249999983,"durationTicks":46,"midi":50,"name":"D3","ticks":57984,"time":86.285628,"velocity":0.6141732283464567},{"duration":0.09523799999999483,"durationTicks":64,"midi":57,"name":"A3","ticks":57984,"time":86.285628,"velocity":0.5748031496062992},{"duration":0.09226181250001275,"durationTicks":62,"midi":67,"name":"G4","ticks":57984,"time":86.285628,"velocity":0.7480314960629921},{"duration":0.14583318750001695,"durationTicks":98,"midi":50,"name":"D3","ticks":58176,"time":86.571342,"velocity":0.5590551181102362},{"duration":0.14285700000000645,"durationTicks":96,"midi":57,"name":"A3","ticks":58176,"time":86.571342,"velocity":0.4881889763779528},{"duration":0.08333325000000968,"durationTicks":56,"midi":66,"name":"F#4","ticks":58176,"time":86.571342,"velocity":0.8661417322834646},{"duration":0.523809,"durationTicks":352,"midi":55,"name":"G3","ticks":58368,"time":86.857056,"velocity":0.7480314960629921},{"duration":0.5386899375000098,"durationTicks":362,"midi":59,"name":"B3","ticks":58368,"time":86.857056,"velocity":0.6535433070866141},{"duration":0.5208328125000179,"durationTicks":350,"midi":67,"name":"G4","ticks":58368,"time":86.857056,"velocity":0.5984251968503937},{"duration":0.4404757500000045,"durationTicks":296,"midi":55,"name":"G3","ticks":58752,"time":87.42848400000001,"velocity":0.6535433070866141},{"duration":0.2321426249999945,"durationTicks":156,"midi":60,"name":"C4","ticks":58752,"time":87.42848400000001,"velocity":0.7086614173228346},{"duration":0.49702331249999077,"durationTicks":334,"midi":67,"name":"G4","ticks":58752,"time":87.42848400000001,"velocity":0.7086614173228346},{"duration":0.235118812500005,"durationTicks":158,"midi":59,"name":"B3","ticks":58944,"time":87.71419800000001,"velocity":0.6299212598425197},{"duration":0.4702376249999958,"durationTicks":316,"midi":50,"name":"D3","ticks":59136,"time":87.99991200000001,"velocity":0.5826771653543307},{"duration":0.4702376249999958,"durationTicks":316,"midi":57,"name":"A3","ticks":59136,"time":87.99991200000001,"velocity":0.5826771653543307},{"duration":0.4910709374999982,"durationTicks":330,"midi":66,"name":"F#4","ticks":59136,"time":87.99991200000001,"velocity":0.7716535433070866},{"duration":0.3303568124999998,"durationTicks":222,"midi":50,"name":"D3","ticks":59520,"time":88.57134,"velocity":0.5984251968503937},{"duration":0.32440443750000725,"durationTicks":218,"midi":54,"name":"F#3","ticks":59520,"time":88.57134,"velocity":0.6220472440944882},{"duration":0.5059518749999938,"durationTicks":340,"midi":62,"name":"D4","ticks":59520,"time":88.57134,"velocity":0.7322834645669292},{"duration":0.8422610625000146,"durationTicks":566,"midi":45,"name":"A2","ticks":59904,"time":89.142768,"velocity":0.5511811023622047},{"duration":0.10714275000000839,"durationTicks":72,"midi":50,"name":"D3","ticks":59904,"time":89.142768,"velocity":0.5354330708661418},{"duration":0.3035711250000048,"durationTicks":204,"midi":52,"name":"E3","ticks":59904,"time":89.142768,"velocity":0.5354330708661418},{"duration":1.0446418125000037,"durationTicks":702,"midi":61,"name":"C#4","ticks":59904,"time":89.142768,"velocity":0.7401574803149606},{"duration":0.2053569374999995,"durationTicks":138,"midi":50,"name":"D3","ticks":60096,"time":89.428482,"velocity":0.6141732283464567},{"duration":0.3065473125000153,"durationTicks":206,"midi":52,"name":"E3","ticks":60288,"time":89.714196,"velocity":0.6535433070866141},{"duration":0.13988081249998174,"durationTicks":94,"midi":57,"name":"A3","ticks":60480,"time":89.99991000000001,"velocity":0.6535433070866141},{"duration":0.4672614374999995,"durationTicks":314,"midi":50,"name":"D3","ticks":60672,"time":90.28562400000001,"velocity":0.5984251968503937},{"duration":0.45535668750000013,"durationTicks":306,"midi":54,"name":"F#3","ticks":60672,"time":90.28562400000001,"velocity":0.7401574803149606},{"duration":0.49702331249999077,"durationTicks":334,"midi":62,"name":"D4","ticks":60672,"time":90.28562400000001,"velocity":0.8031496062992126},{"duration":0.4166662499999916,"durationTicks":280,"midi":50,"name":"D3","ticks":61056,"time":90.85705200000001,"velocity":0.6141732283464567},{"duration":0.3154758750000042,"durationTicks":212,"midi":55,"name":"G3","ticks":61056,"time":90.85705200000001,"velocity":0.7322834645669292},{"duration":0.550594687499995,"durationTicks":370,"midi":62,"name":"D4","ticks":61056,"time":90.85705200000001,"velocity":0.7480314960629921},{"duration":0.12202368749998982,"durationTicks":82,"midi":54,"name":"F#3","ticks":61248,"time":91.14276600000001,"velocity":0.5039370078740157},{"duration":0.8273801249999906,"durationTicks":556,"midi":43,"name":"G2","ticks":61440,"time":91.42848000000001,"velocity":0.4409448818897638},{"duration":0.8690467500000096,"durationTicks":584,"midi":50,"name":"D3","ticks":61440,"time":91.42848000000001,"velocity":0.5196850393700787},{"duration":0.5267851874999963,"durationTicks":354,"midi":59,"name":"B3","ticks":61440,"time":91.42848000000001,"velocity":0.7086614173228346},{"duration":0.3065473125000011,"durationTicks":206,"midi":60,"name":"C4","ticks":61824,"time":91.999908,"velocity":0.7322834645669292},{"duration":0.24107118749999756,"durationTicks":162,"midi":59,"name":"B3","ticks":62016,"time":92.285622,"velocity":0.6771653543307087},{"duration":0.4851185625000056,"durationTicks":326,"midi":45,"name":"A2","ticks":62208,"time":92.571336,"velocity":0.5826771653543307},{"duration":0.45833287500001063,"durationTicks":308,"midi":54,"name":"F#3","ticks":62208,"time":92.571336,"velocity":0.47244094488188976},{"duration":0.5029756875000118,"durationTicks":338,"midi":57,"name":"A3","ticks":62208,"time":92.571336,"velocity":0.7480314960629921},{"duration":0.2559521249999932,"durationTicks":172,"midi":45,"name":"A2","ticks":62592,"time":93.14276400000001,"velocity":0.5590551181102362},{"duration":0.3095234999999832,"durationTicks":208,"midi":52,"name":"E3","ticks":62592,"time":93.14276400000001,"velocity":0.6771653543307087},{"duration":0.5178566249999932,"durationTicks":348,"midi":61,"name":"C#4","ticks":62592,"time":93.14276400000001,"velocity":0.8110236220472441},{"duration":0.44345193749998657,"durationTicks":298,"midi":50,"name":"D3","ticks":62976,"time":93.71419200000001,"velocity":0.6141732283464567},{"duration":0.44642812499999707,"durationTicks":300,"midi":54,"name":"F#3","ticks":62976,"time":93.71419200000001,"velocity":0.6771653543307087},{"duration":4.470233624999992,"durationTicks":3004,"midi":62,"name":"D4","ticks":62976,"time":93.71419200000001,"velocity":0.8346456692913385},{"duration":0.09821418750000532,"durationTicks":66,"midi":50,"name":"D3","ticks":63360,"time":94.28562000000001,"velocity":0.6141732283464567},{"duration":0.09821418750000532,"durationTicks":66,"midi":57,"name":"A3","ticks":63360,"time":94.28562000000001,"velocity":0.5590551181102362},{"duration":0.07440468750000662,"durationTicks":50,"midi":50,"name":"D3","ticks":63552,"time":94.57133400000001,"velocity":0.6299212598425197},{"duration":0.07738087499998869,"durationTicks":52,"midi":57,"name":"A3","ticks":63552,"time":94.57133400000001,"velocity":0.5511811023622047},{"duration":0.42559481249999465,"durationTicks":286,"midi":50,"name":"D3","ticks":63744,"time":94.857048,"velocity":0.6299212598425197},{"duration":0.42857100000000514,"durationTicks":288,"midi":57,"name":"A3","ticks":63744,"time":94.857048,"velocity":0.5984251968503937},{"duration":0.07142850000001033,"durationTicks":48,"midi":50,"name":"D3","ticks":64128,"time":95.428476,"velocity":0.6141732283464567},{"duration":0.07142850000001033,"durationTicks":48,"midi":57,"name":"A3","ticks":64128,"time":95.428476,"velocity":0.5590551181102362},{"duration":0.06547612500001776,"durationTicks":44,"midi":50,"name":"D3","ticks":64320,"time":95.71419,"velocity":0.6299212598425197},{"duration":0.06547612500001776,"durationTicks":44,"midi":57,"name":"A3","ticks":64320,"time":95.71419,"velocity":0.5511811023622047},{"duration":2.238092999999992,"durationTicks":1504,"midi":50,"name":"D3","ticks":64512,"time":95.99990400000002,"velocity":0.6456692913385826},{"duration":2.2321406249999995,"durationTicks":1500,"midi":57,"name":"A3","ticks":64512,"time":95.99990400000002,"velocity":0.5826771653543307}]}]}};