function getGollyWongCakeWalk() { return {"tracks":[{"name":"Track 1","notes":[{"duration":0.17982463333333332,"durationTicks":41,"midi":82,"name":"A#5","ticks":365,"time":1.6008778333333333,"velocity":0.8740157480314961},{"duration":0.15350883333333365,"durationTicks":35,"midi":70,"name":"A#4","ticks":367,"time":1.6096497666666665,"velocity":0.7716535433070866},{"duration":0.14473690000000006,"durationTicks":33,"midi":80,"name":"G#5","ticks":398,"time":1.7456147333333334,"velocity":0.7086614173228346},{"duration":0.11842110000000017,"durationTicks":27,"midi":68,"name":"G#4","ticks":401,"time":1.7587726333333333,"velocity":0.6692913385826772},{"duration":0.16228076666666658,"durationTicks":37,"midi":82,"name":"A#5","ticks":466,"time":2.0438604666666667,"velocity":0.7874015748031497},{"duration":0.1359649666666667,"durationTicks":31,"midi":70,"name":"A#4","ticks":467,"time":2.0482464333333334,"velocity":0.7322834645669292},{"duration":0.1096491666666668,"durationTicks":25,"midi":77,"name":"F5","ticks":498,"time":2.1842114,"velocity":0.7322834645669292},{"duration":0.09210529999999961,"durationTicks":21,"midi":65,"name":"F4","ticks":501,"time":2.1973693,"velocity":0.5433070866141733},{"duration":0.08771933333333282,"durationTicks":20,"midi":82,"name":"A#5","ticks":560,"time":2.4561413333333335,"velocity":0.8740157480314961},{"duration":0.07894740000000011,"durationTicks":18,"midi":70,"name":"A#4","ticks":561,"time":2.4605273,"velocity":0.7165354330708661},{"duration":0.11403513333333315,"durationTicks":26,"midi":68,"name":"G#4","ticks":622,"time":2.728071266666667,"velocity":0.8031496062992126},{"duration":0.09649126666666685,"durationTicks":22,"midi":80,"name":"G#5","ticks":623,"time":2.7324572333333332,"velocity":0.7559055118110236},{"duration":0.07894739999999967,"durationTicks":18,"midi":77,"name":"F5","ticks":663,"time":2.9078959,"velocity":0.6299212598425197},{"duration":0.08771933333333326,"durationTicks":20,"midi":65,"name":"F4","ticks":663,"time":2.9078959,"velocity":0.5905511811023622},{"duration":0.09210530000000006,"durationTicks":21,"midi":63,"name":"D#4","ticks":721,"time":3.162281966666667,"velocity":0.6377952755905512},{"duration":0.06578950000000017,"durationTicks":15,"midi":75,"name":"D#5","ticks":722,"time":3.166667933333333,"velocity":0.6062992125984252},{"duration":0.17543866666666652,"durationTicks":40,"midi":71,"name":"B4","ticks":748,"time":3.280703066666667,"velocity":0.7401574803149606},{"duration":0.17543866666666652,"durationTicks":40,"midi":59,"name":"B3","ticks":751,"time":3.2938609666666667,"velocity":0.6456692913385826},{"duration":0.15350883333333343,"durationTicks":35,"midi":68,"name":"G#4","ticks":891,"time":3.9078963,"velocity":0.6850393700787402},{"duration":0.17543866666666696,"durationTicks":40,"midi":56,"name":"G#3","ticks":893,"time":3.916668233333333,"velocity":0.84251968503937},{"duration":0.16666673333333293,"durationTicks":38,"midi":65,"name":"F4","ticks":921,"time":4.0394753,"velocity":0.5669291338582677},{"duration":0.13596496666666624,"durationTicks":31,"midi":53,"name":"F3","ticks":922,"time":4.043861266666667,"velocity":0.7165354330708661},{"duration":0.14035093333333304,"durationTicks":32,"midi":51,"name":"D#3","ticks":952,"time":4.175440266666667,"velocity":0.7086614173228346},{"duration":0.15789480000000022,"durationTicks":36,"midi":63,"name":"D#4","ticks":953,"time":4.179826233333333,"velocity":0.7086614173228346},{"duration":0.11403513333333315,"durationTicks":26,"midi":47,"name":"B2","ticks":975,"time":4.2763175,"velocity":0.7795275590551181},{"duration":0.14473689999999984,"durationTicks":33,"midi":59,"name":"B3","ticks":982,"time":4.307019266666667,"velocity":0.8346456692913385},{"duration":0.17982463333333332,"durationTicks":41,"midi":56,"name":"G#3","ticks":1128,"time":4.9473704000000005,"velocity":0.8188976377952756},{"duration":0.16666673333333293,"durationTicks":38,"midi":44,"name":"G#2","ticks":1130,"time":4.956142333333333,"velocity":0.8188976377952756},{"duration":0.16228076666666702,"durationTicks":37,"midi":53,"name":"F3","ticks":1158,"time":5.0789494,"velocity":0.7716535433070866},{"duration":0.13157900000000033,"durationTicks":30,"midi":41,"name":"F2","ticks":1160,"time":5.087721333333333,"velocity":0.6929133858267716},{"duration":0.14473689999999984,"durationTicks":33,"midi":39,"name":"D#2","ticks":1180,"time":5.175440666666667,"velocity":0.7244094488188977},{"duration":0.16666673333333293,"durationTicks":38,"midi":51,"name":"D#3","ticks":1190,"time":5.219300333333333,"velocity":0.7480314960629921},{"duration":0.07894739999999967,"durationTicks":18,"midi":35,"name":"B1","ticks":1215,"time":5.3289495,"velocity":0.7716535433070866},{"duration":0.09210529999999917,"durationTicks":21,"midi":47,"name":"B2","ticks":1217,"time":5.337721433333334,"velocity":0.8346456692913385},{"duration":0.06578950000000017,"durationTicks":15,"midi":55,"name":"G3","ticks":1283,"time":5.6271952333333335,"velocity":1},{"duration":0.04824563333333298,"durationTicks":11,"midi":46,"name":"A#2","ticks":1285,"time":5.635967166666667,"velocity":0.984251968503937},{"duration":0.07894739999999878,"durationTicks":18,"midi":50,"name":"D3","ticks":1285,"time":5.635967166666667,"velocity":0.9921259842519685},{"duration":0.06578950000000017,"durationTicks":15,"midi":34,"name":"A#1","ticks":1287,"time":5.6447391,"velocity":0.937007874015748},{"duration":0.09210530000000094,"durationTicks":21,"midi":39,"name":"D#2","ticks":1725,"time":7.5657925,"velocity":0.4566929133858268},{"duration":0.09649126666666596,"durationTicks":22,"midi":46,"name":"A#2","ticks":1727,"time":7.574564433333334,"velocity":0.5118110236220472},{"duration":0.08771933333333326,"durationTicks":20,"midi":58,"name":"A#3","ticks":1791,"time":7.8552663,"velocity":0.6062992125984252},{"duration":0.05701756666666746,"durationTicks":13,"midi":51,"name":"D#3","ticks":1793,"time":7.864038233333333,"velocity":0.5275590551181102},{"duration":0.04824563333333387,"durationTicks":11,"midi":55,"name":"G3","ticks":1796,"time":7.877196133333333,"velocity":0.3858267716535433},{"duration":0.04824563333333298,"durationTicks":11,"midi":53,"name":"F3","ticks":1800,"time":7.8947400000000005,"velocity":0.4251968503937008},{"duration":0.048245633333332094,"durationTicks":11,"midi":39,"name":"D#2","ticks":1856,"time":8.140354133333334,"velocity":0.5905511811023622},{"duration":0.04824563333333387,"durationTicks":11,"midi":46,"name":"A#2","ticks":1858,"time":8.149126066666666,"velocity":0.5118110236220472},{"duration":0.048245633333332094,"durationTicks":11,"midi":58,"name":"A#3","ticks":1917,"time":8.4078981,"velocity":0.7874015748031497},{"duration":0.03508773333333437,"durationTicks":8,"midi":51,"name":"D#3","ticks":1918,"time":8.412284066666667,"velocity":0.7559055118110236},{"duration":0.04824563333333387,"durationTicks":11,"midi":55,"name":"G3","ticks":1923,"time":8.4342139,"velocity":0.5433070866141733},{"duration":0.030701766666668462,"durationTicks":7,"midi":53,"name":"F3","ticks":1925,"time":8.442985833333333,"velocity":0.6299212598425197},{"duration":0.08771933333333237,"durationTicks":20,"midi":51,"name":"D#3","ticks":1940,"time":8.508775333333334,"velocity":0.8818897637795275},{"duration":0.09210530000000006,"durationTicks":21,"midi":58,"name":"A#3","ticks":1941,"time":8.5131613,"velocity":0.9606299212598425},{"duration":0.09210529999999828,"durationTicks":21,"midi":39,"name":"D#2","ticks":1977,"time":8.671056100000001,"velocity":0.7165354330708661},{"duration":0.09649126666666596,"durationTicks":22,"midi":46,"name":"A#2","ticks":1980,"time":8.684214,"velocity":0.6614173228346457},{"duration":0.07456143333333465,"durationTicks":17,"midi":55,"name":"G3","ticks":2042,"time":8.956143933333333,"velocity":0.4330708661417323},{"duration":0.035087733333332594,"durationTicks":8,"midi":58,"name":"A#3","ticks":2045,"time":8.969301833333335,"velocity":0.7007874015748031},{"duration":0.048245633333332094,"durationTicks":11,"midi":53,"name":"F3","ticks":2046,"time":8.9736878,"velocity":0.5196850393700787},{"duration":0.030701766666666686,"durationTicks":7,"midi":51,"name":"D#3","ticks":2048,"time":8.982459733333334,"velocity":0.5669291338582677},{"duration":0.052631600000001555,"durationTicks":12,"midi":39,"name":"D#2","ticks":2108,"time":9.245617733333333,"velocity":0.5984251968503937},{"duration":0.048245633333332094,"durationTicks":11,"midi":46,"name":"A#2","ticks":2115,"time":9.2763195,"velocity":0.4409448818897638},{"duration":0.08771933333333415,"durationTicks":20,"midi":58,"name":"A#3","ticks":2168,"time":9.508775733333334,"velocity":0.6377952755905512},{"duration":0.043859666666666186,"durationTicks":10,"midi":51,"name":"D#3","ticks":2173,"time":9.530705566666667,"velocity":0.4015748031496063},{"duration":0.04824563333333387,"durationTicks":11,"midi":53,"name":"F3","ticks":2180,"time":9.561407333333333,"velocity":0.33858267716535434},{"duration":0.035087733333332594,"durationTicks":8,"midi":55,"name":"G3","ticks":2181,"time":9.565793300000001,"velocity":0.2204724409448819},{"duration":0.07894740000000233,"durationTicks":18,"midi":39,"name":"D#2","ticks":2231,"time":9.785091633333332,"velocity":0.6535433070866141},{"duration":0.05263159999999978,"durationTicks":12,"midi":46,"name":"A#2","ticks":2236,"time":9.807021466666667,"velocity":0.5275590551181102},{"duration":0.06578949999999928,"durationTicks":15,"midi":58,"name":"A#3","ticks":2291,"time":10.048249633333333,"velocity":0.8740157480314961},{"duration":0.06578950000000106,"durationTicks":15,"midi":51,"name":"D#3","ticks":2292,"time":10.0526356,"velocity":0.84251968503937},{"duration":0.04385966666666796,"durationTicks":10,"midi":53,"name":"F3","ticks":2297,"time":10.074565433333333,"velocity":0.5669291338582677},{"duration":0.030701766666666686,"durationTicks":7,"midi":55,"name":"G3","ticks":2297,"time":10.074565433333333,"velocity":0.6299212598425197},{"duration":0.09649126666666774,"durationTicks":22,"midi":58,"name":"A#3","ticks":2320,"time":10.175442666666665,"velocity":0.9212598425196851},{"duration":0.05701756666666746,"durationTicks":13,"midi":51,"name":"D#3","ticks":2321,"time":10.179828633333333,"velocity":0.8503937007874016},{"duration":0.043859666666666186,"durationTicks":10,"midi":39,"name":"D#2","ticks":2356,"time":10.333337466666666,"velocity":0.7165354330708661},{"duration":0.08771933333333415,"durationTicks":20,"midi":46,"name":"A#2","ticks":2357,"time":10.337723433333332,"velocity":0.6771653543307087},{"duration":0.048245633333332094,"durationTicks":11,"midi":58,"name":"A#3","ticks":2421,"time":10.6184253,"velocity":0.6771653543307087},{"duration":0.04824563333333387,"durationTicks":11,"midi":51,"name":"D#3","ticks":2422,"time":10.622811266666666,"velocity":0.6771653543307087},{"duration":0.04824563333333387,"durationTicks":11,"midi":55,"name":"G3","ticks":2423,"time":10.627197233333334,"velocity":0.3937007874015748},{"duration":0.04385966666666796,"durationTicks":10,"midi":53,"name":"F3","ticks":2425,"time":10.635969166666666,"velocity":0.5039370078740157},{"duration":0.052631600000001555,"durationTicks":12,"midi":39,"name":"D#2","ticks":2483,"time":10.890355233333333,"velocity":0.6062992125984252},{"duration":0.052631599999998,"durationTicks":12,"midi":46,"name":"A#2","ticks":2487,"time":10.907899100000002,"velocity":0.5196850393700787},{"duration":0.09649126666666774,"durationTicks":22,"midi":58,"name":"A#3","ticks":2547,"time":11.1710571,"velocity":0.6377952755905512},{"duration":0.05701756666666746,"durationTicks":13,"midi":51,"name":"D#3","ticks":2550,"time":11.184215,"velocity":0.47244094488188976},{"duration":0.048245633333332094,"durationTicks":11,"midi":53,"name":"F3","ticks":2555,"time":11.206144833333335,"velocity":0.33858267716535434},{"duration":0.043859666666666186,"durationTicks":10,"midi":55,"name":"G3","ticks":2556,"time":11.2105308,"velocity":0.2047244094488189},{"duration":0.07456143333333465,"durationTicks":17,"midi":39,"name":"D#2","ticks":2612,"time":11.456144933333333,"velocity":0.5748031496062992},{"duration":0.052631600000001555,"durationTicks":12,"midi":46,"name":"A#2","ticks":2618,"time":11.482460733333333,"velocity":0.47244094488188976},{"duration":0.04824563333333387,"durationTicks":11,"midi":58,"name":"A#3","ticks":2680,"time":11.754390666666666,"velocity":0.6456692913385826},{"duration":0.030701766666666686,"durationTicks":7,"midi":51,"name":"D#3","ticks":2682,"time":11.763162600000001,"velocity":0.5196850393700787},{"duration":0.048245633333332094,"durationTicks":11,"midi":55,"name":"G3","ticks":2683,"time":11.767548566666667,"velocity":0.1889763779527559},{"duration":0.23245623333333398,"durationTicks":53,"midi":70,"name":"A#4","ticks":2751,"time":12.0657943,"velocity":0.8976377952755905},{"duration":0.11842110000000083,"durationTicks":27,"midi":39,"name":"D#2","ticks":2752,"time":12.070180266666666,"velocity":0.6692913385826772},{"duration":0.10964916666666547,"durationTicks":25,"midi":46,"name":"A#2","ticks":2760,"time":12.105268,"velocity":0.5669291338582677},{"duration":0.1842106000000001,"durationTicks":42,"midi":68,"name":"G#4","ticks":2785,"time":12.214917166666666,"velocity":0.7480314960629921},{"duration":0.1842106000000001,"durationTicks":42,"midi":63,"name":"D#4","ticks":2821,"time":12.372811966666667,"velocity":0.7165354330708661},{"duration":0.09210530000000006,"durationTicks":21,"midi":59,"name":"B3","ticks":2826,"time":12.3947418,"velocity":0.5905511811023622},{"duration":0.043859666666666186,"durationTicks":10,"midi":56,"name":"G#3","ticks":2832,"time":12.421057600000001,"velocity":0.6456692913385826},{"duration":0.052631600000001555,"durationTicks":12,"midi":53,"name":"F3","ticks":2836,"time":12.438601466666666,"velocity":0.6850393700787402},{"duration":0.14035093333333215,"durationTicks":32,"midi":70,"name":"A#4","ticks":2858,"time":12.535092733333334,"velocity":0.7007874015748031},{"duration":0.11403513333333315,"durationTicks":26,"midi":65,"name":"F4","ticks":2885,"time":12.653513833333333,"velocity":0.7874015748031497},{"duration":0.06578949999999928,"durationTicks":15,"midi":46,"name":"A#2","ticks":2890,"time":12.675443666666666,"velocity":0.6850393700787402},{"duration":0.10964916666666547,"durationTicks":25,"midi":70,"name":"A#4","ticks":2948,"time":12.929829733333333,"velocity":0.8976377952755905},{"duration":0.07894740000000056,"durationTicks":18,"midi":53,"name":"F3","ticks":2950,"time":12.938601666666667,"velocity":0.7007874015748031},{"duration":0.030701766666666686,"durationTicks":7,"midi":56,"name":"G#3","ticks":2951,"time":12.942987633333333,"velocity":0.7007874015748031},{"duration":0.07017546666666874,"durationTicks":16,"midi":59,"name":"B3","ticks":2951,"time":12.942987633333333,"velocity":0.7559055118110236},{"duration":0.09210530000000006,"durationTicks":21,"midi":63,"name":"D#4","ticks":2951,"time":12.942987633333333,"velocity":0.7874015748031497},{"duration":0.04385966666666441,"durationTicks":10,"midi":60,"name":"C4","ticks":2960,"time":12.982461333333335,"velocity":0.30708661417322836},{"duration":0.08771933333333237,"durationTicks":20,"midi":68,"name":"G#4","ticks":3012,"time":13.210531600000001,"velocity":0.8818897637795275},{"duration":0.08771933333333415,"durationTicks":20,"midi":46,"name":"A#2","ticks":3015,"time":13.2236895,"velocity":0.7480314960629921},{"duration":0.1666667333333347,"durationTicks":38,"midi":65,"name":"F4","ticks":3045,"time":13.3552685,"velocity":0.7716535433070866},{"duration":0.08771933333333237,"durationTicks":20,"midi":56,"name":"G#3","ticks":3076,"time":13.491233466666667,"velocity":0.7480314960629921},{"duration":0.06578949999999928,"durationTicks":15,"midi":53,"name":"F3","ticks":3077,"time":13.495619433333333,"velocity":0.6614173228346457},{"duration":0.030701766666666686,"durationTicks":7,"midi":59,"name":"B3","ticks":3078,"time":13.5000054,"velocity":0.5905511811023622},{"duration":0.0877193333333306,"durationTicks":20,"midi":63,"name":"D#4","ticks":3110,"time":13.640356333333335,"velocity":0.7952755905511811},{"duration":0.09649126666666596,"durationTicks":22,"midi":59,"name":"B3","ticks":3138,"time":13.7631634,"velocity":0.8503937007874016},{"duration":0.030701766666666686,"durationTicks":7,"midi":46,"name":"A#2","ticks":3142,"time":13.780707266666667,"velocity":0.7716535433070866},{"duration":0.026315800000000777,"durationTicks":6,"midi":39,"name":"D#2","ticks":3142,"time":13.780707266666667,"velocity":0.7086614173228346},{"duration":0.030701766666666686,"durationTicks":7,"midi":56,"name":"G#3","ticks":3201,"time":14.0394793,"velocity":0.7480314960629921},{"duration":0.09210530000000006,"durationTicks":21,"midi":63,"name":"D#4","ticks":3202,"time":14.043865266666668,"velocity":0.8582677165354331},{"duration":0.030701766666666686,"durationTicks":7,"midi":59,"name":"B3","ticks":3202,"time":14.043865266666668,"velocity":0.6692913385826772},{"duration":0.0745614333333311,"durationTicks":17,"midi":58,"name":"A#3","ticks":3263,"time":14.311409233333334,"velocity":0.8976377952755905},{"duration":0.026315800000000777,"durationTicks":6,"midi":39,"name":"D#2","ticks":3266,"time":14.324567133333332,"velocity":0.7007874015748031},{"duration":0.04385966666666796,"durationTicks":10,"midi":47,"name":"B2","ticks":3273,"time":14.355268899999999,"velocity":0.30708661417322836},{"duration":0.2412281666666658,"durationTicks":55,"midi":58,"name":"A#3","ticks":3293,"time":14.442988233333333,"velocity":0.8740157480314961},{"duration":0.07456143333333287,"durationTicks":17,"midi":55,"name":"G3","ticks":3327,"time":14.5921111,"velocity":0.7480314960629921},{"duration":0.04385966666666796,"durationTicks":10,"midi":53,"name":"F3","ticks":3333,"time":14.6184269,"velocity":0.5590551181102362},{"duration":0.07456143333333287,"durationTicks":17,"midi":60,"name":"C4","ticks":3360,"time":14.736848,"velocity":0.7874015748031497},{"duration":0.03508773333333437,"durationTicks":8,"midi":39,"name":"D#2","ticks":3386,"time":14.850883133333333,"velocity":0.7165354330708661},{"duration":0.03508773333333437,"durationTicks":8,"midi":46,"name":"A#2","ticks":3388,"time":14.859655066666667,"velocity":0.6062992125984252},{"duration":0.12280706666666674,"durationTicks":28,"midi":58,"name":"A#3","ticks":3390,"time":14.868427,"velocity":0.7716535433070866},{"duration":0.06578949999999928,"durationTicks":15,"midi":63,"name":"D#4","ticks":3451,"time":15.135970966666667,"velocity":0.8740157480314961},{"duration":0.07456143333333287,"durationTicks":17,"midi":70,"name":"A#4","ticks":3451,"time":15.135970966666667,"velocity":0.8818897637795275},{"duration":0.035087733333332594,"durationTicks":8,"midi":55,"name":"G3","ticks":3452,"time":15.140356933333333,"velocity":0.7165354330708661},{"duration":0.04824563333333565,"durationTicks":11,"midi":53,"name":"F3","ticks":3460,"time":15.175444666666666,"velocity":0.4094488188976378},{"duration":0.035087733333332594,"durationTicks":8,"midi":39,"name":"D#2","ticks":3517,"time":15.425444766666667,"velocity":0.6850393700787402},{"duration":0.9649126666666668,"durationTicks":220,"midi":58,"name":"A#3","ticks":3518,"time":15.429830733333333,"velocity":0.8110236220472441},{"duration":0.09649126666666596,"durationTicks":22,"midi":46,"name":"A#2","ticks":3520,"time":15.438602666666666,"velocity":0.6377952755905512},{"duration":0.08771933333333415,"durationTicks":20,"midi":55,"name":"G3","ticks":3581,"time":15.706146633333333,"velocity":0.5669291338582677},{"duration":0.04385966666666796,"durationTicks":10,"midi":53,"name":"F3","ticks":3587,"time":15.732462433333334,"velocity":0.5669291338582677},{"duration":0.03508773333333437,"durationTicks":8,"midi":39,"name":"D#2","ticks":3647,"time":15.995620433333332,"velocity":0.5275590551181102},{"duration":0.10964916666666724,"durationTicks":25,"midi":46,"name":"A#2","ticks":3648,"time":16.0000064,"velocity":0.5669291338582677},{"duration":0.07894740000000056,"durationTicks":18,"midi":55,"name":"G3","ticks":3707,"time":16.258778433333333,"velocity":0.4645669291338583},{"duration":0.043859666666666186,"durationTicks":10,"midi":53,"name":"F3","ticks":3712,"time":16.280708266666668,"velocity":0.5511811023622047},{"duration":0.14035093333333037,"durationTicks":32,"midi":58,"name":"A#3","ticks":3772,"time":16.54386626666667,"velocity":0.6062992125984252},{"duration":0.052631600000001555,"durationTicks":12,"midi":39,"name":"D#2","ticks":3775,"time":16.557024166666665,"velocity":0.3937007874015748},{"duration":0.052631600000001555,"durationTicks":12,"midi":46,"name":"A#2","ticks":3776,"time":16.561410133333332,"velocity":0.47244094488188976},{"duration":0.10964916666666724,"durationTicks":25,"midi":56,"name":"G#3","ticks":3808,"time":16.701761066666666,"velocity":0.6614173228346457},{"duration":0.04824563333333387,"durationTicks":11,"midi":53,"name":"F3","ticks":3835,"time":16.820182166666665,"velocity":0.5590551181102362},{"duration":0.043859666666666186,"durationTicks":10,"midi":51,"name":"D#3","ticks":3838,"time":16.83334006666667,"velocity":0.5039370078740157},{"duration":0.11842109999999906,"durationTicks":27,"midi":58,"name":"A#3","ticks":3866,"time":16.956147133333335,"velocity":0.6850393700787402},{"duration":0.05701756666666569,"durationTicks":13,"midi":39,"name":"D#2","ticks":3892,"time":17.070182266666666,"velocity":0.5905511811023622},{"duration":0.052631600000001555,"durationTicks":12,"midi":46,"name":"A#2","ticks":3897,"time":17.0921121,"velocity":0.5748031496062992},{"duration":0.09649126666666419,"durationTicks":22,"midi":60,"name":"C4","ticks":3900,"time":17.10527,"velocity":0.5511811023622047},{"duration":0.07894740000000056,"durationTicks":18,"midi":56,"name":"G#3","ticks":3958,"time":17.359656066666666,"velocity":0.6771653543307087},{"duration":0.03508773333333437,"durationTicks":8,"midi":53,"name":"F3","ticks":3961,"time":17.372813966666666,"velocity":0.5511811023622047},{"duration":0.03508773333333437,"durationTicks":8,"midi":51,"name":"D#3","ticks":3962,"time":17.377199933333333,"velocity":0.5275590551181102},{"duration":0.1096491666666708,"durationTicks":25,"midi":58,"name":"A#3","ticks":4020,"time":17.631586,"velocity":0.7086614173228346},{"duration":0.04385966666666974,"durationTicks":10,"midi":39,"name":"D#2","ticks":4021,"time":17.635971966666666,"velocity":0.5669291338582677},{"duration":0.052631600000001555,"durationTicks":12,"midi":46,"name":"A#2","ticks":4023,"time":17.644743899999998,"velocity":0.5039370078740157},{"duration":0.13157899999999856,"durationTicks":30,"midi":56,"name":"G#3","ticks":4053,"time":17.7763229,"velocity":0.6456692913385826},{"duration":0.04824563333333742,"durationTicks":11,"midi":53,"name":"F3","ticks":4085,"time":17.91667383333333,"velocity":0.4645669291338583},{"duration":0.03508773333333437,"durationTicks":8,"midi":51,"name":"D#3","ticks":4088,"time":17.929831733333334,"velocity":0.4330708661417323},{"duration":0.13157899999999856,"durationTicks":30,"midi":58,"name":"A#3","ticks":4116,"time":18.0526388,"velocity":0.6614173228346457},{"duration":0.07017546666666874,"durationTicks":16,"midi":39,"name":"D#2","ticks":4136,"time":18.140358133333333,"velocity":0.5905511811023622},{"duration":0.052631600000001555,"durationTicks":12,"midi":46,"name":"A#2","ticks":4142,"time":18.166673933333332,"velocity":0.5275590551181102},{"duration":0.10087723333333543,"durationTicks":23,"midi":59,"name":"B3","ticks":4145,"time":18.17983183333333,"velocity":0.6614173228346457},{"duration":0.08771933333333592,"durationTicks":20,"midi":51,"name":"D#3","ticks":4206,"time":18.4473758,"velocity":0.6535433070866141},{"duration":0.09649126666666419,"durationTicks":22,"midi":56,"name":"G#3","ticks":4208,"time":18.456147733333335,"velocity":0.7559055118110236},{"duration":0.15350883333333343,"durationTicks":35,"midi":58,"name":"A#3","ticks":4266,"time":18.7105338,"velocity":0.7874015748031497},{"duration":0.12280706666666319,"durationTicks":28,"midi":46,"name":"A#2","ticks":4268,"time":18.719305733333336,"velocity":0.7244094488188977},{"duration":0.2675439666666648,"durationTicks":61,"midi":43,"name":"G2","ticks":4302,"time":18.8684286,"velocity":0.6299212598425197},{"duration":0.23245623333333043,"durationTicks":53,"midi":55,"name":"G3","ticks":4302,"time":18.8684286,"velocity":0.7795275590551181},{"duration":0.1228070666666703,"durationTicks":28,"midi":53,"name":"F3","ticks":4360,"time":19.122814666666667,"velocity":0.7874015748031497},{"duration":0.05701756666666569,"durationTicks":13,"midi":41,"name":"F2","ticks":4361,"time":19.127200633333334,"velocity":0.6929133858267716},{"duration":0.14473689999999806,"durationTicks":33,"midi":51,"name":"D#3","ticks":4393,"time":19.26755156666667,"velocity":0.8031496062992126},{"duration":0.10087723333333543,"durationTicks":23,"midi":39,"name":"D#2","ticks":4395,"time":19.2763235,"velocity":0.7716535433070866},{"duration":0.09210530000000006,"durationTicks":21,"midi":50,"name":"D3","ticks":4456,"time":19.543867466666665,"velocity":0.8188976377952756},{"duration":0.07894740000000056,"durationTicks":18,"midi":38,"name":"D2","ticks":4457,"time":19.548253433333333,"velocity":0.7480314960629921},{"duration":0.10087723333333543,"durationTicks":23,"midi":36,"name":"C2","ticks":4520,"time":19.824569333333333,"velocity":0.7559055118110236},{"duration":0.09210530000000006,"durationTicks":21,"midi":48,"name":"C3","ticks":4521,"time":19.8289553,"velocity":0.9291338582677166},{"duration":0.11403513333332782,"durationTicks":26,"midi":43,"name":"G2","ticks":4583,"time":20.100885233333337,"velocity":0.8267716535433071},{"duration":0.08771933333333237,"durationTicks":20,"midi":31,"name":"G1","ticks":4585,"time":20.10965716666667,"velocity":0.6692913385826772},{"duration":0.03508773333333082,"durationTicks":8,"midi":33,"name":"A1","ticks":4588,"time":20.122815066666668,"velocity":0.5984251968503937},{"duration":0.13596496666666624,"durationTicks":31,"midi":48,"name":"C3","ticks":4647,"time":20.3815871,"velocity":0.905511811023622},{"duration":0.10964916666666724,"durationTicks":25,"midi":36,"name":"C2","ticks":4648,"time":20.38597306666667,"velocity":0.8031496062992126},{"duration":0.07456143333333287,"durationTicks":17,"midi":50,"name":"D3","ticks":4708,"time":20.649131066666666,"velocity":0.8503937007874016},{"duration":0.07894740000000056,"durationTicks":18,"midi":38,"name":"D2","ticks":4711,"time":20.662288966666665,"velocity":0.7637795275590551},{"duration":0.1578948000000011,"durationTicks":36,"midi":70,"name":"A#4","ticks":4775,"time":20.942990833333333,"velocity":1},{"duration":0.07017546666666874,"durationTicks":16,"midi":46,"name":"A#2","ticks":4776,"time":20.947376799999997,"velocity":0.8582677165354331},{"duration":0.030701766666670238,"durationTicks":7,"midi":39,"name":"D#2","ticks":4777,"time":20.951762766666665,"velocity":0.7952755905511811},{"duration":0.1622807666666688,"durationTicks":37,"midi":68,"name":"G#4","ticks":4801,"time":21.057025966666668,"velocity":0.7401574803149606},{"duration":0.1754386666666683,"durationTicks":40,"midi":63,"name":"D#4","ticks":4828,"time":21.175447066666667,"velocity":0.6850393700787402},{"duration":0.14035093333333037,"durationTicks":32,"midi":59,"name":"B3","ticks":4835,"time":21.206148833333334,"velocity":0.7401574803149606},{"duration":0.07456143333333287,"durationTicks":17,"midi":56,"name":"G#3","ticks":4843,"time":21.241236566666668,"velocity":0.7952755905511811},{"duration":0.043859666666666186,"durationTicks":10,"midi":53,"name":"F3","ticks":4851,"time":21.2763243,"velocity":0.6062992125984252},{"duration":0.03508773333333082,"durationTicks":8,"midi":52,"name":"E3","ticks":4855,"time":21.29386816666667,"velocity":0.2125984251968504},{"duration":0.10964916666666369,"durationTicks":25,"midi":70,"name":"A#4","ticks":4872,"time":21.368429600000002,"velocity":0.8503937007874016},{"duration":0.12280706666666674,"durationTicks":28,"midi":65,"name":"F4","ticks":4903,"time":21.50439456666667,"velocity":0.8188976377952756},{"duration":0.078947399999997,"durationTicks":18,"midi":39,"name":"D#2","ticks":4906,"time":21.517552466666668,"velocity":0.889763779527559},{"duration":0.04824563333333387,"durationTicks":11,"midi":46,"name":"A#2","ticks":4911,"time":21.5394823,"velocity":0.6535433070866141},{"duration":0.11842110000000261,"durationTicks":27,"midi":70,"name":"A#4","ticks":4966,"time":21.780710466666665,"velocity":0.9212598425196851},{"duration":0.07456143333333287,"durationTicks":17,"midi":56,"name":"G#3","ticks":4967,"time":21.785096433333333,"velocity":0.84251968503937},{"duration":0.06578950000000106,"durationTicks":15,"midi":59,"name":"B3","ticks":4970,"time":21.798254333333333,"velocity":0.8503937007874016},{"duration":0.08771933333333592,"durationTicks":20,"midi":63,"name":"D#4","ticks":4970,"time":21.798254333333333,"velocity":0.84251968503937},{"duration":0.052631599999998,"durationTicks":12,"midi":52,"name":"E3","ticks":4971,"time":21.8026403,"velocity":0.4645669291338583},{"duration":0.03508773333333082,"durationTicks":8,"midi":53,"name":"F3","ticks":4973,"time":21.811412233333336,"velocity":0.6062992125984252},{"duration":0.09210530000000006,"durationTicks":21,"midi":68,"name":"G#4","ticks":5030,"time":22.061412333333333,"velocity":0.9448818897637795},{"duration":0.03508773333333437,"durationTicks":8,"midi":39,"name":"D#2","ticks":5032,"time":22.070184266666665,"velocity":0.7716535433070866},{"duration":0.06578950000000106,"durationTicks":15,"midi":46,"name":"A#2","ticks":5035,"time":22.083342166666668,"velocity":0.7480314960629921},{"duration":0.1447369000000016,"durationTicks":33,"midi":65,"name":"F4","ticks":5065,"time":22.214921166666667,"velocity":0.7874015748031497},{"duration":0.08771933333333592,"durationTicks":20,"midi":56,"name":"G#3","ticks":5092,"time":22.333342266666666,"velocity":0.8031496062992126},{"duration":0.05701756666666569,"durationTicks":13,"midi":53,"name":"F3","ticks":5095,"time":22.34650016666667,"velocity":0.7637795275590551},{"duration":0.030701766666663133,"durationTicks":7,"midi":59,"name":"B3","ticks":5095,"time":22.34650016666667,"velocity":0.6771653543307087},{"duration":0.03508773333333082,"durationTicks":8,"midi":54,"name":"F#3","ticks":5098,"time":22.359658066666668,"velocity":0.29133858267716534},{"duration":0.09210530000000006,"durationTicks":21,"midi":63,"name":"D#4","ticks":5128,"time":22.491237066666667,"velocity":0.9133858267716536},{"duration":0.0657894999999975,"durationTicks":15,"midi":39,"name":"D#2","ticks":5158,"time":22.62281606666667,"velocity":0.8188976377952756},{"duration":0.030701766666666686,"durationTicks":7,"midi":46,"name":"A#2","ticks":5161,"time":22.63597396666667,"velocity":0.7401574803149606},{"duration":0.11842109999999906,"durationTicks":27,"midi":59,"name":"B3","ticks":5161,"time":22.63597396666667,"velocity":0.905511811023622},{"duration":0.052631599999998,"durationTicks":12,"midi":56,"name":"G#3","ticks":5223,"time":22.9079039,"velocity":0.8031496062992126},{"duration":0.030701766666666686,"durationTicks":7,"midi":59,"name":"B3","ticks":5223,"time":22.9079039,"velocity":0.6692913385826772},{"duration":0.10964916666666724,"durationTicks":25,"midi":63,"name":"D#4","ticks":5223,"time":22.9079039,"velocity":0.9291338582677166},{"duration":0.04385966666666974,"durationTicks":10,"midi":52,"name":"E3","ticks":5233,"time":22.951763566666667,"velocity":0.2047244094488189},{"duration":0.07456143333333642,"durationTicks":17,"midi":58,"name":"A#3","ticks":5286,"time":23.184219799999997,"velocity":0.9921259842519685},{"duration":0.026315799999999,"durationTicks":6,"midi":39,"name":"D#2","ticks":5290,"time":23.20176366666667,"velocity":0.8188976377952756},{"duration":0.07456143333333287,"durationTicks":17,"midi":46,"name":"A#2","ticks":5290,"time":23.20176366666667,"velocity":0.7952755905511811},{"duration":0.2017544666666673,"durationTicks":46,"midi":58,"name":"A#3","ticks":5318,"time":23.324570733333335,"velocity":0.889763779527559},{"duration":0.06578950000000106,"durationTicks":15,"midi":55,"name":"G3","ticks":5352,"time":23.4736936,"velocity":0.7716535433070866},{"duration":0.03508773333333792,"durationTicks":8,"midi":53,"name":"F3","ticks":5357,"time":23.495623433333332,"velocity":0.6771653543307087},{"duration":0.07456143333333287,"durationTicks":17,"midi":60,"name":"C4","ticks":5382,"time":23.6052726,"velocity":0.8188976377952756},{"duration":0.11403513333333137,"durationTicks":26,"midi":58,"name":"A#3","ticks":5413,"time":23.74123756666667,"velocity":0.84251968503937},{"duration":0.030701766666670238,"durationTicks":7,"midi":39,"name":"D#2","ticks":5416,"time":23.754395466666665,"velocity":0.7480314960629921},{"duration":0.03508773333333437,"durationTicks":8,"midi":46,"name":"A#2","ticks":5418,"time":23.7631674,"velocity":0.6456692913385826},{"duration":0.10087723333333187,"durationTicks":23,"midi":70,"name":"A#4","ticks":5473,"time":24.004395566666666,"velocity":1},{"duration":0.07894740000000056,"durationTicks":18,"midi":63,"name":"D#4","ticks":5476,"time":24.017553466666666,"velocity":0.7874015748031497},{"duration":0.07017546666666519,"durationTicks":16,"midi":55,"name":"G3","ticks":5478,"time":24.0263254,"velocity":0.7874015748031497},{"duration":0.04385966666666974,"durationTicks":10,"midi":64,"name":"E4","ticks":5482,"time":24.043869266666665,"velocity":0.49606299212598426},{"duration":0.030701766666670238,"durationTicks":7,"midi":53,"name":"F3","ticks":5482,"time":24.043869266666665,"velocity":0.7165354330708661},{"duration":0.9649126666666668,"durationTicks":220,"midi":58,"name":"A#3","ticks":5542,"time":24.307027266666665,"velocity":0.9212598425196851},{"duration":0.026315799999999,"durationTicks":6,"midi":39,"name":"D#2","ticks":5545,"time":24.32018516666667,"velocity":0.7322834645669292},{"duration":0.03508773333333082,"durationTicks":8,"midi":46,"name":"A#2","ticks":5548,"time":24.333343066666668,"velocity":0.6062992125984252},{"duration":0.07456143333333287,"durationTicks":17,"midi":55,"name":"G3","ticks":5606,"time":24.587729133333333,"velocity":0.6299212598425197},{"duration":0.03508773333333437,"durationTicks":8,"midi":53,"name":"F3","ticks":5611,"time":24.609658966666668,"velocity":0.6377952755905512},{"duration":0.03508773333333792,"durationTicks":8,"midi":39,"name":"D#2","ticks":5671,"time":24.872816966666665,"velocity":0.7086614173228346},{"duration":0.05701756666666569,"durationTicks":13,"midi":46,"name":"A#2","ticks":5676,"time":24.8947468,"velocity":0.5354330708661418},{"duration":0.07456143333333642,"durationTicks":17,"midi":55,"name":"G3","ticks":5737,"time":25.162290766666665,"velocity":0.5354330708661418},{"duration":0.052631600000001555,"durationTicks":12,"midi":53,"name":"F3","ticks":5743,"time":25.188606566666667,"velocity":0.48031496062992124},{"duration":0.07894740000000056,"durationTicks":18,"midi":58,"name":"A#3","ticks":5795,"time":25.416676833333334,"velocity":0.7086614173228346},{"duration":0.04385966666666263,"durationTicks":10,"midi":42,"name":"F#2","ticks":5798,"time":25.429834733333337,"velocity":0.6062992125984252},{"duration":0.03508773333333082,"durationTicks":8,"midi":49,"name":"C#3","ticks":5801,"time":25.442992633333336,"velocity":0.5748031496062992},{"duration":0.15350883333333343,"durationTicks":35,"midi":58,"name":"A#3","ticks":5833,"time":25.583343566666667,"velocity":0.5748031496062992},{"duration":0.07456143333333287,"durationTicks":17,"midi":54,"name":"F#3","ticks":5863,"time":25.71492256666667,"velocity":0.5118110236220472},{"duration":0.03508773333333437,"durationTicks":8,"midi":56,"name":"G#3","ticks":5865,"time":25.7236945,"velocity":0.4881889763779528},{"duration":0.09210530000000006,"durationTicks":21,"midi":60,"name":"C4","ticks":5896,"time":25.859659466666667,"velocity":0.5669291338582677},{"duration":0.04385966666666974,"durationTicks":10,"midi":42,"name":"F#2","ticks":5926,"time":25.991238466666665,"velocity":0.6614173228346457},{"duration":0.09210530000000361,"durationTicks":21,"midi":58,"name":"A#3","ticks":5927,"time":25.995624433333333,"velocity":0.7244094488188977},{"duration":0.08771933333333592,"durationTicks":20,"midi":61,"name":"C#4","ticks":5991,"time":26.276326299999997,"velocity":0.6771653543307087},{"duration":0.04824563333333387,"durationTicks":11,"midi":54,"name":"F#3","ticks":5992,"time":26.280712266666665,"velocity":0.5984251968503937},{"duration":0.04385966666666263,"durationTicks":10,"midi":57,"name":"A3","ticks":5996,"time":26.298256133333336,"velocity":0.36220472440944884},{"duration":0.07456143333333642,"durationTicks":17,"midi":42,"name":"F#2","ticks":6052,"time":26.543870266666666,"velocity":0.7322834645669292},{"duration":0.11403513333332782,"durationTicks":26,"midi":63,"name":"D#4","ticks":6053,"time":26.548256233333337,"velocity":0.7165354330708661},{"duration":0.05263159999999445,"durationTicks":12,"midi":58,"name":"A#3","ticks":6115,"time":26.82018616666667,"velocity":0.7322834645669292},{"duration":0.09210530000000006,"durationTicks":21,"midi":65,"name":"F4","ticks":6116,"time":26.824572133333334,"velocity":0.6614173228346457},{"duration":0.030701766666663133,"durationTicks":7,"midi":49,"name":"C#3","ticks":6118,"time":26.83334406666667,"velocity":0.6062992125984252},{"duration":0.03508773333333437,"durationTicks":8,"midi":54,"name":"F#3","ticks":6120,"time":26.842116,"velocity":0.5354330708661418},{"duration":0.07456143333333287,"durationTicks":17,"midi":42,"name":"F#2","ticks":6180,"time":27.105274,"velocity":0.7874015748031497},{"duration":0.10087723333333543,"durationTicks":23,"midi":63,"name":"D#4","ticks":6181,"time":27.109659966666666,"velocity":0.8110236220472441},{"duration":0.09210530000000006,"durationTicks":21,"midi":66,"name":"F#4","ticks":6242,"time":27.377203933333334,"velocity":0.8740157480314961},{"duration":0.030701766666666686,"durationTicks":7,"midi":59,"name":"B3","ticks":6242,"time":27.377203933333334,"velocity":0.7559055118110236},{"duration":0.07017546666666519,"durationTicks":16,"midi":65,"name":"F4","ticks":6302,"time":27.640361933333335,"velocity":0.8503937007874016},{"duration":0.20175446666666375,"durationTicks":46,"midi":65,"name":"F4","ticks":6333,"time":27.7763269,"velocity":0.7401574803149606},{"duration":0.09649126666666419,"durationTicks":22,"midi":61,"name":"C#4","ticks":6357,"time":27.8815901,"velocity":0.6141732283464567},{"duration":0.08771933333333237,"durationTicks":20,"midi":64,"name":"E4","ticks":6358,"time":27.885976066666668,"velocity":0.5590551181102362},{"duration":0.08771933333333592,"durationTicks":20,"midi":67,"name":"G4","ticks":6395,"time":28.048256833333333,"velocity":0.8188976377952756},{"duration":0.12280706666666674,"durationTicks":28,"midi":65,"name":"F4","ticks":6422,"time":28.166677933333332,"velocity":0.7716535433070866},{"duration":0.04824563333333387,"durationTicks":11,"midi":60,"name":"C4","ticks":6423,"time":28.1710639,"velocity":0.5984251968503937},{"duration":0.06578950000000106,"durationTicks":15,"midi":63,"name":"D#4","ticks":6423,"time":28.1710639,"velocity":0.6062992125984252},{"duration":0.06578950000000106,"durationTicks":15,"midi":67,"name":"G4","ticks":6485,"time":28.442993833333333,"velocity":0.8188976377952756},{"duration":0.08771933333333592,"durationTicks":20,"midi":74,"name":"D5","ticks":6486,"time":28.4473798,"velocity":0.7874015748031497},{"duration":0.04824563333333387,"durationTicks":11,"midi":53,"name":"F3","ticks":6486,"time":28.4473798,"velocity":0.7086614173228346},{"duration":0.026315799999999,"durationTicks":6,"midi":63,"name":"D#4","ticks":6488,"time":28.456151733333336,"velocity":0.5905511811023622},{"duration":0.03508773333333082,"durationTicks":8,"midi":57,"name":"A3","ticks":6488,"time":28.456151733333336,"velocity":0.6299212598425197},{"duration":0.06578950000000106,"durationTicks":15,"midi":58,"name":"A#3","ticks":6552,"time":28.7368536,"velocity":0.8582677165354331},{"duration":0.07456143333333287,"durationTicks":17,"midi":62,"name":"D4","ticks":6553,"time":28.741239566666668,"velocity":0.8818897637795275},{"duration":0.06578950000000106,"durationTicks":15,"midi":70,"name":"A#4","ticks":6553,"time":28.741239566666668,"velocity":0.9291338582677166},{"duration":0.07017546666666519,"durationTicks":16,"midi":46,"name":"A#2","ticks":6556,"time":28.754397466666667,"velocity":0.8503937007874016},{"duration":0.07894740000000056,"durationTicks":18,"midi":94,"name":"A#6","ticks":6685,"time":29.320187166666667,"velocity":0.9133858267716536},{"duration":0.06578950000000106,"durationTicks":15,"midi":82,"name":"A#5","ticks":6686,"time":29.324573133333335,"velocity":0.8582677165354331},{"duration":0.05701756666666569,"durationTicks":13,"midi":46,"name":"A#2","ticks":6687,"time":29.328959100000002,"velocity":0.8188976377952756},{"duration":0.03508773333333082,"durationTicks":8,"midi":34,"name":"A#1","ticks":6688,"time":29.333345066666666,"velocity":0.8031496062992126},{"duration":0.09649126666666774,"durationTicks":22,"midi":63,"name":"D#4","ticks":6812,"time":29.877204933333335,"velocity":0.6377952755905512},{"duration":0.04824563333333032,"durationTicks":11,"midi":58,"name":"A#3","ticks":6821,"time":29.916678633333333,"velocity":0.3228346456692913},{"duration":0.25438606666666885,"durationTicks":58,"midi":65,"name":"F4","ticks":6846,"time":30.026327799999997,"velocity":0.6299212598425197},{"duration":0.2280702666666663,"durationTicks":52,"midi":62,"name":"D4","ticks":6852,"time":30.0526436,"velocity":0.5433070866141733},{"duration":0.03508773333333082,"durationTicks":8,"midi":70,"name":"A#4","ticks":6881,"time":30.179836633333334,"velocity":0.6535433070866141},{"duration":0.030701766666663133,"durationTicks":7,"midi":68,"name":"G#4","ticks":6885,"time":30.1973805,"velocity":0.5590551181102362},{"duration":0.13157899999999856,"durationTicks":30,"midi":67,"name":"G4","ticks":6922,"time":30.359661266666667,"velocity":0.5590551181102362},{"duration":0.10964916666666369,"durationTicks":25,"midi":63,"name":"D#4","ticks":6923,"time":30.364047233333334,"velocity":0.6141732283464567},{"duration":0.1184210999999955,"durationTicks":27,"midi":65,"name":"F4","ticks":6938,"time":30.429836733333335,"velocity":0.48031496062992124},{"duration":0.030701766666663133,"durationTicks":7,"midi":56,"name":"G#3","ticks":6941,"time":30.442994633333335,"velocity":0.6062992125984252},{"duration":0.030701766666666686,"durationTicks":7,"midi":58,"name":"A#3","ticks":6943,"time":30.451766566666667,"velocity":0.5354330708661418},{"duration":0.10964916666666724,"durationTicks":25,"midi":62,"name":"D4","ticks":6945,"time":30.460538500000002,"velocity":0.5433070866141733},{"duration":0.12280706666666674,"durationTicks":28,"midi":63,"name":"D#4","ticks":7008,"time":30.7368544,"velocity":0.6456692913385826},{"duration":0.05701756666666924,"durationTicks":13,"midi":70,"name":"A#4","ticks":7011,"time":30.750012299999998,"velocity":0.5748031496062992},{"duration":0.04385966666666263,"durationTicks":10,"midi":68,"name":"G#4","ticks":7013,"time":30.758784233333337,"velocity":0.5669291338582677},{"duration":0.0921052999999965,"durationTicks":21,"midi":60,"name":"C4","ticks":7013,"time":30.758784233333337,"velocity":0.5196850393700787},{"duration":0.043859666666666186,"durationTicks":10,"midi":56,"name":"G#3","ticks":7076,"time":31.035100133333334,"velocity":0.5905511811023622},{"duration":0.043859666666666186,"durationTicks":10,"midi":58,"name":"A#3","ticks":7083,"time":31.0658019,"velocity":0.3937007874015748},{"duration":0.13596496666666624,"durationTicks":31,"midi":65,"name":"F4","ticks":7083,"time":31.0658019,"velocity":0.5669291338582677},{"duration":0.09649126666666774,"durationTicks":22,"midi":62,"name":"D4","ticks":7086,"time":31.0789598,"velocity":0.6377952755905512},{"duration":0.08771933333333592,"durationTicks":20,"midi":70,"name":"A#4","ticks":7143,"time":31.3289599,"velocity":0.5669291338582677},{"duration":0.04385966666666974,"durationTicks":10,"midi":68,"name":"G#4","ticks":7147,"time":31.346503766666665,"velocity":0.5354330708661418},{"duration":0.09649126666666419,"durationTicks":22,"midi":94,"name":"A#6","ticks":7211,"time":31.627205633333336,"velocity":0.6456692913385826},{"duration":0.052631600000001555,"durationTicks":12,"midi":56,"name":"G#3","ticks":7213,"time":31.635977566666668,"velocity":0.3464566929133858},{"duration":0.05701756666666569,"durationTicks":13,"midi":82,"name":"A#5","ticks":7216,"time":31.649135466666667,"velocity":0.5669291338582677},{"duration":0.05701756666666924,"durationTicks":13,"midi":70,"name":"A#4","ticks":7272,"time":31.8947496,"velocity":0.5984251968503937},{"duration":0.04824563333333032,"durationTicks":11,"midi":55,"name":"G3","ticks":7343,"time":32.20615323333334,"velocity":0.4251968503937008},{"duration":0.04385966666666263,"durationTicks":10,"midi":63,"name":"D#4","ticks":7346,"time":32.219311133333335,"velocity":0.5748031496062992},{"duration":0.05701756666666569,"durationTicks":13,"midi":58,"name":"A#3","ticks":7347,"time":32.2236971,"velocity":0.5275590551181102},{"duration":0.06578949999999395,"durationTicks":15,"midi":60,"name":"C4","ticks":7348,"time":32.22808306666667,"velocity":0.49606299212598426},{"duration":0.25438606666666175,"durationTicks":58,"midi":65,"name":"F4","ticks":7382,"time":32.377205933333336,"velocity":0.5354330708661418},{"duration":0.23245623333333754,"durationTicks":53,"midi":62,"name":"D4","ticks":7386,"time":32.3947498,"velocity":0.6299212598425197},{"duration":0.08771933333333237,"durationTicks":20,"midi":70,"name":"A#4","ticks":7410,"time":32.500013,"velocity":0.6850393700787402},{"duration":0.05701756666667279,"durationTicks":13,"midi":67,"name":"G4","ticks":7417,"time":32.53071476666666,"velocity":0.44881889763779526},{"duration":0.20614043333333143,"durationTicks":47,"midi":67,"name":"G4","ticks":7452,"time":32.6842236,"velocity":0.5433070866141733},{"duration":0.05701756666666569,"durationTicks":13,"midi":63,"name":"D#4","ticks":7456,"time":32.70176746666667,"velocity":0.4645669291338583},{"duration":0.1359649666666698,"durationTicks":31,"midi":62,"name":"D4","ticks":7475,"time":32.78510083333333,"velocity":0.5984251968503937},{"duration":0.12280706666666674,"durationTicks":28,"midi":65,"name":"F4","ticks":7476,"time":32.7894868,"velocity":0.47244094488188976},{"duration":0.04385966666666263,"durationTicks":10,"midi":58,"name":"A#3","ticks":7478,"time":32.798258733333334,"velocity":0.4330708661417323},{"duration":0.03070176666665958,"durationTicks":7,"midi":55,"name":"G3","ticks":7481,"time":32.81141663333334,"velocity":0.2047244094488189},{"duration":0.06578950000000106,"durationTicks":15,"midi":70,"name":"A#4","ticks":7540,"time":33.07018866666667,"velocity":0.5590551181102362},{"duration":0.1622807666666688,"durationTicks":37,"midi":63,"name":"D#4","ticks":7541,"time":33.074574633333334,"velocity":0.6456692913385826},{"duration":0.11842109999999906,"durationTicks":27,"midi":60,"name":"C4","ticks":7546,"time":33.096504466666666,"velocity":0.49606299212598426},{"duration":0.04385966666666974,"durationTicks":10,"midi":67,"name":"G4","ticks":7547,"time":33.10089043333333,"velocity":0.47244094488188976},{"duration":0.1842106000000001,"durationTicks":42,"midi":65,"name":"F4","ticks":7606,"time":33.35966246666667,"velocity":0.6456692913385826},{"duration":0.04385966666666974,"durationTicks":10,"midi":58,"name":"A#3","ticks":7607,"time":33.36404843333333,"velocity":0.4645669291338583},{"duration":0.14035093333333748,"durationTicks":32,"midi":62,"name":"D4","ticks":7607,"time":33.36404843333333,"velocity":0.7165354330708661},{"duration":0.25438606666666885,"durationTicks":58,"midi":63,"name":"D#4","ticks":7667,"time":33.627206433333335,"velocity":0.7401574803149606},{"duration":0.05701756666667279,"durationTicks":13,"midi":67,"name":"G4","ticks":7670,"time":33.64036433333333,"velocity":0.5984251968503937},{"duration":0.2938597666666638,"durationTicks":67,"midi":60,"name":"C4","ticks":7673,"time":33.653522233333334,"velocity":0.5511811023622047},{"duration":0.09649126666666774,"durationTicks":22,"midi":65,"name":"F4","ticks":7733,"time":33.91668023333333,"velocity":0.6220472440944882},{"duration":0.05263160000000511,"durationTicks":12,"midi":62,"name":"D4","ticks":7733,"time":33.91668023333333,"velocity":0.7322834645669292},{"duration":0.07017546666666163,"durationTicks":16,"midi":55,"name":"G3","ticks":7736,"time":33.929838133333334,"velocity":0.6299212598425197},{"duration":0.10964916666666369,"durationTicks":25,"midi":58,"name":"A#3","ticks":7738,"time":33.93861006666667,"velocity":0.5669291338582677},{"duration":0.03508773333333437,"durationTicks":8,"midi":63,"name":"D#4","ticks":7797,"time":34.1973821,"velocity":0.6614173228346457},{"duration":0.030701766666666686,"durationTicks":7,"midi":70,"name":"A#4","ticks":7798,"time":34.201768066666666,"velocity":0.6062992125984252},{"duration":0.030701766666666686,"durationTicks":7,"midi":67,"name":"G4","ticks":7800,"time":34.21054,"velocity":0.5905511811023622},{"duration":0.04385966666666263,"durationTicks":10,"midi":72,"name":"C5","ticks":7801,"time":34.21492596666667,"velocity":0.47244094488188976},{"duration":0.04385966666666974,"durationTicks":10,"midi":74,"name":"D5","ticks":7802,"time":34.21931193333333,"velocity":0.2677165354330709},{"duration":2.0877201333333346,"durationTicks":476,"midi":63,"name":"D#4","ticks":7871,"time":34.521943633333336,"velocity":0.6299212598425197},{"duration":0.17543866666667185,"durationTicks":40,"midi":46,"name":"A#2","ticks":7872,"time":34.5263296,"velocity":0.6141732283464567},{"duration":2.0614043333333285,"durationTicks":470,"midi":56,"name":"G#3","ticks":7876,"time":34.54387346666667,"velocity":0.6850393700787402},{"duration":2.0614043333333285,"durationTicks":470,"midi":60,"name":"C4","ticks":7880,"time":34.56141733333334,"velocity":0.5433070866141733},{"duration":0.20175446666667085,"durationTicks":46,"midi":48,"name":"C3","ticks":7915,"time":34.714926166666665,"velocity":0.4881889763779528},{"duration":0.1359649666666627,"durationTicks":31,"midi":50,"name":"D3","ticks":7972,"time":34.964926266666666,"velocity":0.5511811023622047},{"duration":0.12280706666666674,"durationTicks":28,"midi":48,"name":"C3","ticks":8002,"time":35.09650526666667,"velocity":0.4881889763779528},{"duration":0.05701756666666569,"durationTicks":13,"midi":46,"name":"A#2","ticks":8070,"time":35.394751,"velocity":0.5118110236220472},{"duration":0.14473690000000516,"durationTicks":33,"midi":46,"name":"A#2","ticks":8132,"time":35.66668093333333,"velocity":0.5669291338582677},{"duration":0.1885965666666607,"durationTicks":43,"midi":48,"name":"C3","ticks":8176,"time":35.85966346666667,"velocity":0.31496062992125984},{"duration":0.11842109999999906,"durationTicks":27,"midi":50,"name":"D3","ticks":8232,"time":36.1052776,"velocity":0.48031496062992124},{"duration":0.09649126666666064,"durationTicks":22,"midi":48,"name":"C3","ticks":8268,"time":36.2631724,"velocity":0.44881889763779526},{"duration":0.07456143333332932,"durationTicks":17,"midi":46,"name":"A#2","ticks":8328,"time":36.526330400000006,"velocity":0.44881889763779526},{"duration":0.9342108999999965,"durationTicks":213,"midi":63,"name":"D#4","ticks":8401,"time":36.84650596666667,"velocity":0.4645669291338583},{"duration":0.10087723333332832,"durationTicks":23,"midi":46,"name":"A#2","ticks":8402,"time":36.85089193333334,"velocity":0.41732283464566927},{"duration":0.9342108999999965,"durationTicks":213,"midi":60,"name":"C4","ticks":8403,"time":36.855277900000004,"velocity":0.44881889763779526},{"duration":0.9473687999999996,"durationTicks":216,"midi":55,"name":"G3","ticks":8406,"time":36.8684358,"velocity":0.4330708661417323},{"duration":0.27631589999999306,"durationTicks":63,"midi":48,"name":"C3","ticks":8437,"time":37.00440076666667,"velocity":0.3937007874015748},{"duration":0.11842109999999906,"durationTicks":27,"midi":50,"name":"D3","ticks":8508,"time":37.315804400000005,"velocity":0.4881889763779528},{"duration":0.1885965666666607,"durationTicks":43,"midi":48,"name":"C3","ticks":8538,"time":37.44738340000001,"velocity":0.4330708661417323},{"duration":0.05263160000000511,"durationTicks":12,"midi":46,"name":"A#2","ticks":8605,"time":37.74124316666666,"velocity":0.4645669291338583},{"duration":0.09649126666666064,"durationTicks":22,"midi":46,"name":"A#2","ticks":8716,"time":38.22808546666667,"velocity":0.84251968503937},{"duration":0.07456143333332932,"durationTicks":17,"midi":34,"name":"A#1","ticks":8718,"time":38.236857400000005,"velocity":0.7401574803149606},{"duration":0.1315790000000021,"durationTicks":30,"midi":48,"name":"C3","ticks":8746,"time":38.35966446666667,"velocity":0.8346456692913385},{"duration":0.09649126666666774,"durationTicks":22,"midi":36,"name":"C2","ticks":8748,"time":38.3684364,"velocity":0.6377952755905512},{"duration":0.16666673333332938,"durationTicks":38,"midi":38,"name":"D2","ticks":8771,"time":38.469313633333336,"velocity":0.6456692913385826},{"duration":0.14035093333333037,"durationTicks":32,"midi":50,"name":"D3","ticks":8780,"time":38.50878733333334,"velocity":0.8267716535433071},{"duration":0.08771933333333237,"durationTicks":20,"midi":36,"name":"C2","ticks":8801,"time":38.60089263333334,"velocity":0.7716535433070866},{"duration":0.15350883333333343,"durationTicks":35,"midi":48,"name":"C3","ticks":8805,"time":38.6184365,"velocity":0.8267716535433071},{"duration":0.078947399999997,"durationTicks":18,"midi":46,"name":"A#2","ticks":8863,"time":38.87282256666667,"velocity":0.9448818897637795},{"duration":0.05701756666666569,"durationTicks":13,"midi":34,"name":"A#1","ticks":8867,"time":38.890366433333334,"velocity":1},{"duration":0.02192983333332421,"durationTicks":5,"midi":22,"name":"A#0","ticks":8870,"time":38.90352433333334,"velocity":0.84251968503937},{"duration":0.04385966666666263,"durationTicks":10,"midi":25,"name":"C#1","ticks":8876,"time":38.929840133333336,"velocity":0.47244094488188976},{"duration":0.15350883333332632,"durationTicks":35,"midi":63,"name":"D#4","ticks":8943,"time":39.22369990000001,"velocity":0.7401574803149606},{"duration":0.1315790000000021,"durationTicks":30,"midi":60,"name":"C4","ticks":8946,"time":39.236857799999996,"velocity":0.5905511811023622},{"duration":0.04824563333333032,"durationTicks":11,"midi":58,"name":"A#3","ticks":8947,"time":39.24124376666667,"velocity":0.6141732283464567},{"duration":0.09210530000000006,"durationTicks":21,"midi":56,"name":"G#3","ticks":8947,"time":39.24124376666667,"velocity":0.6377952755905512},{"duration":0.2412281666666729,"durationTicks":55,"midi":65,"name":"F4","ticks":8980,"time":39.38598066666666,"velocity":0.6377952755905512},{"duration":0.22807026666666985,"durationTicks":52,"midi":62,"name":"D4","ticks":8983,"time":39.399138566666664,"velocity":0.6850393700787402},{"duration":0.04385966666666263,"durationTicks":10,"midi":70,"name":"A#4","ticks":9015,"time":39.5394895,"velocity":0.5748031496062992},{"duration":0.05701756666665858,"durationTicks":13,"midi":68,"name":"G#4","ticks":9016,"time":39.54387546666667,"velocity":0.6062992125984252},{"duration":0.1622807666666688,"durationTicks":37,"midi":67,"name":"G4","ticks":9045,"time":39.6710685,"velocity":0.5905511811023622},{"duration":0.043859666666676844,"durationTicks":10,"midi":63,"name":"D#4","ticks":9051,"time":39.697384299999996,"velocity":0.6141732283464567},{"duration":0.14473689999999806,"durationTicks":33,"midi":65,"name":"F4","ticks":9065,"time":39.758787833333336,"velocity":0.47244094488188976},{"duration":0.11842109999999906,"durationTicks":27,"midi":62,"name":"D4","ticks":9071,"time":39.785103633333335,"velocity":0.5354330708661418},{"duration":0.03070176666665958,"durationTicks":7,"midi":56,"name":"G#3","ticks":9076,"time":39.807033466666674,"velocity":0.6062992125984252},{"duration":0.03508773333333437,"durationTicks":8,"midi":58,"name":"A#3","ticks":9081,"time":39.8289633,"velocity":0.4645669291338583},{"duration":0.1359649666666627,"durationTicks":31,"midi":63,"name":"D#4","ticks":9136,"time":40.07019146666667,"velocity":0.6062992125984252},{"duration":0.052631599999998,"durationTicks":12,"midi":68,"name":"G#4","ticks":9140,"time":40.087735333333335,"velocity":0.5748031496062992},{"duration":0.07456143333332932,"durationTicks":17,"midi":60,"name":"C4","ticks":9142,"time":40.09650726666667,"velocity":0.44881889763779526},{"duration":0.1096491666666708,"durationTicks":25,"midi":56,"name":"G#3","ticks":9201,"time":40.3552793,"velocity":0.5354330708661418},{"duration":0.1096491666666708,"durationTicks":25,"midi":65,"name":"F4","ticks":9207,"time":40.3815951,"velocity":0.5196850393700787},{"duration":0.09649126666666774,"durationTicks":22,"midi":62,"name":"D4","ticks":9208,"time":40.385981066666666,"velocity":0.6614173228346457},{"duration":0.04824563333333032,"durationTicks":11,"midi":58,"name":"A#3","ticks":9210,"time":40.394753,"velocity":0.4645669291338583},{"duration":0.11842109999999906,"durationTicks":27,"midi":70,"name":"A#4","ticks":9273,"time":40.6710689,"velocity":0.5196850393700787},{"duration":0.1096491666666708,"durationTicks":25,"midi":68,"name":"G#4","ticks":9276,"time":40.6842268,"velocity":0.4645669291338583},{"duration":0.08771933333333237,"durationTicks":20,"midi":94,"name":"A#6","ticks":9343,"time":40.97808656666667,"velocity":0.6614173228346457},{"duration":0.07456143333332932,"durationTicks":17,"midi":82,"name":"A#5","ticks":9346,"time":40.99124446666667,"velocity":0.5354330708661418},{"duration":0.052631599999998,"durationTicks":12,"midi":56,"name":"G#3","ticks":9350,"time":41.008788333333335,"velocity":0.18110236220472442},{"duration":0.05701756666666569,"durationTicks":13,"midi":58,"name":"A#3","ticks":9352,"time":41.01756026666667,"velocity":0.3858267716535433},{"duration":0.08771933333333237,"durationTicks":20,"midi":70,"name":"A#4","ticks":9402,"time":41.2368586,"velocity":0.6535433070866141},{"duration":0.0526315999999909,"durationTicks":12,"midi":55,"name":"G3","ticks":9472,"time":41.54387626666667,"velocity":0.5433070866141733},{"duration":0.11842110000000616,"durationTicks":27,"midi":63,"name":"D#4","ticks":9473,"time":41.54826223333333,"velocity":0.7007874015748031},{"duration":0.04824563333333032,"durationTicks":11,"midi":58,"name":"A#3","ticks":9478,"time":41.57019206666667,"velocity":0.4881889763779528},{"duration":0.06578949999999395,"durationTicks":15,"midi":60,"name":"C4","ticks":9481,"time":41.583349966666674,"velocity":0.5669291338582677},{"duration":0.2412281666666587,"durationTicks":55,"midi":65,"name":"F4","ticks":9512,"time":41.71931493333334,"velocity":0.6220472440944882},{"duration":0.2631579999999971,"durationTicks":60,"midi":62,"name":"D4","ticks":9513,"time":41.723700900000004,"velocity":0.7165354330708661},{"duration":0.07456143333332932,"durationTicks":17,"midi":70,"name":"A#4","ticks":9538,"time":41.83335006666667,"velocity":0.8031496062992126},{"duration":0.05701756666666569,"durationTicks":13,"midi":67,"name":"G4","ticks":9547,"time":41.87282376666667,"velocity":0.33858267716535434},{"duration":0.1578948000000011,"durationTicks":36,"midi":67,"name":"G4","ticks":9575,"time":41.99563083333334,"velocity":0.44881889763779526},{"duration":0.09210530000000716,"durationTicks":21,"midi":63,"name":"D#4","ticks":9582,"time":42.026332599999996,"velocity":0.6299212598425197},{"duration":0.17543866666667185,"durationTicks":40,"midi":65,"name":"F4","ticks":9595,"time":42.08335016666666,"velocity":0.5984251968503937},{"duration":0.131578999999995,"durationTicks":30,"midi":62,"name":"D4","ticks":9602,"time":42.114051933333336,"velocity":0.6062992125984252},{"duration":0.04385966666666263,"durationTicks":10,"midi":58,"name":"A#3","ticks":9605,"time":42.12720983333334,"velocity":0.49606299212598426},{"duration":0.04385966666666974,"durationTicks":10,"midi":55,"name":"G3","ticks":9608,"time":42.140367733333335,"velocity":0.3464566929133858},{"duration":0.20614043333333143,"durationTicks":47,"midi":63,"name":"D#4","ticks":9665,"time":42.390367833333336,"velocity":0.7322834645669292},{"duration":0.03508773333333437,"durationTicks":8,"midi":70,"name":"A#4","ticks":9666,"time":42.3947538,"velocity":0.5984251968503937},{"duration":0.14035093333333037,"durationTicks":32,"midi":60,"name":"C4","ticks":9667,"time":42.39913976666667,"velocity":0.6614173228346457},{"duration":0.04385966666666974,"durationTicks":10,"midi":67,"name":"G4","ticks":9670,"time":42.41229766666667,"velocity":0.5984251968503937},{"duration":0.030701766666666686,"durationTicks":7,"midi":55,"name":"G3","ticks":9730,"time":42.675455666666664,"velocity":0.6062992125984252},{"duration":0.04824563333333742,"durationTicks":11,"midi":58,"name":"A#3","ticks":9731,"time":42.67984163333333,"velocity":0.5039370078740157},{"duration":0.20614043333333143,"durationTicks":47,"midi":65,"name":"F4","ticks":9733,"time":42.68861356666667,"velocity":0.6771653543307087},{"duration":0.1622807666666688,"durationTicks":37,"midi":62,"name":"D4","ticks":9733,"time":42.68861356666667,"velocity":0.7716535433070866},{"duration":0.07456143333332932,"durationTicks":17,"midi":70,"name":"A#4","ticks":9788,"time":42.92984173333333,"velocity":0.6850393700787402},{"duration":0.2631580000000042,"durationTicks":60,"midi":63,"name":"D#4","ticks":9796,"time":42.96492946666667,"velocity":0.7874015748031497},{"duration":0.31140363333333454,"durationTicks":71,"midi":60,"name":"C4","ticks":9800,"time":42.98247333333334,"velocity":0.7165354330708661},{"duration":0.11842109999999906,"durationTicks":27,"midi":65,"name":"F4","ticks":9858,"time":43.2368594,"velocity":0.6692913385826772},{"duration":0.07456143333333642,"durationTicks":17,"midi":62,"name":"D4","ticks":9860,"time":43.245631333333336,"velocity":0.8031496062992126},{"duration":0.05701756666666569,"durationTicks":13,"midi":55,"name":"G3","ticks":9863,"time":43.25878923333333,"velocity":0.4566929133858268},{"duration":0.04385966666666974,"durationTicks":10,"midi":58,"name":"A#3","ticks":9864,"time":43.2631752,"velocity":0.4330708661417323},{"duration":0.05263160000000511,"durationTicks":12,"midi":70,"name":"A#4","ticks":9923,"time":43.52194723333333,"velocity":0.84251968503937},{"duration":0.03508773333333437,"durationTicks":8,"midi":72,"name":"C5","ticks":9926,"time":43.53510513333333,"velocity":0.6377952755905512},{"duration":0.03508773333333437,"durationTicks":8,"midi":67,"name":"G4","ticks":9928,"time":43.54387706666667,"velocity":0.5905511811023622},{"duration":0.030701766666666686,"durationTicks":7,"midi":63,"name":"D#4","ticks":9930,"time":43.552649,"velocity":0.6062992125984252},{"duration":0.15350883333333343,"durationTicks":35,"midi":58,"name":"A#3","ticks":9996,"time":43.8421228,"velocity":0.8740157480314961},{"duration":0.1842106000000001,"durationTicks":42,"midi":70,"name":"A#4","ticks":9997,"time":43.846508766666666,"velocity":0.8031496062992126},{"duration":0.25438606666666175,"durationTicks":58,"midi":82,"name":"A#5","ticks":9998,"time":43.850894733333334,"velocity":0.9212598425196851},{"duration":0.8771933333333308,"durationTicks":200,"midi":75,"name":"D#5","ticks":10001,"time":43.86405263333334,"velocity":0.8031496062992126},{"duration":0.9561407333333349,"durationTicks":218,"midi":63,"name":"D#4","ticks":10003,"time":43.872824566666665,"velocity":0.44881889763779526},{"duration":1.4078952999999998,"durationTicks":321,"midi":71,"name":"B4","ticks":10005,"time":43.8815965,"velocity":0.7086614173228346},{"duration":0.25438606666666885,"durationTicks":58,"midi":80,"name":"G#5","ticks":10031,"time":43.99563163333333,"velocity":0.6850393700787402},{"duration":1.127193433333332,"durationTicks":257,"midi":59,"name":"B3","ticks":10032,"time":44.0000176,"velocity":0.3937007874015748},{"duration":0.25438606666666175,"durationTicks":58,"midi":68,"name":"G#4","ticks":10032,"time":44.0000176,"velocity":0.7480314960629921},{"duration":0.16666673333332938,"durationTicks":38,"midi":70,"name":"A#4","ticks":10095,"time":44.2763335,"velocity":0.7086614173228346},{"duration":0.1842106000000001,"durationTicks":42,"midi":82,"name":"A#5","ticks":10096,"time":44.28071946666667,"velocity":0.8110236220472441},{"duration":0.28508783333333554,"durationTicks":65,"midi":77,"name":"F5","ticks":10122,"time":44.3947546,"velocity":0.7322834645669292},{"duration":0.2675439666666719,"durationTicks":61,"midi":65,"name":"F4","ticks":10125,"time":44.4079125,"velocity":0.6692913385826772},{"duration":0.14473690000000516,"durationTicks":33,"midi":82,"name":"A#5","ticks":10185,"time":44.6710705,"velocity":0.8818897637795275},{"duration":0.08771933333333237,"durationTicks":20,"midi":70,"name":"A#4","ticks":10187,"time":44.679842433333334,"velocity":0.8582677165354331},{"duration":0.15350883333332632,"durationTicks":35,"midi":80,"name":"G#5","ticks":10246,"time":44.93861446666667,"velocity":0.8503937007874016},{"duration":0.21052640000000622,"durationTicks":48,"midi":68,"name":"G#4","ticks":10247,"time":44.94300043333333,"velocity":0.9291338582677166},{"duration":0.24561413333333348,"durationTicks":56,"midi":77,"name":"F5","ticks":10281,"time":45.0921233,"velocity":0.6299212598425197},{"duration":0.25000009999999406,"durationTicks":57,"midi":65,"name":"F4","ticks":10282,"time":45.09650926666667,"velocity":0.5669291338582677},{"duration":0.16666673333332938,"durationTicks":38,"midi":63,"name":"D#4","ticks":10338,"time":45.342123400000006,"velocity":0.6299212598425197},{"duration":0.16666673333333648,"durationTicks":38,"midi":75,"name":"D#5","ticks":10340,"time":45.350895333333334,"velocity":0.7716535433070866},{"duration":0.11403513333333137,"durationTicks":26,"midi":71,"name":"B4","ticks":10368,"time":45.4737024,"velocity":0.7874015748031497},{"duration":0.09649126666666064,"durationTicks":22,"midi":59,"name":"B3","ticks":10368,"time":45.4737024,"velocity":0.7322834645669292},{"duration":0.16666673333332938,"durationTicks":38,"midi":68,"name":"G#4","ticks":10500,"time":46.05265,"velocity":0.7480314960629921},{"duration":0.1622807666666688,"durationTicks":37,"midi":56,"name":"G#3","ticks":10502,"time":46.061421933333335,"velocity":0.8582677165354331},{"duration":0.17982463333333243,"durationTicks":41,"midi":65,"name":"F4","ticks":10527,"time":46.1710711,"velocity":0.5984251968503937},{"duration":0.14473689999999806,"durationTicks":33,"midi":53,"name":"F3","ticks":10530,"time":46.184229,"velocity":0.7086614173228346},{"duration":0.15350883333332632,"durationTicks":35,"midi":51,"name":"D#3","ticks":10552,"time":46.28072026666667,"velocity":0.7716535433070866},{"duration":0.157894799999994,"durationTicks":36,"midi":63,"name":"D#4","ticks":10558,"time":46.30703606666667,"velocity":0.7401574803149606},{"duration":0.07017546666666163,"durationTicks":16,"midi":47,"name":"B2","ticks":10582,"time":46.41229926666667,"velocity":0.7795275590551181},{"duration":0.07456143333333642,"durationTicks":17,"midi":59,"name":"B3","ticks":10590,"time":46.447387,"velocity":0.6771653543307087},{"duration":0.078947399999997,"durationTicks":18,"midi":55,"name":"G3","ticks":10650,"time":46.710545,"velocity":1},{"duration":0.052631599999998,"durationTicks":12,"midi":50,"name":"D3","ticks":10651,"time":46.71493096666667,"velocity":1},{"duration":0.052631599999998,"durationTicks":12,"midi":46,"name":"A#2","ticks":10652,"time":46.71931693333333,"velocity":1},{"duration":0.0526315999999909,"durationTicks":12,"midi":34,"name":"A#1","ticks":10653,"time":46.723702900000006,"velocity":0.9448818897637795},{"duration":0.10087723333333543,"durationTicks":23,"midi":58,"name":"A#3","ticks":10827,"time":47.4868611,"velocity":0.5590551181102362},{"duration":0.07894740000000411,"durationTicks":18,"midi":51,"name":"D#3","ticks":10830,"time":47.500019,"velocity":0.6062992125984252},{"duration":0.07894740000000411,"durationTicks":18,"midi":55,"name":"G3","ticks":10832,"time":47.50879093333333,"velocity":0.4015748031496063},{"duration":0.04824563333333742,"durationTicks":11,"midi":53,"name":"F3","ticks":10838,"time":47.53510673333333,"velocity":0.4094488188976378},{"duration":0.04824563333333032,"durationTicks":11,"midi":39,"name":"D#2","ticks":10895,"time":47.78510683333334,"velocity":0.5748031496062992},{"duration":0.07017546666666874,"durationTicks":16,"midi":46,"name":"A#2","ticks":10898,"time":47.79826473333333,"velocity":0.4881889763779528},{"duration":0.078947399999997,"durationTicks":18,"midi":51,"name":"D#3","ticks":10961,"time":48.07458063333333,"velocity":0.6299212598425197},{"duration":0.04824563333333032,"durationTicks":11,"midi":58,"name":"A#3","ticks":10963,"time":48.08335256666667,"velocity":0.4881889763779528},{"duration":0.07456143333333642,"durationTicks":17,"midi":39,"name":"D#2","ticks":11035,"time":48.399142166666664,"velocity":0.41732283464566927},{"duration":0.07456143333333642,"durationTicks":17,"midi":46,"name":"A#2","ticks":11036,"time":48.40352813333333,"velocity":0.47244094488188976},{"duration":0.078947399999997,"durationTicks":18,"midi":51,"name":"D#3","ticks":11362,"time":49.83335326666667,"velocity":0.6377952755905512},{"duration":0.10087723333334253,"durationTicks":23,"midi":58,"name":"A#3","ticks":11363,"time":49.83773923333333,"velocity":0.5748031496062992},{"duration":0.07456143333333642,"durationTicks":17,"midi":55,"name":"G3","ticks":11366,"time":49.85089713333333,"velocity":0.31496062992125984},{"duration":0.04385966666666263,"durationTicks":10,"midi":53,"name":"F3","ticks":11372,"time":49.87721293333333,"velocity":0.28346456692913385},{"duration":0.04824563333333032,"durationTicks":11,"midi":39,"name":"D#2","ticks":11430,"time":50.131599,"velocity":0.36220472440944884},{"duration":0.043859666666676844,"durationTicks":10,"midi":46,"name":"A#2","ticks":11438,"time":50.16668673333333,"velocity":0.23622047244094488},{"duration":0.09649126666666774,"durationTicks":22,"midi":51,"name":"D#3","ticks":11496,"time":50.4210728,"velocity":0.5354330708661418},{"duration":0.0789473999999899,"durationTicks":18,"midi":58,"name":"A#3","ticks":11497,"time":50.42545876666667,"velocity":0.4645669291338583},{"duration":0.07017546666667585,"durationTicks":16,"midi":46,"name":"A#2","ticks":11571,"time":50.750020299999996,"velocity":0.4645669291338583},{"duration":0.07017546666666163,"durationTicks":16,"midi":39,"name":"D#2","ticks":11572,"time":50.75440626666667,"velocity":0.3937007874015748},{"duration":0.09210530000000006,"durationTicks":21,"midi":51,"name":"D#3","ticks":11903,"time":52.20616123333333,"velocity":0.5905511811023622},{"duration":0.11842109999999906,"durationTicks":27,"midi":58,"name":"A#3","ticks":11905,"time":52.21493316666667,"velocity":0.5905511811023622},{"duration":0.07456143333332932,"durationTicks":17,"midi":55,"name":"G3","ticks":11906,"time":52.219319133333336,"velocity":0.3937007874015748},{"duration":0.09210530000000006,"durationTicks":21,"midi":39,"name":"D#2","ticks":11972,"time":52.50879293333333,"velocity":0.4566929133858268},{"duration":0.10087723333332832,"durationTicks":23,"midi":46,"name":"A#2","ticks":11973,"time":52.51317890000001,"velocity":0.47244094488188976},{"duration":0.09210530000000006,"durationTicks":21,"midi":51,"name":"D#3","ticks":12050,"time":52.85089833333333,"velocity":0.5275590551181102},{"duration":0.08771933333333237,"durationTicks":20,"midi":58,"name":"A#3","ticks":12051,"time":52.8552843,"velocity":0.5354330708661418},{"duration":0.8377196333333288,"durationTicks":191,"midi":39,"name":"D#2","ticks":12131,"time":53.20616163333334,"velocity":0.44881889763779526},{"duration":1.0789477999999946,"durationTicks":246,"midi":41,"name":"F2","ticks":12341,"time":54.12721463333334,"velocity":0.3858267716535433},{"duration":0.33333346666667296,"durationTicks":76,"midi":42,"name":"F#2","ticks":12585,"time":55.1973905,"velocity":0.4881889763779528},{"duration":2.491229066666669,"durationTicks":568,"midi":49,"name":"C#3","ticks":12593,"time":55.23247823333333,"velocity":0.2755905511811024},{"duration":0.12280706666666674,"durationTicks":28,"midi":61,"name":"C#4","ticks":12682,"time":55.62282926666667,"velocity":0.3464566929133858},{"duration":0.11403513333333137,"durationTicks":26,"midi":58,"name":"A#3","ticks":12685,"time":55.635987166666666,"velocity":0.4566929133858268},{"duration":0.04824563333333742,"durationTicks":11,"midi":57,"name":"A3","ticks":12690,"time":55.657917,"velocity":0.18110236220472442},{"duration":0.30701766666666686,"durationTicks":70,"midi":42,"name":"F#2","ticks":12767,"time":55.99563643333333,"velocity":0.3464566929133858},{"duration":0.11403513333332427,"durationTicks":26,"midi":61,"name":"C#4","ticks":12843,"time":56.328969900000004,"velocity":0.41732283464566927},{"duration":0.09649126666666064,"durationTicks":22,"midi":58,"name":"A#3","ticks":12847,"time":56.34651376666667,"velocity":0.4645669291338583},{"duration":0.04824563333333032,"durationTicks":11,"midi":57,"name":"A3","ticks":12852,"time":56.3684436,"velocity":0.4330708661417323},{"duration":0.3728071666666679,"durationTicks":85,"midi":42,"name":"F#2","ticks":12922,"time":56.675461266666666,"velocity":0.3779527559055118},{"duration":0.09649126666666774,"durationTicks":22,"midi":60,"name":"C4","ticks":13002,"time":57.026338599999995,"velocity":0.4881889763779528},{"duration":0.07017546666666163,"durationTicks":16,"midi":56,"name":"G#3","ticks":13003,"time":57.03072456666667,"velocity":0.5905511811023622},{"duration":0.04385966666666974,"durationTicks":10,"midi":55,"name":"G3","ticks":13005,"time":57.0394965,"velocity":0.5196850393700787},{"duration":0.3947369999999992,"durationTicks":90,"midi":42,"name":"F#2","ticks":13076,"time":57.35090013333333,"velocity":0.5118110236220472},{"duration":0.08771933333333237,"durationTicks":20,"midi":56,"name":"G#3","ticks":13151,"time":57.67984763333334,"velocity":0.6062992125984252},{"duration":0.11403513333333848,"durationTicks":26,"midi":65,"name":"F4","ticks":13153,"time":57.68861956666667,"velocity":0.49606299212598426},{"duration":0.04385966666666263,"durationTicks":10,"midi":57,"name":"A3","ticks":13156,"time":57.70177746666667,"velocity":0.4881889763779528},{"duration":0.052631599999998,"durationTicks":12,"midi":60,"name":"C4","ticks":13160,"time":57.71932133333333,"velocity":0.3937007874015748},{"duration":0.10087723333332832,"durationTicks":23,"midi":51,"name":"D#3","ticks":13222,"time":57.99125126666667,"velocity":0.4566929133858268},{"duration":0.3421054000000012,"durationTicks":78,"midi":42,"name":"F#2","ticks":13227,"time":58.0131811,"velocity":0.4409448818897638},{"duration":2.372807966666663,"durationTicks":541,"midi":49,"name":"C#3","ticks":13233,"time":58.0394969,"velocity":0.5118110236220472},{"duration":0.1096491666666708,"durationTicks":25,"midi":61,"name":"C#4","ticks":13313,"time":58.39037423333333,"velocity":0.4566929133858268},{"duration":0.09649126666666774,"durationTicks":22,"midi":58,"name":"A#3","ticks":13316,"time":58.403532133333336,"velocity":0.5354330708661418},{"duration":0.04824563333333032,"durationTicks":11,"midi":57,"name":"A3","ticks":13318,"time":58.41230406666667,"velocity":0.5196850393700787},{"duration":0.2719299333333325,"durationTicks":62,"midi":42,"name":"F#2","ticks":13396,"time":58.75440946666667,"velocity":0.3937007874015748},{"duration":0.11842109999999195,"durationTicks":27,"midi":61,"name":"C#4","ticks":13470,"time":59.078971,"velocity":0.4566929133858268},{"duration":0.08771933333333237,"durationTicks":20,"midi":58,"name":"A#3","ticks":13475,"time":59.100900833333334,"velocity":0.5275590551181102},{"duration":0.07456143333332932,"durationTicks":17,"midi":57,"name":"A3","ticks":13476,"time":59.1052868,"velocity":0.4566929133858268},{"duration":0.2763159000000073,"durationTicks":63,"midi":42,"name":"F#2","ticks":13543,"time":59.399146566666666,"velocity":0.4251968503937008},{"duration":0.09649126666666774,"durationTicks":22,"midi":60,"name":"C4","ticks":13620,"time":59.736866,"velocity":0.49606299212598426},{"duration":0.09210529999999295,"durationTicks":21,"midi":56,"name":"G#3","ticks":13621,"time":59.741251966666674,"velocity":0.5669291338582677},{"duration":0.04385966666666263,"durationTicks":10,"midi":55,"name":"G3","ticks":13625,"time":59.75879583333334,"velocity":0.41732283464566927},{"duration":0.43859666666666186,"durationTicks":100,"midi":42,"name":"F#2","ticks":13693,"time":60.05704156666667,"velocity":0.5196850393700787},{"duration":0.09210530000000006,"durationTicks":21,"midi":56,"name":"G#3","ticks":13766,"time":60.37721713333333,"velocity":0.5748031496062992},{"duration":0.09649126666666774,"durationTicks":22,"midi":65,"name":"F4","ticks":13767,"time":60.3816031,"velocity":0.4251968503937008},{"duration":0.04824563333333032,"durationTicks":11,"midi":57,"name":"A3","ticks":13770,"time":60.394761,"velocity":0.4094488188976378},{"duration":0.05263160000000511,"durationTicks":12,"midi":60,"name":"C4","ticks":13778,"time":60.42984873333333,"velocity":0.25984251968503935},{"duration":2.7500011000000057,"durationTicks":627,"midi":49,"name":"C#3","ticks":13842,"time":60.7105506,"velocity":0.5354330708661418},{"duration":0.10087723333332832,"durationTicks":23,"midi":61,"name":"C#4","ticks":13921,"time":61.057041966666674,"velocity":0.41732283464566927},{"duration":0.1359649666666627,"durationTicks":31,"midi":42,"name":"F#2","ticks":13923,"time":61.0658139,"velocity":0.47244094488188976},{"duration":0.06578950000000106,"durationTicks":15,"midi":58,"name":"A#3","ticks":13926,"time":61.0789718,"velocity":0.3700787401574803},{"duration":0.05701756666666569,"durationTicks":13,"midi":57,"name":"A3","ticks":13928,"time":61.08774373333333,"velocity":0.3464566929133858},{"duration":0.07894740000000411,"durationTicks":18,"midi":41,"name":"F2","ticks":14003,"time":61.41669123333333,"velocity":0.4645669291338583},{"duration":0.06578950000000106,"durationTicks":15,"midi":39,"name":"D#2","ticks":14078,"time":61.74563873333333,"velocity":0.4015748031496063},{"duration":0.1622807666666617,"durationTicks":37,"midi":37,"name":"C#2","ticks":14163,"time":62.118445900000005,"velocity":0.4015748031496063},{"duration":0.12280706666666674,"durationTicks":28,"midi":61,"name":"C#4","ticks":14337,"time":62.8816041,"velocity":0.3464566929133858},{"duration":0.11403513333333848,"durationTicks":26,"midi":58,"name":"A#3","ticks":14340,"time":62.894762,"velocity":0.3464566929133858},{"duration":0.07017546666666874,"durationTicks":16,"midi":57,"name":"A3","ticks":14346,"time":62.9210778,"velocity":0.31496062992125984},{"duration":0.10087723333332121,"durationTicks":23,"midi":42,"name":"F#2","ticks":14600,"time":64.03511333333334,"velocity":0.47244094488188976},{"duration":0.09210530000000006,"durationTicks":21,"midi":41,"name":"F2","ticks":14680,"time":64.38599066666667,"velocity":0.44881889763779526},{"duration":0.10087723333334964,"durationTicks":23,"midi":39,"name":"D#2","ticks":14757,"time":64.72371009999999,"velocity":0.4566929133858268},{"duration":0.07894740000000411,"durationTicks":18,"midi":37,"name":"C#2","ticks":14835,"time":65.0658155,"velocity":0.33070866141732286},{"duration":0.1359649666666627,"durationTicks":31,"midi":35,"name":"B1","ticks":14911,"time":65.39914896666667,"velocity":0.33858267716535434},{"duration":0.1315790000000021,"durationTicks":30,"midi":49,"name":"C#3","ticks":14992,"time":65.75441226666666,"velocity":0.4645669291338583},{"duration":0.1096491666666708,"durationTicks":25,"midi":34,"name":"A#1","ticks":14997,"time":65.7763421,"velocity":0.25196850393700787},{"duration":0.07894740000000411,"durationTicks":18,"midi":47,"name":"B2","ticks":15001,"time":65.79388596666666,"velocity":0.2755905511811024},{"duration":0.08771933333332527,"durationTicks":20,"midi":32,"name":"G#1","ticks":15088,"time":66.17546506666667,"velocity":0.4330708661417323},{"duration":2.4342115000000035,"durationTicks":555,"midi":49,"name":"C#3","ticks":15212,"time":66.71932493333334,"velocity":0.3937007874015748},{"duration":0.2675439666666648,"durationTicks":61,"midi":42,"name":"F#2","ticks":15217,"time":66.74125476666667,"velocity":0.3779527559055118},{"duration":0.11842109999999195,"durationTicks":27,"midi":61,"name":"C#4","ticks":15302,"time":67.11406193333333,"velocity":0.4645669291338583},{"duration":0.11403513333331716,"durationTicks":26,"midi":58,"name":"A#3","ticks":15303,"time":67.1184479,"velocity":0.5354330708661418},{"duration":0.05701756666665858,"durationTicks":13,"midi":57,"name":"A3","ticks":15308,"time":67.14037773333334,"velocity":0.4330708661417323},{"duration":0.2719299333333254,"durationTicks":62,"midi":42,"name":"F#2","ticks":15386,"time":67.48248313333333,"velocity":0.4566929133858268},{"duration":0.07894740000000411,"durationTicks":18,"midi":61,"name":"C#4","ticks":15462,"time":67.81581659999999,"velocity":0.5275590551181102},{"duration":0.08771933333333948,"durationTicks":20,"midi":58,"name":"A#3","ticks":15463,"time":67.82020256666667,"velocity":0.5354330708661418},{"duration":0.04824563333333742,"durationTicks":11,"midi":57,"name":"A3","ticks":15466,"time":67.83336046666666,"velocity":0.44881889763779526},{"duration":0.3201755666666628,"durationTicks":73,"midi":42,"name":"F#2","ticks":15537,"time":68.1447641,"velocity":0.5354330708661418},{"duration":0.07456143333332932,"durationTicks":17,"midi":56,"name":"G#3","ticks":15607,"time":68.45178176666667,"velocity":0.6614173228346457},{"duration":0.05701756666665858,"durationTicks":13,"midi":60,"name":"C4","ticks":15607,"time":68.45178176666667,"velocity":0.5669291338582677},{"duration":0.035087733333341475,"durationTicks":8,"midi":55,"name":"G3","ticks":15610,"time":68.46493966666667,"velocity":0.5039370078740157},{"duration":0.372807166666675,"durationTicks":85,"midi":42,"name":"F#2","ticks":15682,"time":68.78072926666667,"velocity":0.5905511811023622},{"duration":0.11842110000000616,"durationTicks":27,"midi":65,"name":"F4","ticks":15757,"time":69.10967676666667,"velocity":0.4645669291338583},{"duration":0.09210530000001427,"durationTicks":21,"midi":56,"name":"G#3","ticks":15758,"time":69.11406273333333,"velocity":0.5669291338582677},{"duration":0.04824563333333742,"durationTicks":11,"midi":57,"name":"A3","ticks":15761,"time":69.12722063333334,"velocity":0.3779527559055118},{"duration":0.052631599999998,"durationTicks":12,"midi":60,"name":"C4","ticks":15768,"time":69.1579224,"velocity":0.28346456692913385},{"duration":0.07894740000000411,"durationTicks":18,"midi":51,"name":"D#3","ticks":15837,"time":69.4605541,"velocity":0.3228346456692913},{"duration":0.2938597666666709,"durationTicks":67,"midi":42,"name":"F#2","ticks":15838,"time":69.46494006666666,"velocity":0.3700787401574803},{"duration":2.311404433333351,"durationTicks":527,"midi":49,"name":"C#3","ticks":15845,"time":69.49564183333332,"velocity":0.5669291338582677},{"duration":0.09649126666667485,"durationTicks":22,"midi":61,"name":"C#4","ticks":15918,"time":69.8158174,"velocity":0.47244094488188976},{"duration":0.09210530000000006,"durationTicks":21,"midi":58,"name":"A#3","ticks":15920,"time":69.82458933333334,"velocity":0.5118110236220472},{"duration":0.04824563333333742,"durationTicks":11,"midi":57,"name":"A3","ticks":15923,"time":69.83774723333333,"velocity":0.48031496062992124},{"duration":0.30701766666666686,"durationTicks":70,"midi":42,"name":"F#2","ticks":15992,"time":70.14037893333334,"velocity":0.4566929133858268},{"duration":0.10087723333333543,"durationTicks":23,"midi":61,"name":"C#4","ticks":16067,"time":70.46932643333334,"velocity":0.47244094488188976},{"duration":0.07017546666666874,"durationTicks":16,"midi":58,"name":"A#3","ticks":16071,"time":70.4868703,"velocity":0.47244094488188976},{"duration":0.052631599999998,"durationTicks":12,"midi":57,"name":"A3","ticks":16076,"time":70.50880013333334,"velocity":0.2677165354330709},{"duration":0.2412281666666587,"durationTicks":55,"midi":42,"name":"F#2","ticks":16142,"time":70.79827393333333,"velocity":0.3937007874015748},{"duration":0.08771933333332527,"durationTicks":20,"midi":56,"name":"G#3","ticks":16217,"time":71.12722143333335,"velocity":0.5354330708661418},{"duration":0.06578949999999395,"durationTicks":15,"midi":60,"name":"C4","ticks":16218,"time":71.13160740000001,"velocity":0.3858267716535433},{"duration":0.05263160000001221,"durationTicks":12,"midi":55,"name":"G3","ticks":16220,"time":71.14037933333333,"velocity":0.3937007874015748},{"duration":0.41666683333332344,"durationTicks":95,"midi":42,"name":"F#2","ticks":16293,"time":71.4605549,"velocity":0.3779527559055118},{"duration":0.11403513333333137,"durationTicks":26,"midi":65,"name":"F4","ticks":16365,"time":71.77634450000001,"velocity":0.3464566929133858},{"duration":0.09649126666664642,"durationTicks":22,"midi":56,"name":"G#3","ticks":16367,"time":71.78511643333334,"velocity":0.4645669291338583},{"duration":0.07456143333334353,"durationTicks":17,"midi":57,"name":"A3","ticks":16370,"time":71.79827433333332,"velocity":0.28346456692913385},{"duration":0.052631599999998,"durationTicks":12,"midi":60,"name":"C4","ticks":16377,"time":71.82897609999999,"velocity":0.1889763779527559},{"duration":3.1885977666666747,"durationTicks":727,"midi":49,"name":"C#3","ticks":16445,"time":72.12722183333332,"velocity":0.4645669291338583},{"duration":0.11403513333333137,"durationTicks":26,"midi":61,"name":"C#4","ticks":16520,"time":72.45616933333334,"velocity":0.4330708661417323},{"duration":0.09210529999998585,"durationTicks":21,"midi":58,"name":"A#3","ticks":16521,"time":72.46055530000001,"velocity":0.4251968503937008},{"duration":0.1315790000000021,"durationTicks":30,"midi":42,"name":"F#2","ticks":16523,"time":72.46932723333333,"velocity":0.44881889763779526},{"duration":0.04824563333332321,"durationTicks":11,"midi":57,"name":"A3","ticks":16527,"time":72.4868711,"velocity":0.4015748031496063},{"duration":0.09210530000001427,"durationTicks":21,"midi":41,"name":"F2","ticks":16606,"time":72.83336246666666,"velocity":0.4645669291338583},{"duration":0.09210530000000006,"durationTicks":21,"midi":39,"name":"D#2","ticks":16681,"time":73.16230996666667,"velocity":0.3779527559055118},{"duration":0.14473689999999806,"durationTicks":33,"midi":37,"name":"C#2","ticks":16783,"time":73.60967856666666,"velocity":0.36220472440944884},{"duration":0.39473700000000633,"durationTicks":90,"midi":39,"name":"D#2","ticks":17161,"time":75.26757396666666,"velocity":0.44881889763779526},{"duration":1.8464919666666901,"durationTicks":421,"midi":57,"name":"A3","ticks":17255,"time":75.67985483333332,"velocity":0.7007874015748031},{"duration":0.33771943333331933,"durationTicks":77,"midi":41,"name":"F2","ticks":17256,"time":75.68424080000001,"velocity":0.47244094488188976},{"duration":0.3947369999999921,"durationTicks":90,"midi":42,"name":"F#2","ticks":17332,"time":76.01757426666667,"velocity":0.5196850393700787},{"duration":1.0394741000000067,"durationTicks":237,"midi":65,"name":"F4","ticks":17420,"time":76.40353933333333,"velocity":0.7165354330708661},{"duration":0.40789489999998807,"durationTicks":93,"midi":45,"name":"A2","ticks":17421,"time":76.4079253,"velocity":0.5354330708661418},{"duration":0.43859666666666897,"durationTicks":100,"midi":46,"name":"A#2","ticks":17497,"time":76.74125876666668,"velocity":0.6377952755905512},{"duration":0.3991229666666669,"durationTicks":91,"midi":47,"name":"B2","ticks":17586,"time":77.1316098,"velocity":0.6929133858267716},{"duration":0.1622807666666688,"durationTicks":37,"midi":58,"name":"A#3","ticks":17678,"time":77.53511873333333,"velocity":0.5590551181102362},{"duration":0.2631580000000042,"durationTicks":60,"midi":64,"name":"E4","ticks":17680,"time":77.54389066666667,"velocity":0.5039370078740157},{"duration":0.38596506666667096,"durationTicks":88,"midi":48,"name":"C3","ticks":17681,"time":77.54827663333333,"velocity":0.4881889763779528},{"duration":0.12280706666665253,"durationTicks":28,"midi":63,"name":"D#4","ticks":17808,"time":78.1052944,"velocity":0.4566929133858268},{"duration":0.1359649666666627,"durationTicks":31,"midi":49,"name":"C#3","ticks":17808,"time":78.1052944,"velocity":0.4409448818897638},{"duration":0.09649126666666064,"durationTicks":22,"midi":44,"name":"G#2","ticks":17813,"time":78.12722423333334,"velocity":0.4015748031496063},{"duration":0.08771933333332527,"durationTicks":20,"midi":59,"name":"B3","ticks":17815,"time":78.13599616666667,"velocity":0.5039370078740157},{"duration":0.09649126666667485,"durationTicks":22,"midi":75,"name":"D#5","ticks":17940,"time":78.684242,"velocity":0.5118110236220472},{"duration":0.043859666666676844,"durationTicks":10,"midi":74,"name":"D5","ticks":17945,"time":78.70617183333333,"velocity":0.3937007874015748},{"duration":0.043859666666676844,"durationTicks":10,"midi":71,"name":"B4","ticks":17951,"time":78.73248763333333,"velocity":0.18110236220472442},{"duration":0.052631599999998,"durationTicks":12,"midi":65,"name":"F4","ticks":17952,"time":78.7368736,"velocity":0.2125984251968504},{"duration":0.09649126666667485,"durationTicks":22,"midi":73,"name":"C#5","ticks":18015,"time":79.0131895,"velocity":0.44881889763779526},{"duration":0.052631599999998,"durationTicks":12,"midi":72,"name":"C5","ticks":18017,"time":79.02196143333335,"velocity":0.3464566929133858},{"duration":0.10964916666665658,"durationTicks":25,"midi":56,"name":"G#3","ticks":18017,"time":79.02196143333335,"velocity":0.3464566929133858},{"duration":0.0789473999999899,"durationTicks":18,"midi":65,"name":"F4","ticks":18022,"time":79.04389126666668,"velocity":0.2677165354330709},{"duration":0.04824563333333742,"durationTicks":11,"midi":71,"name":"B4","ticks":18025,"time":79.05704916666667,"velocity":0.2677165354330709},{"duration":0.10964916666665658,"durationTicks":25,"midi":75,"name":"D#5","ticks":18093,"time":79.3552949,"velocity":0.44881889763779526},{"duration":0.09649126666666064,"durationTicks":22,"midi":56,"name":"G#3","ticks":18097,"time":79.37283876666667,"velocity":0.3779527559055118},{"duration":0.08771933333332527,"durationTicks":20,"midi":74,"name":"D5","ticks":18097,"time":79.37283876666667,"velocity":0.5039370078740157},{"duration":0.07456143333332932,"durationTicks":17,"midi":65,"name":"F4","ticks":18100,"time":79.38599666666667,"velocity":0.25984251968503935},{"duration":0.052631599999998,"durationTicks":12,"midi":71,"name":"B4","ticks":18101,"time":79.39038263333333,"velocity":0.33858267716535434},{"duration":0.05263160000001221,"durationTicks":12,"midi":59,"name":"B3","ticks":18103,"time":79.39915456666667,"velocity":0.3779527559055118},{"duration":0.09210530000000006,"durationTicks":21,"midi":75,"name":"D#5","ticks":18262,"time":80.09652326666667,"velocity":0.47244094488188976},{"duration":0.07894740000000411,"durationTicks":18,"midi":56,"name":"G#3","ticks":18267,"time":80.1184531,"velocity":0.4015748031496063},{"duration":0.09649126666667485,"durationTicks":22,"midi":65,"name":"F4","ticks":18267,"time":80.1184531,"velocity":0.3543307086614173},{"duration":0.04824563333333742,"durationTicks":11,"midi":74,"name":"D5","ticks":18268,"time":80.12283906666666,"velocity":0.4251968503937008},{"duration":0.052631599999998,"durationTicks":12,"midi":71,"name":"B4","ticks":18270,"time":80.131611,"velocity":0.33858267716535434},{"duration":0.05263160000001221,"durationTicks":12,"midi":59,"name":"B3","ticks":18275,"time":80.15354083333332,"velocity":0.33858267716535434},{"duration":0.08771933333335369,"durationTicks":20,"midi":72,"name":"C5","ticks":18342,"time":80.4474006,"velocity":0.3937007874015748},{"duration":0.05701756666665858,"durationTicks":13,"midi":73,"name":"C#5","ticks":18345,"time":80.4605585,"velocity":0.4645669291338583},{"duration":0.0789473999999899,"durationTicks":18,"midi":65,"name":"F4","ticks":18350,"time":80.48248833333334,"velocity":0.2677165354330709},{"duration":0.05701756666665858,"durationTicks":13,"midi":56,"name":"G#3","ticks":18351,"time":80.48687430000001,"velocity":0.36220472440944884},{"duration":0.06578949999999395,"durationTicks":15,"midi":59,"name":"B3","ticks":18351,"time":80.48687430000001,"velocity":0.3464566929133858},{"duration":0.043859666666676844,"durationTicks":10,"midi":71,"name":"B4","ticks":18352,"time":80.49126026666667,"velocity":0.23622047244094488},{"duration":0.10087723333333543,"durationTicks":23,"midi":65,"name":"F4","ticks":18427,"time":80.82020776666667,"velocity":0.33858267716535434},{"duration":0.08771933333332527,"durationTicks":20,"midi":75,"name":"D#5","ticks":18427,"time":80.82020776666667,"velocity":0.3700787401574803},{"duration":0.09649126666667485,"durationTicks":22,"midi":56,"name":"G#3","ticks":18427,"time":80.82020776666667,"velocity":0.4409448818897638},{"duration":0.04824563333332321,"durationTicks":11,"midi":74,"name":"D5","ticks":18431,"time":80.83775163333334,"velocity":0.4094488188976378},{"duration":0.052631599999998,"durationTicks":12,"midi":59,"name":"B3","ticks":18432,"time":80.8421376,"velocity":0.4094488188976378},{"duration":0.04824563333333742,"durationTicks":11,"midi":71,"name":"B4","ticks":18435,"time":80.8552955,"velocity":0.1968503937007874},{"duration":2.0877201333333346,"durationTicks":476,"midi":57,"name":"A3","ticks":18706,"time":82.04389246666666,"velocity":0.6456692913385826},{"duration":1.2631583999999947,"durationTicks":288,"midi":65,"name":"F4","ticks":18910,"time":82.93862966666667,"velocity":0.6692913385826772},{"duration":2.0745622333333245,"durationTicks":473,"midi":49,"name":"C#3","ticks":18915,"time":82.9605595,"velocity":0.4330708661417323},{"duration":0.09649126666666064,"durationTicks":22,"midi":64,"name":"E4","ticks":19241,"time":84.39038463333334,"velocity":0.3464566929133858},{"duration":0.10087723333333543,"durationTicks":23,"midi":63,"name":"D#4","ticks":19362,"time":84.9210866,"velocity":0.4566929133858268},{"duration":0.06578950000000816,"durationTicks":15,"midi":58,"name":"A#3","ticks":19363,"time":84.92547256666666,"velocity":0.3700787401574803},{"duration":0.09210530000000006,"durationTicks":21,"midi":42,"name":"F#2","ticks":19365,"time":84.9342445,"velocity":0.44881889763779526},{"duration":0.11842109999999195,"durationTicks":27,"midi":66,"name":"F#4","ticks":19472,"time":85.40354293333334,"velocity":0.41732283464566927},{"duration":0.09210529999998585,"durationTicks":21,"midi":75,"name":"D#5","ticks":19477,"time":85.42547276666667,"velocity":0.5669291338582677},{"duration":0.11403513333333137,"durationTicks":26,"midi":58,"name":"A#3","ticks":19478,"time":85.42985873333333,"velocity":0.4881889763779528},{"duration":0.043859666666676844,"durationTicks":10,"midi":74,"name":"D5","ticks":19481,"time":85.44301663333333,"velocity":0.4330708661417323},{"duration":0.052631599999998,"durationTicks":12,"midi":70,"name":"A#4","ticks":19481,"time":85.44301663333333,"velocity":0.29133858267716534},{"duration":0.05701756666665858,"durationTicks":13,"midi":61,"name":"C#4","ticks":19485,"time":85.4605605,"velocity":0.3228346456692913},{"duration":0.1096491666666708,"durationTicks":25,"midi":73,"name":"C#5","ticks":19553,"time":85.75880623333333,"velocity":0.4645669291338583},{"duration":0.10087723333333543,"durationTicks":23,"midi":66,"name":"F#4","ticks":19555,"time":85.76757816666667,"velocity":0.47244094488188976},{"duration":0.05701756666667279,"durationTicks":13,"midi":70,"name":"A#4","ticks":19557,"time":85.7763501,"velocity":0.44881889763779526},{"duration":0.06578950000000816,"durationTicks":15,"midi":61,"name":"C#4","ticks":19561,"time":85.79389396666666,"velocity":0.3543307086614173},{"duration":0.05263159999998379,"durationTicks":12,"midi":58,"name":"A#3","ticks":19562,"time":85.79827993333335,"velocity":0.3464566929133858},{"duration":0.07894740000000411,"durationTicks":18,"midi":75,"name":"D#5","ticks":19633,"time":86.10968356666666,"velocity":0.4566929133858268},{"duration":0.052631599999998,"durationTicks":12,"midi":70,"name":"A#4","ticks":19635,"time":86.1184555,"velocity":0.47244094488188976},{"duration":0.07456143333334353,"durationTicks":17,"midi":66,"name":"F#4","ticks":19636,"time":86.12284146666666,"velocity":0.3937007874015748},{"duration":0.043859666666676844,"durationTicks":10,"midi":74,"name":"D5","ticks":19636,"time":86.12284146666666,"velocity":0.4566929133858268},{"duration":0.05701756666665858,"durationTicks":13,"midi":58,"name":"A#3","ticks":19637,"time":86.12722743333335,"velocity":0.3700787401574803},{"duration":0.04824563333333742,"durationTicks":11,"midi":61,"name":"C#4","ticks":19641,"time":86.1447713,"velocity":0.33070866141732286},{"duration":0.07456143333331511,"durationTicks":17,"midi":75,"name":"D#5","ticks":19803,"time":86.85529790000001,"velocity":0.5039370078740157},{"duration":0.08771933333333948,"durationTicks":20,"midi":70,"name":"A#4","ticks":19805,"time":86.86406983333333,"velocity":0.3858267716535433},{"duration":0.09210529999998585,"durationTicks":21,"midi":66,"name":"F#4","ticks":19806,"time":86.8684558,"velocity":0.36220472440944884},{"duration":0.06578949999999395,"durationTicks":15,"midi":58,"name":"A#3","ticks":19810,"time":86.88599966666668,"velocity":0.28346456692913385},{"duration":0.05701756666667279,"durationTicks":13,"midi":61,"name":"C#4","ticks":19813,"time":86.89915756666666,"velocity":0.31496062992125984},{"duration":0.09210530000000006,"durationTicks":21,"midi":70,"name":"A#4","ticks":19880,"time":87.19301733333333,"velocity":0.4645669291338583},{"duration":0.0789473999999899,"durationTicks":18,"midi":73,"name":"C#5","ticks":19881,"time":87.1974033,"velocity":0.3937007874015748},{"duration":0.09210529999998585,"durationTicks":21,"midi":66,"name":"F#4","ticks":19885,"time":87.21494716666668,"velocity":0.33070866141732286},{"duration":0.06578950000000816,"durationTicks":15,"midi":61,"name":"C#4","ticks":19887,"time":87.2237191,"velocity":0.3228346456692913},{"duration":0.06578950000000816,"durationTicks":15,"midi":58,"name":"A#3","ticks":19887,"time":87.2237191,"velocity":0.3228346456692913},{"duration":0.08771933333332527,"durationTicks":20,"midi":75,"name":"D#5","ticks":19968,"time":87.5789824,"velocity":0.3779527559055118},{"duration":0.052631599999998,"durationTicks":12,"midi":74,"name":"D5","ticks":19970,"time":87.58775433333334,"velocity":0.4330708661417323},{"duration":0.07894740000000411,"durationTicks":18,"midi":66,"name":"F#4","ticks":19972,"time":87.59652626666667,"velocity":0.3228346456692913},{"duration":0.06578949999999395,"durationTicks":15,"midi":58,"name":"A#3","ticks":19972,"time":87.59652626666667,"velocity":0.4015748031496063},{"duration":0.052631599999998,"durationTicks":12,"midi":70,"name":"A#4","ticks":19973,"time":87.60091223333333,"velocity":0.29133858267716534},{"duration":0.052631599999998,"durationTicks":12,"midi":61,"name":"C#4","ticks":19976,"time":87.61407013333333,"velocity":0.31496062992125984},{"duration":0.8859652666666733,"durationTicks":202,"midi":69,"name":"A4","ticks":20283,"time":88.9605619,"velocity":0.49606299212598426},{"duration":0.8201757666666794,"durationTicks":187,"midi":57,"name":"A3","ticks":20285,"time":88.96933383333332,"velocity":0.3937007874015748},{"duration":0.14473689999999806,"durationTicks":33,"midi":77,"name":"F5","ticks":20468,"time":89.77196573333333,"velocity":0.6614173228346457},{"duration":0.14473689999999806,"durationTicks":33,"midi":65,"name":"F4","ticks":20471,"time":89.78512363333334,"velocity":0.4566929133858268},{"duration":1.0307021666666714,"durationTicks":235,"midi":80,"name":"G#5","ticks":20580,"time":90.263194,"velocity":0.7401574803149606},{"duration":1.00877233333334,"durationTicks":230,"midi":68,"name":"G#4","ticks":20585,"time":90.28512383333333,"velocity":0.6456692913385826},{"duration":0.17982463333332532,"durationTicks":41,"midi":78,"name":"F#5","ticks":20800,"time":91.22810666666668,"velocity":0.6850393700787402},{"duration":0.09210530000000006,"durationTicks":21,"midi":66,"name":"F#4","ticks":20805,"time":91.25003650000001,"velocity":0.6299212598425197},{"duration":0.052631599999998,"durationTicks":12,"midi":49,"name":"C#3","ticks":20906,"time":91.69301913333334,"velocity":0.7007874015748031},{"duration":0.20614043333334564,"durationTicks":47,"midi":75,"name":"D#5","ticks":20907,"time":91.6974051,"velocity":0.6614173228346457},{"duration":0.157894799999994,"durationTicks":36,"midi":70,"name":"A#4","ticks":20910,"time":91.71056300000001,"velocity":0.6456692913385826},{"duration":0.2412281666666729,"durationTicks":55,"midi":78,"name":"F#5","ticks":20951,"time":91.89038763333333,"velocity":0.7007874015748031},{"duration":0.1885965666666607,"durationTicks":43,"midi":68,"name":"G#4","ticks":20992,"time":92.07021226666667,"velocity":0.6771653543307087},{"duration":0.11403513333333137,"durationTicks":26,"midi":65,"name":"F4","ticks":20993,"time":92.07459823333333,"velocity":0.47244094488188976},{"duration":0.28508783333333554,"durationTicks":65,"midi":59,"name":"B3","ticks":20996,"time":92.08775613333333,"velocity":0.5039370078740157},{"duration":0.701754666666659,"durationTicks":160,"midi":56,"name":"G#3","ticks":20997,"time":92.0921421,"velocity":0.4881889763779528},{"duration":0.06578950000000816,"durationTicks":15,"midi":77,"name":"F5","ticks":21038,"time":92.27196673333333,"velocity":0.4015748031496063},{"duration":0.15350883333333343,"durationTicks":35,"midi":63,"name":"D#4","ticks":21065,"time":92.39038783333334,"velocity":0.6062992125984252},{"duration":0.21929833333332738,"durationTicks":50,"midi":73,"name":"C#5","ticks":21066,"time":92.39477380000001,"velocity":0.6850393700787402},{"duration":0.09210530000001427,"durationTicks":21,"midi":66,"name":"F#4","ticks":21068,"time":92.40354573333333,"velocity":0.6456692913385826},{"duration":0.12280706666668095,"durationTicks":28,"midi":73,"name":"C#5","ticks":21132,"time":92.68424759999999,"velocity":0.3228346456692913},{"duration":0.07894740000000411,"durationTicks":18,"midi":65,"name":"F4","ticks":21140,"time":92.71933533333333,"velocity":0.5354330708661418},{"duration":0.08771933333332527,"durationTicks":20,"midi":61,"name":"C#4","ticks":21141,"time":92.72372130000001,"velocity":0.5984251968503937},{"duration":0.20175446666665664,"durationTicks":46,"midi":68,"name":"G#4","ticks":21203,"time":92.99565123333333,"velocity":0.6850393700787402},{"duration":0.1622807666666688,"durationTicks":37,"midi":63,"name":"D#4","ticks":21206,"time":93.00880913333333,"velocity":0.6377952755905512},{"duration":0.24561413333333348,"durationTicks":56,"midi":54,"name":"F#3","ticks":21207,"time":93.0131951,"velocity":0.6062992125984252},{"duration":0.4649124666666751,"durationTicks":106,"midi":59,"name":"B3","ticks":21211,"time":93.03073896666666,"velocity":0.49606299212598426},{"duration":0.22807026666666275,"durationTicks":52,"midi":71,"name":"B4","ticks":21247,"time":93.18863376666667,"velocity":0.6614173228346457},{"duration":0.1885965666666607,"durationTicks":43,"midi":61,"name":"C#4","ticks":21291,"time":93.3816163,"velocity":0.6141732283464567},{"duration":0.08771933333332527,"durationTicks":20,"midi":53,"name":"F3","ticks":21296,"time":93.40354613333334,"velocity":0.1889763779527559},{"duration":0.08771933333333948,"durationTicks":20,"midi":70,"name":"A#4","ticks":21323,"time":93.52196723333333,"velocity":0.7244094488188977},{"duration":0.3815790999999962,"durationTicks":87,"midi":51,"name":"D#3","ticks":21371,"time":93.73249363333333,"velocity":0.5354330708661418},{"duration":0.12280706666665253,"durationTicks":28,"midi":59,"name":"B3","ticks":21382,"time":93.78073926666667,"velocity":0.4566929133858268},{"duration":0.969298633333338,"durationTicks":221,"midi":61,"name":"C#4","ticks":21382,"time":93.78073926666667,"velocity":0.4645669291338583},{"duration":0.33771943333333354,"durationTicks":77,"midi":49,"name":"C#3","ticks":21455,"time":94.10091483333333,"velocity":0.5039370078740157},{"duration":0.5263160000000084,"durationTicks":120,"midi":58,"name":"A#3","ticks":21458,"time":94.11407273333333,"velocity":0.5905511811023622},{"duration":1.1315794000000068,"durationTicks":258,"midi":42,"name":"F#2","ticks":21543,"time":94.4868799,"velocity":0.4015748031496063},{"duration":0.33333346666667296,"durationTicks":76,"midi":49,"name":"C#3","ticks":21627,"time":94.85530109999999,"velocity":0.5118110236220472},{"duration":1.4254391666666493,"durationTicks":325,"midi":57,"name":"A3","ticks":21708,"time":95.21056440000001,"velocity":0.5196850393700787},{"duration":0.3815790999999962,"durationTicks":87,"midi":49,"name":"C#3","ticks":21791,"time":95.57459963333334,"velocity":0.4645669291338583},{"duration":1.2412285666666634,"durationTicks":283,"midi":65,"name":"F4","ticks":21875,"time":95.94302083333334,"velocity":0.5354330708661418},{"duration":0.8201757666666651,"durationTicks":187,"midi":43,"name":"G2","ticks":21885,"time":95.9868805,"velocity":0.3464566929133858},{"duration":1.4692988333333403,"durationTicks":335,"midi":49,"name":"C#3","ticks":21967,"time":96.34652976666666,"velocity":0.4015748031496063},{"duration":0.5175440666666589,"durationTicks":118,"midi":58,"name":"A#3","ticks":22060,"time":96.75442466666668,"velocity":0.44881889763779526},{"duration":0.1622807666666688,"durationTicks":37,"midi":64,"name":"E4","ticks":22165,"time":97.21495116666668,"velocity":0.36220472440944884},{"duration":0.09210530000000006,"durationTicks":21,"midi":63,"name":"D#4","ticks":22286,"time":97.74565313333333,"velocity":0.47244094488188976},{"duration":0.04824563333333742,"durationTicks":11,"midi":44,"name":"G#2","ticks":22287,"time":97.7500391,"velocity":0.3700787401574803},{"duration":0.04824563333332321,"durationTicks":11,"midi":59,"name":"B3","ticks":22290,"time":97.763197,"velocity":0.44881889763779526},{"duration":0.07456143333332932,"durationTicks":17,"midi":66,"name":"F#4","ticks":22397,"time":98.23249543333334,"velocity":0.33070866141732286},{"duration":0.07894740000000411,"durationTicks":18,"midi":75,"name":"D#5","ticks":22400,"time":98.24565333333332,"velocity":0.5118110236220472},{"duration":0.057017566666687,"durationTicks":13,"midi":56,"name":"G#3","ticks":22400,"time":98.24565333333332,"velocity":0.4645669291338583},{"duration":0.04385966666666263,"durationTicks":10,"midi":74,"name":"D5","ticks":22402,"time":98.25442526666667,"velocity":0.4330708661417323},{"duration":0.04385966666666263,"durationTicks":10,"midi":71,"name":"B4","ticks":22408,"time":98.28074106666666,"velocity":0.1968503937007874},{"duration":0.04824563333333742,"durationTicks":11,"midi":59,"name":"B3","ticks":22411,"time":98.29389896666666,"velocity":0.1968503937007874},{"duration":0.09210530000001427,"durationTicks":21,"midi":65,"name":"F4","ticks":22478,"time":98.58775873333333,"velocity":0.30708661417322836},{"duration":0.09210530000000006,"durationTicks":21,"midi":73,"name":"C#5","ticks":22481,"time":98.60091663333334,"velocity":0.3700787401574803},{"duration":0.07456143333334353,"durationTicks":17,"midi":59,"name":"B3","ticks":22483,"time":98.60968856666666,"velocity":0.23622047244094488},{"duration":0.06578950000000816,"durationTicks":15,"midi":56,"name":"G#3","ticks":22485,"time":98.6184605,"velocity":0.2440944881889764},{"duration":0.043859666666676844,"durationTicks":10,"midi":72,"name":"C5","ticks":22485,"time":98.6184605,"velocity":0.1968503937007874},{"duration":0.052631599999998,"durationTicks":12,"midi":71,"name":"B4","ticks":22487,"time":98.62723243333335,"velocity":0.33858267716535434},{"duration":0.07456143333334353,"durationTicks":17,"midi":75,"name":"D#5","ticks":22560,"time":98.947408,"velocity":0.4015748031496063},{"duration":0.05263159999998379,"durationTicks":12,"midi":74,"name":"D5","ticks":22561,"time":98.95179396666667,"velocity":0.4094488188976378},{"duration":0.0789473999999899,"durationTicks":18,"midi":63,"name":"D#4","ticks":22562,"time":98.95617993333335,"velocity":0.2755905511811024},{"duration":0.05701756666665858,"durationTicks":13,"midi":56,"name":"G#3","ticks":22566,"time":98.9737238,"velocity":0.36220472440944884},{"duration":0.04824563333333742,"durationTicks":11,"midi":71,"name":"B4","ticks":22566,"time":98.9737238,"velocity":0.25984251968503935},{"duration":0.04824563333333742,"durationTicks":11,"midi":59,"name":"B3","ticks":22573,"time":99.00442556666665,"velocity":0.1968503937007874},{"duration":0.3815791000000104,"durationTicks":87,"midi":54,"name":"F#3","ticks":22850,"time":100.21933833333333,"velocity":0.3700787401574803},{"duration":2.2368429999999933,"durationTicks":510,"midi":57,"name":"A3","ticks":22945,"time":100.63600516666668,"velocity":0.6692913385826772},{"duration":0.3991229666666669,"durationTicks":91,"midi":53,"name":"F3","ticks":22950,"time":100.657935,"velocity":0.4645669291338583},{"duration":1.337719833333324,"durationTicks":305,"midi":51,"name":"D#3","ticks":23028,"time":101.0000404,"velocity":0.5354330708661418},{"duration":1.460526900000005,"durationTicks":333,"midi":65,"name":"F4","ticks":23123,"time":101.41670723333333,"velocity":0.6299212598425197},{"duration":0.969298633333338,"durationTicks":221,"midi":48,"name":"C3","ticks":23332,"time":102.33337426666667,"velocity":0.3543307086614173},{"duration":0.2192983333333558,"durationTicks":50,"midi":64,"name":"E4","ticks":23457,"time":102.88162009999999,"velocity":0.31496062992125984},{"duration":0.08771933333333948,"durationTicks":20,"midi":42,"name":"F#2","ticks":23587,"time":103.45179576666666,"velocity":0.5196850393700787},{"duration":0.09649126666666064,"durationTicks":22,"midi":49,"name":"C#3","ticks":23588,"time":103.45618173333334,"velocity":0.4015748031496063},{"duration":0.05701756666667279,"durationTicks":13,"midi":63,"name":"D#4","ticks":23588,"time":103.45618173333334,"velocity":0.4881889763779528},{"duration":0.043859666666676844,"durationTicks":10,"midi":58,"name":"A#3","ticks":23591,"time":103.46933963333333,"velocity":0.4645669291338583},{"duration":0.10087723333334964,"durationTicks":23,"midi":66,"name":"F#4","ticks":23698,"time":103.93863806666666,"velocity":0.4409448818897638},{"duration":0.07456143333334353,"durationTicks":17,"midi":75,"name":"D#5","ticks":23701,"time":103.95179596666667,"velocity":0.5669291338582677},{"duration":0.043859666666676844,"durationTicks":10,"midi":74,"name":"D5","ticks":23701,"time":103.95179596666667,"velocity":0.5196850393700787},{"duration":0.05701756666665858,"durationTicks":13,"midi":58,"name":"A#3","ticks":23702,"time":103.95618193333334,"velocity":0.4566929133858268},{"duration":0.04824563333333742,"durationTicks":11,"midi":70,"name":"A#4","ticks":23706,"time":103.97372580000001,"velocity":0.3464566929133858},{"duration":0.052631599999998,"durationTicks":12,"midi":61,"name":"C#4","ticks":23707,"time":103.97811176666667,"velocity":0.36220472440944884},{"duration":0.09649126666667485,"durationTicks":22,"midi":73,"name":"C#5","ticks":23778,"time":104.2895154,"velocity":0.5354330708661418},{"duration":0.06578949999999395,"durationTicks":15,"midi":70,"name":"A#4","ticks":23781,"time":104.30267330000001,"velocity":0.47244094488188976},{"duration":0.07456143333332932,"durationTicks":17,"midi":58,"name":"A#3","ticks":23782,"time":104.30705926666667,"velocity":0.33070866141732286},{"duration":0.07456143333334353,"durationTicks":17,"midi":65,"name":"F4","ticks":23783,"time":104.31144523333333,"velocity":0.25984251968503935},{"duration":0.05701756666665858,"durationTicks":13,"midi":61,"name":"C#4","ticks":23790,"time":104.342147,"velocity":0.23622047244094488},{"duration":0.1096491666666708,"durationTicks":25,"midi":75,"name":"D#5","ticks":23861,"time":104.65355063333334,"velocity":0.4015748031496063},{"duration":0.06578950000000816,"durationTicks":15,"midi":58,"name":"A#3","ticks":23865,"time":104.6710945,"velocity":0.36220472440944884},{"duration":0.06578949999999395,"durationTicks":15,"midi":63,"name":"D#4","ticks":23866,"time":104.67548046666667,"velocity":0.4015748031496063},{"duration":0.052631599999998,"durationTicks":12,"midi":70,"name":"A#4","ticks":23867,"time":104.67986643333334,"velocity":0.3779527559055118},{"duration":0.05263160000001221,"durationTicks":12,"midi":74,"name":"D5","ticks":23870,"time":104.69302433333333,"velocity":0.28346456692913385},{"duration":0.46491246666666086,"durationTicks":106,"midi":73,"name":"C#5","ticks":24172,"time":106.01758626666667,"velocity":0.7874015748031497},{"duration":0.530701966666669,"durationTicks":121,"midi":61,"name":"C#4","ticks":24173,"time":106.02197223333333,"velocity":0.7165354330708661},{"duration":0.11403513333333137,"durationTicks":26,"midi":81,"name":"A5","ticks":24347,"time":106.78513043333334,"velocity":0.8346456692913385},{"duration":0.10964916666665658,"durationTicks":25,"midi":69,"name":"A4","ticks":24348,"time":106.78951640000001,"velocity":0.7716535433070866},{"duration":0.5614037333333215,"durationTicks":128,"midi":83,"name":"B5","ticks":24447,"time":107.2237271,"velocity":0.9291338582677166},{"duration":0.5526318000000003,"durationTicks":126,"midi":71,"name":"B4","ticks":24450,"time":107.236885,"velocity":0.7637795275590551},{"duration":0.20175446666665664,"durationTicks":46,"midi":82,"name":"A#5","ticks":24647,"time":108.10092043333334,"velocity":0.8110236220472441},{"duration":0.09649126666666064,"durationTicks":22,"midi":70,"name":"A#4","ticks":24652,"time":108.12285026666667,"velocity":0.7716535433070866},{"duration":0.0789473999999899,"durationTicks":18,"midi":47,"name":"B2","ticks":24745,"time":108.53074516666668,"velocity":0.6614173228346457},{"duration":0.22368429999998796,"durationTicks":51,"midi":77,"name":"F5","ticks":24745,"time":108.53074516666668,"velocity":0.7795275590551181},{"duration":0.21929833333332738,"durationTicks":50,"midi":70,"name":"A#4","ticks":24746,"time":108.53513113333334,"velocity":0.8031496062992126},{"duration":0.2894737999999961,"durationTicks":66,"midi":80,"name":"G#5","ticks":24788,"time":108.71934173333334,"velocity":0.7874015748031497},{"duration":0.6710529000000065,"durationTicks":153,"midi":63,"name":"D#4","ticks":24830,"time":108.90355233333332,"velocity":0.4881889763779528},{"duration":0.8377196333333359,"durationTicks":191,"midi":54,"name":"F#3","ticks":24831,"time":108.90793830000001,"velocity":0.5196850393700787},{"duration":0.1885965666666749,"durationTicks":43,"midi":68,"name":"G#4","ticks":24833,"time":108.91671023333333,"velocity":0.7480314960629921},{"duration":0.8026318999999944,"durationTicks":183,"midi":56,"name":"G#3","ticks":24838,"time":108.93864006666666,"velocity":0.5590551181102362},{"duration":0.7105265999999943,"durationTicks":162,"midi":59,"name":"B3","ticks":24843,"time":108.96056990000001,"velocity":0.3543307086614173},{"duration":0.1359649666666769,"durationTicks":31,"midi":78,"name":"F#5","ticks":24868,"time":109.07021906666667,"velocity":0.7401574803149606},{"duration":0.1359649666666627,"durationTicks":31,"midi":66,"name":"F#4","ticks":24907,"time":109.24127176666667,"velocity":0.7716535433070866},{"duration":0.425438766666673,"durationTicks":97,"midi":75,"name":"D#5","ticks":24908,"time":109.24565773333333,"velocity":0.7322834645669292},{"duration":0.11403513333331716,"durationTicks":26,"midi":65,"name":"F4","ticks":24977,"time":109.54828943333334,"velocity":0.5590551181102362},{"duration":0.14035093333333748,"durationTicks":32,"midi":70,"name":"A#4","ticks":25043,"time":109.83776323333333,"velocity":0.7874015748031497},{"duration":0.23245623333333754,"durationTicks":53,"midi":63,"name":"D#4","ticks":25046,"time":109.85092113333333,"velocity":0.5905511811023622},{"duration":0.18421060000001432,"durationTicks":42,"midi":73,"name":"C#5","ticks":25085,"time":110.02197383333333,"velocity":0.6850393700787402},{"duration":0.1315790000000021,"durationTicks":30,"midi":61,"name":"C#4","ticks":25118,"time":110.16671073333333,"velocity":0.5669291338582677},{"duration":0.08771933333332527,"durationTicks":20,"midi":71,"name":"B4","ticks":25146,"time":110.28951780000001,"velocity":0.6929133858267716},{"duration":0.12280706666668095,"durationTicks":28,"midi":59,"name":"B3","ticks":25198,"time":110.51758806666666,"velocity":0.3543307086614173},{"duration":0.15350883333334764,"durationTicks":35,"midi":65,"name":"F4","ticks":25198,"time":110.51758806666666,"velocity":0.7086614173228346},{"duration":0.14035093333333748,"durationTicks":32,"midi":58,"name":"A#3","ticks":25243,"time":110.71495656666666,"velocity":0.5984251968503937},{"duration":0.11403513333333137,"durationTicks":26,"midi":66,"name":"F#4","ticks":25278,"time":110.8684654,"velocity":0.7559055118110236},{"duration":0.05263160000001221,"durationTicks":12,"midi":56,"name":"G#3","ticks":25295,"time":110.94302683333333,"velocity":0.6456692913385826},{"duration":2.982457333333329,"durationTicks":680,"midi":63,"name":"D#4","ticks":25352,"time":111.19302693333334,"velocity":0.6692913385826772},{"duration":2.9210537999999815,"durationTicks":666,"midi":59,"name":"B3","ticks":25356,"time":111.21057080000001,"velocity":0.6771653543307087},{"duration":2.8859660666666684,"durationTicks":658,"midi":54,"name":"F#3","ticks":25358,"time":111.21934273333333,"velocity":0.6692913385826772},{"duration":0.16666673333332938,"durationTicks":38,"midi":46,"name":"A#2","ticks":25358,"time":111.21934273333333,"velocity":0.5748031496062992},{"duration":0.20175446666667085,"durationTicks":46,"midi":49,"name":"C#3","ticks":25396,"time":111.38600946666666,"velocity":0.6062992125984252},{"duration":0.1096491666666708,"durationTicks":25,"midi":47,"name":"B2","ticks":25466,"time":111.69302713333333,"velocity":0.5905511811023622},{"duration":0.7719301333333277,"durationTicks":176,"midi":37,"name":"C#2","ticks":25507,"time":111.87285176666667,"velocity":0.6456692913385826},{"duration":0.11403513333333137,"durationTicks":26,"midi":39,"name":"D#2","ticks":25686,"time":112.65793980000001,"velocity":0.5905511811023622},{"duration":0.11842110000000616,"durationTicks":27,"midi":41,"name":"F2","ticks":25776,"time":113.0526768,"velocity":0.4645669291338583},{"duration":0.11842109999999195,"durationTicks":27,"midi":39,"name":"D#2","ticks":25808,"time":113.19302773333334,"velocity":0.44881889763779526},{"duration":2.425439566666668,"durationTicks":553,"midi":37,"name":"C#2","ticks":25905,"time":113.6184665,"velocity":0.4330708661417323},{"duration":0.15350883333333343,"durationTicks":35,"midi":70,"name":"A#4","ticks":26095,"time":114.45180016666667,"velocity":0.3543307086614173},{"duration":0.10964916666665658,"durationTicks":25,"midi":68,"name":"G#4","ticks":26136,"time":114.63162480000001,"velocity":0.41732283464566927},{"duration":0.06578949999999395,"durationTicks":15,"midi":70,"name":"A#4","ticks":26223,"time":115.01320390000001,"velocity":0.5118110236220472},{"duration":0.1842106000000001,"durationTicks":42,"midi":70,"name":"A#4","ticks":26416,"time":115.85969546666666,"velocity":0.5354330708661418},{"duration":0.11403513333333137,"durationTicks":26,"midi":68,"name":"G#4","ticks":26453,"time":116.02197623333333,"velocity":0.5748031496062992},{"duration":0.07894739999997569,"durationTicks":18,"midi":70,"name":"A#4","ticks":26537,"time":116.39039743333335,"velocity":0.6377952755905512},{"duration":2.1184219000000013,"durationTicks":483,"midi":61,"name":"C#4","ticks":26626,"time":116.78074846666667,"velocity":0.5984251968503937},{"duration":1.192982933333326,"durationTicks":272,"midi":54,"name":"F#3","ticks":26628,"time":116.7895204,"velocity":0.47244094488188976},{"duration":2.0877201333333346,"durationTicks":476,"midi":59,"name":"B3","ticks":26630,"time":116.79829233333334,"velocity":0.6062992125984252},{"duration":0.1622807666666688,"durationTicks":37,"midi":46,"name":"A#2","ticks":26632,"time":116.80706426666667,"velocity":0.5275590551181102},{"duration":0.12280706666666674,"durationTicks":28,"midi":49,"name":"C#3","ticks":26675,"time":116.99566083333333,"velocity":0.6141732283464567},{"duration":0.12280706666668095,"durationTicks":28,"midi":46,"name":"A#2","ticks":26758,"time":117.35969606666666,"velocity":0.5748031496062992},{"duration":0.20614043333334564,"durationTicks":47,"midi":37,"name":"C#2","ticks":26795,"time":117.52197683333333,"velocity":0.5354330708661418},{"duration":0.15789480000000822,"durationTicks":36,"midi":39,"name":"D#2","ticks":26843,"time":117.73250323333333,"velocity":0.5669291338582677},{"duration":0.10964916666665658,"durationTicks":25,"midi":41,"name":"F2","ticks":26935,"time":118.13601216666667,"velocity":0.3937007874015748},{"duration":0.11403513333334558,"durationTicks":26,"midi":39,"name":"D#2","ticks":26982,"time":118.34215259999999,"velocity":0.44881889763779526},{"duration":0.5087721333333235,"durationTicks":116,"midi":53,"name":"F3","ticks":26987,"time":118.36408243333334,"velocity":0.44881889763779526},{"duration":2.9210537999999815,"durationTicks":666,"midi":37,"name":"C#2","ticks":27081,"time":118.77636330000001,"velocity":0.3858267716535433},{"duration":0.10964916666665658,"durationTicks":25,"midi":70,"name":"A#4","ticks":27160,"time":119.12285466666667,"velocity":0.4645669291338583},{"duration":0.09210529999998585,"durationTicks":21,"midi":68,"name":"G#4","ticks":27201,"time":119.30267930000001,"velocity":0.4881889763779528},{"duration":0.07456143333332932,"durationTicks":17,"midi":70,"name":"A#4","ticks":27298,"time":119.72811806666667,"velocity":0.4645669291338583},{"duration":0.17543866666666474,"durationTicks":40,"midi":70,"name":"A#4","ticks":27570,"time":120.92110100000001,"velocity":0.3937007874015748},{"duration":0.1096491666666708,"durationTicks":25,"midi":68,"name":"G#4","ticks":27616,"time":121.12285546666666,"velocity":0.4251968503937008},{"duration":0.07017546666666874,"durationTicks":16,"midi":70,"name":"A#4","ticks":27723,"time":121.5921539,"velocity":0.4251968503937008},{"duration":0.22807026666666275,"durationTicks":52,"midi":70,"name":"A#4","ticks":27843,"time":122.11846990000001,"velocity":0.5354330708661418},{"duration":0.1096491666666708,"durationTicks":25,"midi":68,"name":"G#4","ticks":27900,"time":122.36847,"velocity":0.4566929133858268},{"duration":0.1096491666666708,"durationTicks":25,"midi":70,"name":"A#4","ticks":27996,"time":122.7895228,"velocity":0.5669291338582677},{"duration":0.10087723333333543,"durationTicks":23,"midi":65,"name":"F4","ticks":28051,"time":123.03075096666666,"velocity":0.3937007874015748},{"duration":0.10087723333334964,"durationTicks":23,"midi":70,"name":"A#4","ticks":28153,"time":123.47811956666666,"velocity":0.5590551181102362},{"duration":0.20175446666667085,"durationTicks":46,"midi":68,"name":"G#4","ticks":28266,"time":123.9737338,"velocity":0.5669291338582677},{"duration":0.10964916666665658,"durationTicks":25,"midi":65,"name":"F4","ticks":28330,"time":124.25443566666668,"velocity":0.3543307086614173},{"duration":0.1096491666666708,"durationTicks":25,"midi":63,"name":"D#4","ticks":28447,"time":124.76759376666666,"velocity":0.36220472440944884},{"duration":0.08771933333332527,"durationTicks":20,"midi":59,"name":"B3","ticks":28522,"time":125.09654126666668,"velocity":0.2755905511811024},{"duration":0.1403509333333517,"durationTicks":32,"midi":63,"name":"D#4","ticks":28688,"time":125.82461173333333,"velocity":0.29133858267716534},{"duration":0.08771933333332527,"durationTicks":20,"midi":58,"name":"A#3","ticks":28946,"time":126.95619113333333,"velocity":0.6771653543307087},{"duration":0.1096491666666708,"durationTicks":25,"midi":46,"name":"A#2","ticks":28950,"time":126.973735,"velocity":0.5905511811023622},{"duration":0.09210530000000006,"durationTicks":21,"midi":39,"name":"D#2","ticks":28951,"time":126.97812096666667,"velocity":0.5905511811023622},{"duration":0.2982457333333315,"durationTicks":68,"midi":58,"name":"A#3","ticks":28982,"time":127.11408593333334,"velocity":0.6771653543307087},{"duration":0.07456143333332932,"durationTicks":17,"midi":55,"name":"G3","ticks":29023,"time":127.29391056666667,"velocity":0.6771653543307087},{"duration":0.04824563333333742,"durationTicks":11,"midi":53,"name":"F3","ticks":29032,"time":127.33338426666667,"velocity":0.4015748031496063},{"duration":0.08771933333332527,"durationTicks":20,"midi":60,"name":"C4","ticks":29061,"time":127.46057730000001,"velocity":0.7165354330708661},{"duration":0.07456143333332932,"durationTicks":17,"midi":46,"name":"A#2","ticks":29085,"time":127.56584050000001,"velocity":0.7086614173228346},{"duration":0.030701766666666686,"durationTicks":7,"midi":39,"name":"D#2","ticks":29086,"time":127.57022646666667,"velocity":0.6850393700787402},{"duration":0.11403513333334558,"durationTicks":26,"midi":58,"name":"A#3","ticks":29090,"time":127.58777033333332,"velocity":0.7244094488188977},{"duration":0.06578949999999395,"durationTicks":15,"midi":55,"name":"G3","ticks":29155,"time":127.87285816666667,"velocity":0.7559055118110236},{"duration":0.07894740000000411,"durationTicks":18,"midi":70,"name":"A#4","ticks":29156,"time":127.87724413333333,"velocity":0.9291338582677166},{"duration":0.08771933333333948,"durationTicks":20,"midi":63,"name":"D#4","ticks":29157,"time":127.8816301,"velocity":0.8582677165354331},{"duration":0.04824563333333742,"durationTicks":11,"midi":53,"name":"F3","ticks":29163,"time":127.9079459,"velocity":0.4645669291338583},{"duration":0.07456143333334353,"durationTicks":17,"midi":39,"name":"D#2","ticks":29223,"time":128.1711039,"velocity":0.7322834645669292},{"duration":1.0000004000000047,"durationTicks":228,"midi":58,"name":"A#3","ticks":29225,"time":128.17987583333334,"velocity":0.9133858267716536},{"duration":0.07017546666665453,"durationTicks":16,"midi":46,"name":"A#2","ticks":29226,"time":128.1842618,"velocity":0.6614173228346457},{"duration":0.06578949999999395,"durationTicks":15,"midi":55,"name":"G3","ticks":29292,"time":128.4737356,"velocity":0.5511811023622047},{"duration":0.05263160000001221,"durationTicks":12,"midi":53,"name":"F3","ticks":29293,"time":128.47812156666666,"velocity":0.6456692913385826},{"duration":0.11842110000000616,"durationTicks":27,"midi":46,"name":"A#2","ticks":29361,"time":128.7763673,"velocity":0.5905511811023622},{"duration":0.05263159999998379,"durationTicks":12,"midi":39,"name":"D#2","ticks":29365,"time":128.79391116666667,"velocity":0.3858267716535433},{"duration":0.04824563333332321,"durationTicks":11,"midi":53,"name":"F3","ticks":29435,"time":129.10092883333334,"velocity":0.36220472440944884},{"duration":0.035087733333341475,"durationTicks":8,"midi":55,"name":"G3","ticks":29437,"time":129.10970076666666,"velocity":0.1968503937007874},{"duration":0.12280706666666674,"durationTicks":28,"midi":58,"name":"A#3","ticks":29493,"time":129.3553149,"velocity":0.6062992125984252},{"duration":0.057017566666701214,"durationTicks":13,"midi":46,"name":"A#2","ticks":29495,"time":129.36408683333332,"velocity":0.5039370078740157},{"duration":0.04385966666666263,"durationTicks":10,"midi":39,"name":"D#2","ticks":29496,"time":129.3684728,"velocity":0.36220472440944884},{"duration":0.11403513333334558,"durationTicks":26,"midi":56,"name":"G#3","ticks":29530,"time":129.51759566666667,"velocity":0.6771653543307087},{"duration":0.05263159999998379,"durationTicks":12,"midi":53,"name":"F3","ticks":29561,"time":129.65356063333334,"velocity":0.33858267716535434},{"duration":0.04824563333332321,"durationTicks":11,"midi":51,"name":"D#3","ticks":29563,"time":129.66233256666666,"velocity":0.3464566929133858},{"duration":0.11842110000000616,"durationTicks":27,"midi":58,"name":"A#3","ticks":29586,"time":129.7632098,"velocity":0.5748031496062992},{"duration":0.09210530000001427,"durationTicks":21,"midi":60,"name":"C4","ticks":29618,"time":129.90356073333334,"velocity":0.5669291338582677},{"duration":0.035087733333313054,"durationTicks":8,"midi":39,"name":"D#2","ticks":29621,"time":129.91671863333335,"velocity":0.5590551181102362},{"duration":0.05263160000001221,"durationTicks":12,"midi":46,"name":"A#2","ticks":29627,"time":129.94303443333334,"velocity":0.3858267716535433},{"duration":0.08771933333332527,"durationTicks":20,"midi":56,"name":"G#3","ticks":29683,"time":130.18864856666667,"velocity":0.6535433070866141},{"duration":0.05701756666667279,"durationTicks":13,"midi":51,"name":"D#3","ticks":29687,"time":130.20619243333334,"velocity":0.5354330708661418},{"duration":0.04824563333332321,"durationTicks":11,"midi":53,"name":"F3","ticks":29688,"time":130.2105784,"velocity":0.3779527559055118},{"duration":0.15350883333331922,"durationTicks":35,"midi":58,"name":"A#3","ticks":29747,"time":130.46935043333335,"velocity":0.7086614173228346},{"duration":0.04385966666666263,"durationTicks":10,"midi":39,"name":"D#2","ticks":29748,"time":130.4737364,"velocity":0.5748031496062992},{"duration":0.04824563333332321,"durationTicks":11,"midi":46,"name":"A#2","ticks":29752,"time":130.49128026666668,"velocity":0.4881889763779528},{"duration":0.09649126666667485,"durationTicks":22,"midi":56,"name":"G#3","ticks":29783,"time":130.62724523333333,"velocity":0.6771653543307087},{"duration":0.07456143333334353,"durationTicks":17,"midi":51,"name":"D#3","ticks":29817,"time":130.77636809999998,"velocity":0.5590551181102362},{"duration":0.04824563333332321,"durationTicks":11,"midi":53,"name":"F3","ticks":29818,"time":130.78075406666667,"velocity":0.48031496062992124},{"duration":0.10087723333333543,"durationTicks":23,"midi":58,"name":"A#3","ticks":29851,"time":130.92549096666667,"velocity":0.5984251968503937},{"duration":0.05263160000001221,"durationTicks":12,"midi":39,"name":"D#2","ticks":29878,"time":131.04391206666665,"velocity":0.5905511811023622},{"duration":0.05263159999998379,"durationTicks":12,"midi":46,"name":"A#2","ticks":29882,"time":131.06145593333335,"velocity":0.5196850393700787},{"duration":0.06578949999999395,"durationTicks":15,"midi":59,"name":"B3","ticks":29885,"time":131.07461383333333,"velocity":0.5511811023622047},{"duration":0.07017546666668295,"durationTicks":16,"midi":51,"name":"D#3","ticks":29951,"time":131.36408763333333,"velocity":0.6062992125984252},{"duration":0.07894740000000411,"durationTicks":18,"midi":56,"name":"G#3","ticks":29952,"time":131.3684736,"velocity":0.6614173228346457},{"duration":0.04385966666666263,"durationTicks":10,"midi":53,"name":"F3","ticks":29955,"time":131.3816315,"velocity":0.2755905511811024},{"duration":0.15789480000000822,"durationTicks":36,"midi":58,"name":"A#3","ticks":30016,"time":131.64917546666666,"velocity":0.6850393700787402},{"duration":0.15350883333334764,"durationTicks":35,"midi":46,"name":"A#2","ticks":30020,"time":131.66671933333333,"velocity":0.6850393700787402},{"duration":0.28508783333333554,"durationTicks":65,"midi":43,"name":"G2","ticks":30056,"time":131.82461413333334,"velocity":0.5196850393700787},{"duration":0.2412281666666729,"durationTicks":55,"midi":55,"name":"G3","ticks":30056,"time":131.82461413333334,"velocity":0.6220472440944882},{"duration":0.04824563333332321,"durationTicks":11,"midi":41,"name":"F2","ticks":30118,"time":132.09654406666667,"velocity":0.5905511811023622},{"duration":0.10964916666665658,"durationTicks":25,"midi":53,"name":"F3","ticks":30121,"time":132.10970196666668,"velocity":0.6377952755905512},{"duration":0.10964916666665658,"durationTicks":25,"midi":39,"name":"D#2","ticks":30155,"time":132.25882483333334,"velocity":0.6299212598425197},{"duration":0.15350883333334764,"durationTicks":35,"midi":51,"name":"D#3","ticks":30156,"time":132.2632108,"velocity":0.6141732283464567},{"duration":0.08771933333332527,"durationTicks":20,"midi":50,"name":"D3","ticks":30225,"time":132.5658425,"velocity":0.6377952755905512},{"duration":0.05263160000001221,"durationTicks":12,"midi":38,"name":"D2","ticks":30226,"time":132.57022846666666,"velocity":0.5669291338582677},{"duration":0.09649126666667485,"durationTicks":22,"midi":48,"name":"C3","ticks":30293,"time":132.86408823333332,"velocity":0.7322834645669292},{"duration":0.10087723333333543,"durationTicks":23,"midi":36,"name":"C2","ticks":30295,"time":132.87286016666667,"velocity":0.6062992125984252},{"duration":0.11842110000000616,"durationTicks":27,"midi":31,"name":"G1","ticks":30361,"time":133.16233396666667,"velocity":0.6850393700787402},{"duration":0.12280706666663832,"durationTicks":28,"midi":43,"name":"G2","ticks":30363,"time":133.17110590000001,"velocity":0.7795275590551181},{"duration":0.15350883333331922,"durationTicks":35,"midi":48,"name":"C3","ticks":30430,"time":133.46496566666667,"velocity":0.7874015748031497},{"duration":0.109649166666685,"durationTicks":25,"midi":36,"name":"C2","ticks":30431,"time":133.46935163333333,"velocity":0.7559055118110236},{"duration":0.06578950000002237,"durationTicks":15,"midi":50,"name":"D3","ticks":30497,"time":133.75882543333333,"velocity":0.7795275590551181},{"duration":0.07894740000000411,"durationTicks":18,"midi":38,"name":"D2","ticks":30498,"time":133.76321140000002,"velocity":0.7322834645669292},{"duration":0.21929833333331317,"durationTicks":50,"midi":70,"name":"A#4","ticks":30573,"time":134.09215890000002,"velocity":0.968503937007874},{"duration":0.08771933333335369,"durationTicks":20,"midi":39,"name":"D#2","ticks":30577,"time":134.10970276666666,"velocity":0.7716535433070866},{"duration":0.07456143333331511,"durationTicks":17,"midi":46,"name":"A#2","ticks":30578,"time":134.11408873333335,"velocity":0.7401574803149606},{"duration":0.210526399999992,"durationTicks":48,"midi":68,"name":"G#4","ticks":30606,"time":134.2368958,"velocity":0.7322834645669292},{"duration":0.14035093333333748,"durationTicks":32,"midi":63,"name":"D#4","ticks":30643,"time":134.39917656666665,"velocity":0.7559055118110236},{"duration":0.13596496666664848,"durationTicks":31,"midi":59,"name":"B3","ticks":30647,"time":134.41672043333335,"velocity":0.8031496062992126},{"duration":0.07017546666668295,"durationTicks":16,"midi":56,"name":"G#3","ticks":30650,"time":134.42987833333333,"velocity":0.7322834645669292},{"duration":0.06578949999999395,"durationTicks":15,"midi":53,"name":"F3","ticks":30652,"time":134.43865026666668,"velocity":0.7086614173228346},{"duration":0.15350883333331922,"durationTicks":35,"midi":70,"name":"A#4","ticks":30687,"time":134.5921591,"velocity":0.6850393700787402},{"duration":0.07894740000000411,"durationTicks":18,"midi":39,"name":"D#2","ticks":30703,"time":134.66233456666666,"velocity":0.8503937007874016},{"duration":0.07894739999997569,"durationTicks":18,"midi":46,"name":"A#2","ticks":30705,"time":134.6711065,"velocity":0.8031496062992126},{"duration":0.1315789999999879,"durationTicks":30,"midi":65,"name":"F4","ticks":30706,"time":134.67549246666667,"velocity":0.7637795275590551},{"duration":0.12280706666663832,"durationTicks":28,"midi":70,"name":"A#4","ticks":30777,"time":134.98689610000002,"velocity":0.9212598425196851},{"duration":0.030701766666652475,"durationTicks":7,"midi":56,"name":"G#3","ticks":30778,"time":134.99128206666668,"velocity":0.7165354330708661},{"duration":0.07456143333331511,"durationTicks":17,"midi":59,"name":"B3","ticks":30781,"time":135.00443996666667,"velocity":0.8503937007874016},{"duration":0.05263160000001221,"durationTicks":12,"midi":52,"name":"E3","ticks":30781,"time":135.00443996666667,"velocity":0.3543307086614173},{"duration":0.08771933333335369,"durationTicks":20,"midi":63,"name":"D#4","ticks":30781,"time":135.00443996666667,"velocity":0.8110236220472441},{"duration":0.030701766666680896,"durationTicks":7,"midi":51,"name":"D#3","ticks":30788,"time":135.03514173333332,"velocity":0.2283464566929134},{"duration":0.07894740000000411,"durationTicks":18,"midi":39,"name":"D#2","ticks":30841,"time":135.26759796666667,"velocity":0.7952755905511811},{"duration":0.10087723333333543,"durationTicks":23,"midi":68,"name":"G#4","ticks":30842,"time":135.27198393333333,"velocity":0.968503937007874},{"duration":0.04824563333332321,"durationTicks":11,"midi":46,"name":"A#2","ticks":30845,"time":135.28514183333334,"velocity":0.6850393700787402},{"duration":0.23245623333332333,"durationTicks":53,"midi":65,"name":"F4","ticks":30877,"time":135.42549276666668,"velocity":0.8031496062992126},{"duration":0.06578950000002237,"durationTicks":15,"midi":56,"name":"G#3","ticks":30911,"time":135.5746156333333,"velocity":0.7480314960629921},{"duration":0.07894739999997569,"durationTicks":18,"midi":53,"name":"F3","ticks":30912,"time":135.57900160000003,"velocity":0.6377952755905512},{"duration":0.030701766666652475,"durationTicks":7,"midi":59,"name":"B3","ticks":30912,"time":135.57900160000003,"velocity":0.6850393700787402},{"duration":0.10964916666665658,"durationTicks":25,"midi":63,"name":"D#4","ticks":30945,"time":135.7237385,"velocity":0.8188976377952756},{"duration":0.030701766666652475,"durationTicks":7,"midi":39,"name":"D#2","ticks":30975,"time":135.8553175,"velocity":0.7874015748031497},{"duration":0.035087733333313054,"durationTicks":8,"midi":46,"name":"A#2","ticks":30976,"time":135.85970346666667,"velocity":0.7480314960629921},{"duration":0.109649166666685,"durationTicks":25,"midi":59,"name":"B3","ticks":30977,"time":135.86408943333333,"velocity":0.8818897637795275},{"duration":0.10964916666665658,"durationTicks":25,"midi":63,"name":"D#4","ticks":31042,"time":136.14917726666667,"velocity":0.9133858267716536},{"duration":0.06578949999999395,"durationTicks":15,"midi":56,"name":"G#3","ticks":31042,"time":136.14917726666667,"velocity":0.7874015748031497},{"duration":0.030701766666680896,"durationTicks":7,"midi":59,"name":"B3","ticks":31045,"time":136.16233516666665,"velocity":0.5984251968503937},{"duration":0.07456143333337195,"durationTicks":17,"midi":58,"name":"A#3","ticks":31106,"time":136.42987913333332,"velocity":0.9291338582677166},{"duration":0.07456143333334353,"durationTicks":17,"midi":39,"name":"D#2","ticks":31108,"time":136.43865106666667,"velocity":0.7952755905511811},{"duration":0.07456143333331511,"durationTicks":17,"midi":46,"name":"A#2","ticks":31110,"time":136.44742300000001,"velocity":0.7874015748031497},{"duration":0.2763159000000144,"durationTicks":63,"midi":58,"name":"A#3","ticks":31135,"time":136.55707216666667,"velocity":0.9212598425196851},{"duration":0.08771933333332527,"durationTicks":20,"midi":55,"name":"G3","ticks":31173,"time":136.7237389,"velocity":0.7559055118110236},{"duration":0.048245633333351634,"durationTicks":11,"midi":53,"name":"F3","ticks":31181,"time":136.7588266333333,"velocity":0.5196850393700787},{"duration":0.07456143333331511,"durationTicks":17,"midi":60,"name":"C4","ticks":31213,"time":136.89917756666668,"velocity":0.7716535433070866},{"duration":0.07456143333331511,"durationTicks":17,"midi":39,"name":"D#2","ticks":31237,"time":137.00444076666668,"velocity":0.7716535433070866},{"duration":0.12280706666666674,"durationTicks":28,"midi":58,"name":"A#3","ticks":31238,"time":137.00882673333334,"velocity":0.8503937007874016},{"duration":0.043859666666691055,"durationTicks":10,"midi":46,"name":"A#2","ticks":31241,"time":137.02198463333332,"velocity":0.6771653543307087},{"duration":0.09210530000001427,"durationTicks":21,"midi":70,"name":"A#4","ticks":31303,"time":137.29391456666667,"velocity":0.9448818897637795},{"duration":0.07894740000003253,"durationTicks":18,"midi":63,"name":"D#4","ticks":31306,"time":137.30707246666665,"velocity":0.7874015748031497},{"duration":0.030701766666652475,"durationTicks":7,"midi":55,"name":"G3","ticks":31311,"time":137.3290023,"velocity":0.6377952755905512},{"duration":0.030701766666652475,"durationTicks":7,"midi":53,"name":"F3","ticks":31311,"time":137.3290023,"velocity":0.6062992125984252},{"duration":0.04385966666666263,"durationTicks":10,"midi":64,"name":"E4","ticks":31313,"time":137.33777423333333,"velocity":0.4330708661417323},{"duration":0.030701766666680896,"durationTicks":7,"midi":39,"name":"D#2","ticks":31375,"time":137.60970416666666,"velocity":0.7165354330708661},{"duration":0.9561407333333705,"durationTicks":218,"midi":58,"name":"A#3","ticks":31376,"time":137.61409013333332,"velocity":0.8818897637795275},{"duration":0.04824563333332321,"durationTicks":11,"midi":46,"name":"A#2","ticks":31377,"time":137.6184761,"velocity":0.5984251968503937},{"duration":0.07456143333337195,"durationTicks":17,"midi":55,"name":"G3","ticks":31442,"time":137.90356393333332,"velocity":0.6299212598425197},{"duration":0.035087733333313054,"durationTicks":8,"midi":53,"name":"F3","ticks":31447,"time":137.92549376666668,"velocity":0.6377952755905512},{"duration":0.10964916666665658,"durationTicks":25,"midi":39,"name":"D#2","ticks":31507,"time":138.18865176666668,"velocity":0.6850393700787402},{"duration":0.11403513333331716,"durationTicks":26,"midi":46,"name":"A#2","ticks":31515,"time":138.2237395,"velocity":0.5196850393700787},{"duration":0.05263160000001221,"durationTicks":12,"midi":55,"name":"G3","ticks":31583,"time":138.52198523333334,"velocity":0.3228346456692913},{"duration":0.048245633333351634,"durationTicks":11,"midi":53,"name":"F3","ticks":31585,"time":138.53075716666666,"velocity":0.41732283464566927},{"duration":0.048245633333351634,"durationTicks":11,"midi":58,"name":"A#3","ticks":31638,"time":138.76321339999998,"velocity":0.6771653543307087},{"duration":0.04824563333332321,"durationTicks":11,"midi":42,"name":"F#2","ticks":31640,"time":138.77198533333333,"velocity":0.5275590551181102},{"duration":0.04824563333332321,"durationTicks":11,"midi":49,"name":"C#3","ticks":31641,"time":138.7763713,"velocity":0.5590551181102362},{"duration":0.14473690000002648,"durationTicks":33,"midi":58,"name":"A#3","ticks":31675,"time":138.92549416666665,"velocity":0.6771653543307087},{"duration":0.05263160000001221,"durationTicks":12,"midi":54,"name":"F#3","ticks":31706,"time":139.06145913333333,"velocity":0.5590551181102362},{"duration":0.043859666666691055,"durationTicks":10,"midi":56,"name":"G#3","ticks":31706,"time":139.06145913333333,"velocity":0.5590551181102362},{"duration":0.100877233333307,"durationTicks":23,"midi":60,"name":"C4","ticks":31742,"time":139.21935393333334,"velocity":0.5905511811023622},{"duration":0.04824563333332321,"durationTicks":11,"midi":42,"name":"F#2","ticks":31768,"time":139.33338906666668,"velocity":0.6535433070866141},{"duration":0.07894740000003253,"durationTicks":18,"midi":58,"name":"A#3","ticks":31772,"time":139.35093293333333,"velocity":0.6535433070866141},{"duration":0.09210530000001427,"durationTicks":21,"midi":61,"name":"C#4","ticks":31837,"time":139.63602076666666,"velocity":0.6692913385826772},{"duration":0.035087733333341475,"durationTicks":8,"midi":54,"name":"F#3","ticks":31838,"time":139.64040673333332,"velocity":0.6456692913385826},{"duration":0.035087733333313054,"durationTicks":8,"midi":57,"name":"A3","ticks":31840,"time":139.64917866666667,"velocity":0.5039370078740157},{"duration":0.048245633333351634,"durationTicks":11,"midi":42,"name":"F#2","ticks":31900,"time":139.91233666666665,"velocity":0.6850393700787402},{"duration":0.13596496666670532,"durationTicks":31,"midi":63,"name":"D#4","ticks":31901,"time":139.9167226333333,"velocity":0.7559055118110236},{"duration":0.09649126666667485,"durationTicks":22,"midi":65,"name":"F4","ticks":31966,"time":140.20181046666667,"velocity":0.7086614173228346},{"duration":0.035087733333341475,"durationTicks":8,"midi":58,"name":"A#3","ticks":31968,"time":140.2105824,"velocity":0.6850393700787402},{"duration":0.04385966666666263,"durationTicks":10,"midi":49,"name":"C#3","ticks":31970,"time":140.21935433333334,"velocity":0.6062992125984252},{"duration":0.035087733333341475,"durationTicks":8,"midi":54,"name":"F#3","ticks":31971,"time":140.2237403,"velocity":0.5905511811023622},{"duration":0.07894740000000411,"durationTicks":18,"midi":42,"name":"F#2","ticks":32033,"time":140.49567023333333,"velocity":0.7716535433070866},{"duration":0.11403513333334558,"durationTicks":26,"midi":63,"name":"D#4","ticks":32035,"time":140.50444216666665,"velocity":0.84251968503937},{"duration":0.09649126666667485,"durationTicks":22,"midi":66,"name":"F#4","ticks":32098,"time":140.78075806666666,"velocity":0.8740157480314961},{"duration":0.026315799999991896,"durationTicks":6,"midi":49,"name":"C#3","ticks":32101,"time":140.79391596666667,"velocity":0.7322834645669292},{"duration":0.030701766666652475,"durationTicks":7,"midi":59,"name":"B3","ticks":32102,"time":140.79830193333333,"velocity":0.7637795275590551},{"duration":0.030701766666652475,"durationTicks":7,"midi":54,"name":"F#3","ticks":32103,"time":140.8026879,"velocity":0.6535433070866141},{"duration":0.07017546666668295,"durationTicks":16,"midi":65,"name":"F4","ticks":32160,"time":141.052688,"velocity":0.8267716535433071},{"duration":0.2500001000000225,"durationTicks":57,"midi":65,"name":"F4","ticks":32191,"time":141.18865296666667,"velocity":0.7637795275590551},{"duration":0.11403513333331716,"durationTicks":26,"midi":61,"name":"C#4","ticks":32220,"time":141.315846,"velocity":0.5984251968503937},{"duration":0.07894740000003253,"durationTicks":18,"midi":64,"name":"E4","ticks":32221,"time":141.32023196666665,"velocity":0.5590551181102362},{"duration":0.11842109999997774,"durationTicks":27,"midi":67,"name":"G4","ticks":32262,"time":141.50005660000002,"velocity":0.8267716535433071},{"duration":0.07894739999997569,"durationTicks":18,"midi":63,"name":"D#4","ticks":32287,"time":141.60970576666668,"velocity":0.6377952755905512},{"duration":0.07894739999997569,"durationTicks":18,"midi":60,"name":"C4","ticks":32288,"time":141.61409173333334,"velocity":0.6299212598425197},{"duration":0.109649166666685,"durationTicks":25,"midi":65,"name":"F4","ticks":32290,"time":141.62286366666666,"velocity":0.8031496062992126},{"duration":0.07456143333331511,"durationTicks":17,"midi":74,"name":"D5","ticks":32352,"time":141.8947936,"velocity":0.7795275590551181},{"duration":0.05701756666667279,"durationTicks":13,"midi":57,"name":"A3","ticks":32355,"time":141.9079515,"velocity":0.6771653543307087},{"duration":0.026315800000020317,"durationTicks":6,"midi":67,"name":"G4","ticks":32355,"time":141.9079515,"velocity":0.7637795275590551},{"duration":0.035087733333341475,"durationTicks":8,"midi":53,"name":"F3","ticks":32356,"time":141.91233746666666,"velocity":0.6692913385826772},{"duration":0.030701766666680896,"durationTicks":7,"midi":63,"name":"D#4","ticks":32356,"time":141.91233746666666,"velocity":0.5905511811023622},{"duration":0.06578949999999395,"durationTicks":15,"midi":58,"name":"A#3","ticks":32421,"time":142.19742530000002,"velocity":0.889763779527559},{"duration":0.09210529999998585,"durationTicks":21,"midi":70,"name":"A#4","ticks":32423,"time":142.20619723333334,"velocity":0.9133858267716536},{"duration":0.07017546666665453,"durationTicks":16,"midi":46,"name":"A#2","ticks":32425,"time":142.21496916666666,"velocity":0.8582677165354331},{"duration":0.043859666666691055,"durationTicks":10,"midi":62,"name":"D4","ticks":32425,"time":142.21496916666666,"velocity":0.889763779527559},{"duration":0.07017546666668295,"durationTicks":16,"midi":94,"name":"A#6","ticks":32561,"time":142.81146063333333,"velocity":0.937007874015748},{"duration":0.05701756666664437,"durationTicks":13,"midi":34,"name":"A#1","ticks":32562,"time":142.81584660000001,"velocity":0.7874015748031497},{"duration":0.05701756666664437,"durationTicks":13,"midi":46,"name":"A#2","ticks":32562,"time":142.81584660000001,"velocity":0.8503937007874016},{"duration":0.07456143333331511,"durationTicks":17,"midi":82,"name":"A#5","ticks":32563,"time":142.82023256666668,"velocity":0.9212598425196851},{"duration":0.11842110000000616,"durationTicks":27,"midi":63,"name":"D#4","ticks":32695,"time":143.39918016666667,"velocity":0.6692913385826772},{"duration":0.05263159999998379,"durationTicks":12,"midi":58,"name":"A#3","ticks":32698,"time":143.41233806666668,"velocity":0.4566929133858268},{"duration":0.09210530000001427,"durationTicks":21,"midi":60,"name":"C4","ticks":32700,"time":143.42111,"velocity":0.5590551181102362},{"duration":0.05263160000001221,"durationTicks":12,"midi":56,"name":"G#3","ticks":32700,"time":143.42111,"velocity":0.47244094488188976},{"duration":0.22807026666666275,"durationTicks":52,"midi":65,"name":"F4","ticks":32735,"time":143.57461883333335,"velocity":0.5511811023622047},{"duration":0.20175446666667085,"durationTicks":46,"midi":62,"name":"D4","ticks":32740,"time":143.59654866666665,"velocity":0.5905511811023622},{"duration":0.048245633333351634,"durationTicks":11,"midi":70,"name":"A#4","ticks":32770,"time":143.72812766666667,"velocity":0.6141732283464567},{"duration":0.035087733333341475,"durationTicks":8,"midi":68,"name":"G#4","ticks":32773,"time":143.74128556666668,"velocity":0.5196850393700787},{"duration":0.1315789999999879,"durationTicks":30,"midi":67,"name":"G4","ticks":32806,"time":143.88602246666667,"velocity":0.6062992125984252},{"duration":0.10964916666665658,"durationTicks":25,"midi":65,"name":"F4","ticks":32826,"time":143.9737418,"velocity":0.47244094488188976},{"duration":0.11842110000003458,"durationTicks":27,"midi":62,"name":"D4","ticks":32827,"time":143.97812776666666,"velocity":0.23622047244094488},{"duration":0.035087733333341475,"durationTicks":8,"midi":58,"name":"A#3","ticks":32838,"time":144.02637339999998,"velocity":0.5354330708661418},{"duration":0.04385966666663421,"durationTicks":10,"midi":56,"name":"G#3","ticks":32841,"time":144.03953130000002,"velocity":0.3543307086614173},{"duration":0.07456143333337195,"durationTicks":17,"midi":63,"name":"D#4","ticks":32898,"time":144.2895314,"velocity":0.5118110236220472},{"duration":0.05263159999998379,"durationTicks":12,"midi":70,"name":"A#4","ticks":32901,"time":144.3026893,"velocity":0.5905511811023622},{"duration":0.07894740000000411,"durationTicks":18,"midi":60,"name":"C4","ticks":32902,"time":144.30707526666666,"velocity":0.48031496062992124},{"duration":0.035087733333313054,"durationTicks":8,"midi":68,"name":"G#4","ticks":32905,"time":144.32023316666667,"velocity":0.5196850393700787},{"duration":0.035087733333313054,"durationTicks":8,"midi":56,"name":"G#3","ticks":32967,"time":144.59216310000002,"velocity":0.5275590551181102},{"duration":0.04385966666666263,"durationTicks":10,"midi":58,"name":"A#3","ticks":32970,"time":144.605321,"velocity":0.5118110236220472},{"duration":0.36403523333333965,"durationTicks":83,"midi":65,"name":"F4","ticks":32971,"time":144.60970696666666,"velocity":0.4881889763779528},{"duration":0.32894749999999817,"durationTicks":75,"midi":62,"name":"D4","ticks":32972,"time":144.61409293333332,"velocity":0.6377952755905512},{"duration":0.048245633333351634,"durationTicks":11,"midi":70,"name":"A#4","ticks":33038,"time":144.90356673333332,"velocity":0.5984251968503937},{"duration":0.048245633333351634,"durationTicks":11,"midi":56,"name":"G#3","ticks":33107,"time":145.20619843333333,"velocity":0.4881889763779528},{"duration":0.04385966666666263,"durationTicks":10,"midi":58,"name":"A#3","ticks":33112,"time":145.22812826666666,"velocity":0.5039370078740157},{"duration":0.030701766666680896,"durationTicks":7,"midi":94,"name":"A#6","ticks":33112,"time":145.22812826666666,"velocity":0.6535433070866141},{"duration":0.04824563333332321,"durationTicks":11,"midi":68,"name":"G#4","ticks":33178,"time":145.51760206666668,"velocity":0.5196850393700787},{"duration":0.05263160000001221,"durationTicks":12,"midi":58,"name":"A#3","ticks":33248,"time":145.82461973333332,"velocity":0.30708661417322836},{"duration":0.100877233333307,"durationTicks":23,"midi":63,"name":"D#4","ticks":33250,"time":145.83339166666667,"velocity":0.5748031496062992},{"duration":0.05263159999998379,"durationTicks":12,"midi":60,"name":"C4","ticks":33252,"time":145.84216360000002,"velocity":0.5433070866141733},{"duration":0.2675439666666648,"durationTicks":61,"midi":65,"name":"F4","ticks":33285,"time":145.9869005,"velocity":0.5669291338582677},{"duration":0.2763159000000144,"durationTicks":63,"midi":62,"name":"D4","ticks":33287,"time":145.99567243333334,"velocity":0.6220472440944882},{"duration":0.09210530000001427,"durationTicks":21,"midi":70,"name":"A#4","ticks":33307,"time":146.08339176666667,"velocity":0.6692913385826772},{"duration":0.05701756666667279,"durationTicks":13,"midi":67,"name":"G4","ticks":33316,"time":146.12286546666667,"velocity":0.4566929133858268},{"duration":0.17543866666665053,"durationTicks":40,"midi":67,"name":"G4","ticks":33352,"time":146.28076026666668,"velocity":0.44881889763779526},{"duration":0.06578949999999395,"durationTicks":15,"midi":63,"name":"D#4","ticks":33361,"time":146.32023396666668,"velocity":0.4409448818897638},{"duration":0.1359649666666769,"durationTicks":31,"midi":65,"name":"F4","ticks":33378,"time":146.3947954,"velocity":0.5669291338582677},{"duration":0.11403513333331716,"durationTicks":26,"midi":62,"name":"D4","ticks":33381,"time":146.4079533,"velocity":0.5984251968503937},{"duration":0.048245633333351634,"durationTicks":11,"midi":58,"name":"A#3","ticks":33383,"time":146.41672523333332,"velocity":0.36220472440944884},{"duration":0.06578949999999395,"durationTicks":15,"midi":70,"name":"A#4","ticks":33447,"time":146.69742710000003,"velocity":0.6377952755905512},{"duration":0.1315789999999879,"durationTicks":30,"midi":63,"name":"D#4","ticks":33450,"time":146.710585,"velocity":0.6299212598425197},{"duration":0.1315789999999879,"durationTicks":30,"midi":60,"name":"C4","ticks":33452,"time":146.71935693333333,"velocity":0.5039370078740157},{"duration":0.04824563333332321,"durationTicks":11,"midi":67,"name":"G4","ticks":33455,"time":146.73251483333334,"velocity":0.48031496062992124},{"duration":0.048245633333351634,"durationTicks":11,"midi":58,"name":"A#3","ticks":33518,"time":147.00883073333333,"velocity":0.44881889763779526},{"duration":0.13157900000001632,"durationTicks":30,"midi":62,"name":"D4","ticks":33520,"time":147.01760266666665,"velocity":0.7165354330708661},{"duration":0.18421060000002853,"durationTicks":42,"midi":65,"name":"F4","ticks":33520,"time":147.01760266666665,"velocity":0.6062992125984252},{"duration":0.07017546666671137,"durationTicks":16,"midi":70,"name":"A#4","ticks":33581,"time":147.2851466333333,"velocity":0.6456692913385826},{"duration":0.27631589999998596,"durationTicks":63,"midi":63,"name":"D#4","ticks":33583,"time":147.2939185666667,"velocity":0.7086614173228346},{"duration":0.31140363333335586,"durationTicks":71,"midi":60,"name":"C4","ticks":33586,"time":147.30707646666667,"velocity":0.6377952755905512},{"duration":0.043859666666691055,"durationTicks":10,"midi":67,"name":"G4","ticks":33588,"time":147.3158484,"velocity":0.48031496062992124},{"duration":0.08771933333332527,"durationTicks":20,"midi":65,"name":"F4","ticks":33648,"time":147.5790064,"velocity":0.6614173228346457},{"duration":0.07017546666665453,"durationTicks":16,"midi":62,"name":"D4","ticks":33650,"time":147.58777833333335,"velocity":0.7795275590551181},{"duration":0.09210530000001427,"durationTicks":21,"midi":55,"name":"G3","ticks":33655,"time":147.60970816666665,"velocity":0.7480314960629921},{"duration":0.07456143333334353,"durationTicks":17,"midi":58,"name":"A#3","ticks":33718,"time":147.88602406666666,"velocity":0.7322834645669292},{"duration":0.030701766666680896,"durationTicks":7,"midi":70,"name":"A#4","ticks":33718,"time":147.88602406666666,"velocity":0.84251968503937},{"duration":0.026315799999991896,"durationTicks":6,"midi":72,"name":"C5","ticks":33721,"time":147.89918196666667,"velocity":0.7007874015748031},{"duration":0.043859666666691055,"durationTicks":10,"midi":67,"name":"G4","ticks":33723,"time":147.9079539,"velocity":0.48031496062992124},{"duration":0.9780705666666734,"durationTicks":223,"midi":64,"name":"E4","ticks":33797,"time":148.23251543333333,"velocity":0.7795275590551181},{"duration":0.8377196333333075,"durationTicks":191,"midi":61,"name":"C#4","ticks":33800,"time":148.24567333333334,"velocity":0.7165354330708661},{"duration":0.14035093333333748,"durationTicks":32,"midi":47,"name":"B2","ticks":33800,"time":148.24567333333334,"velocity":0.6692913385826772},{"duration":0.8771933333333095,"durationTicks":200,"midi":57,"name":"A3","ticks":33801,"time":148.2500593,"velocity":0.7559055118110236},{"duration":0.21052640000002043,"durationTicks":48,"midi":49,"name":"C#3","ticks":33836,"time":148.40356813333332,"velocity":0.5196850393700787},{"duration":0.15789480000000822,"durationTicks":36,"midi":51,"name":"D#3","ticks":33900,"time":148.68427,"velocity":0.5748031496062992},{"duration":0.31578960000001643,"durationTicks":72,"midi":49,"name":"C#3","ticks":33933,"time":148.8290069,"velocity":0.5275590551181102},{"duration":0.19736850000001027,"durationTicks":45,"midi":47,"name":"B2","ticks":34000,"time":149.12286666666665,"velocity":0.4881889763779528},{"duration":0.13596496666664848,"durationTicks":31,"midi":46,"name":"A#2","ticks":34070,"time":149.42988433333335,"velocity":0.5039370078740157},{"duration":0.811403833333344,"durationTicks":185,"midi":60,"name":"C4","ticks":34072,"time":149.43865626666667,"velocity":0.5433070866141733},{"duration":0.7587722333333318,"durationTicks":173,"midi":65,"name":"F4","ticks":34073,"time":149.44304223333333,"velocity":0.4251968503937008},{"duration":0.8684213999999884,"durationTicks":198,"midi":56,"name":"G#3","ticks":34073,"time":149.44304223333333,"velocity":0.5669291338582677},{"duration":0.24122816666664448,"durationTicks":55,"midi":48,"name":"C3","ticks":34115,"time":149.62725283333336,"velocity":0.3228346456692913},{"duration":0.15350883333331922,"durationTicks":35,"midi":50,"name":"D3","ticks":34182,"time":149.92111260000001,"velocity":0.49606299212598426},{"duration":0.33771943333331933,"durationTicks":77,"midi":48,"name":"C3","ticks":34220,"time":150.08777933333334,"velocity":0.3937007874015748},{"duration":0.09649126666667485,"durationTicks":22,"midi":46,"name":"A#2","ticks":34287,"time":150.3816391,"velocity":0.5196850393700787},{"duration":0.14473689999999806,"durationTicks":33,"midi":46,"name":"A#2","ticks":34357,"time":150.68865676666667,"velocity":0.5196850393700787},{"duration":1.9649130666666679,"durationTicks":448,"midi":58,"name":"A#3","ticks":34358,"time":150.69304273333333,"velocity":0.5039370078740157},{"duration":2.0000008000000093,"durationTicks":456,"midi":55,"name":"G3","ticks":34360,"time":150.70181466666665,"velocity":0.5669291338582677},{"duration":1.228070666666639,"durationTicks":280,"midi":53,"name":"F3","ticks":34363,"time":150.7149725666667,"velocity":0.5984251968503937},{"duration":0.20175446666664243,"durationTicks":46,"midi":48,"name":"C3","ticks":34400,"time":150.87725333333336,"velocity":0.3858267716535433},{"duration":0.14035093333333748,"durationTicks":32,"midi":50,"name":"D3","ticks":34467,"time":151.1711131,"velocity":0.5196850393700787},{"duration":0.14035093333333748,"durationTicks":32,"midi":48,"name":"C3","ticks":34502,"time":151.32462193333333,"velocity":0.44881889763779526},{"duration":0.05263160000001221,"durationTicks":12,"midi":46,"name":"A#2","ticks":34570,"time":151.62286766666665,"velocity":0.5196850393700787},{"duration":0.320175566666677,"durationTicks":73,"midi":51,"name":"D#3","ticks":34643,"time":151.94304323333333,"velocity":0.6850393700787402},{"duration":0.17543866666665053,"durationTicks":40,"midi":34,"name":"A#1","ticks":34685,"time":152.12725383333336,"velocity":0.8110236220472441},{"duration":0.07894739999997569,"durationTicks":18,"midi":46,"name":"A#2","ticks":34686,"time":152.13163980000002,"velocity":0.9448818897637795},{"duration":0.10087723333333543,"durationTicks":23,"midi":48,"name":"C3","ticks":34717,"time":152.26760476666666,"velocity":0.8503937007874016},{"duration":0.19736850000001027,"durationTicks":45,"midi":36,"name":"C2","ticks":34721,"time":152.2851486333333,"velocity":0.7401574803149606},{"duration":0.1578947999999798,"durationTicks":36,"midi":38,"name":"D2","ticks":34752,"time":152.4211136,"velocity":0.8188976377952756},{"duration":0.1885965666666607,"durationTicks":43,"midi":50,"name":"D3","ticks":34753,"time":152.42549956666667,"velocity":0.8740157480314961},{"duration":0.07456143333337195,"durationTicks":17,"midi":36,"name":"C2","ticks":34780,"time":152.54392066666665,"velocity":0.8503937007874016},{"duration":0.13596496666664848,"durationTicks":31,"midi":48,"name":"C3","ticks":34783,"time":152.5570785666667,"velocity":1},{"duration":0.07017546666665453,"durationTicks":16,"midi":34,"name":"A#1","ticks":34852,"time":152.85971026666667,"velocity":1},{"duration":0.021929833333331317,"durationTicks":5,"midi":22,"name":"A#0","ticks":34860,"time":152.894798,"velocity":0.968503937007874},{"duration":0.08771933333332527,"durationTicks":20,"midi":56,"name":"G#3","ticks":34922,"time":153.16672793333333,"velocity":0.889763779527559},{"duration":0.026315799999963474,"durationTicks":6,"midi":58,"name":"A#3","ticks":34925,"time":153.17988583333334,"velocity":0.7086614173228346},{"duration":0.09210529999998585,"durationTicks":21,"midi":63,"name":"D#4","ticks":34925,"time":153.17988583333334,"velocity":0.7559055118110236},{"duration":0.09210530000001427,"durationTicks":21,"midi":60,"name":"C4","ticks":34926,"time":153.1842718,"velocity":0.6614173228346457},{"duration":0.2894737999999961,"durationTicks":66,"midi":65,"name":"F4","ticks":34958,"time":153.32462273333334,"velocity":0.6614173228346457},{"duration":0.22807026666666275,"durationTicks":52,"midi":62,"name":"D4","ticks":34963,"time":153.34655256666667,"velocity":0.6220472440944882},{"duration":0.043859666666691055,"durationTicks":10,"midi":70,"name":"A#4","ticks":34990,"time":153.46497366666665,"velocity":0.5354330708661418},{"duration":0.05701756666667279,"durationTicks":13,"midi":68,"name":"G#4","ticks":34991,"time":153.4693596333333,"velocity":0.5669291338582677},{"duration":0.11403513333334558,"durationTicks":26,"midi":67,"name":"G4","ticks":35035,"time":153.66234216666666,"velocity":0.4881889763779528},{"duration":0.13157900000001632,"durationTicks":30,"midi":63,"name":"D#4","ticks":35041,"time":153.68865796666665,"velocity":0.5590551181102362},{"duration":0.15789480000000822,"durationTicks":36,"midi":65,"name":"F4","ticks":35053,"time":153.74128956666667,"velocity":0.3228346456692913},{"duration":0.030701766666652475,"durationTicks":7,"midi":56,"name":"G#3","ticks":35058,"time":153.7632194,"velocity":0.6692913385826772},{"duration":0.030701766666680896,"durationTicks":7,"midi":58,"name":"A#3","ticks":35060,"time":153.77199133333335,"velocity":0.6299212598425197},{"duration":0.07456143333337195,"durationTicks":17,"midi":62,"name":"D4","ticks":35065,"time":153.79392116666665,"velocity":0.5669291338582677},{"duration":0.11842110000000616,"durationTicks":27,"midi":63,"name":"D#4","ticks":35128,"time":154.07023706666666,"velocity":0.5748031496062992},{"duration":0.07017546666665453,"durationTicks":16,"midi":70,"name":"A#4","ticks":35130,"time":154.079009,"velocity":0.5984251968503937},{"duration":0.035087733333313054,"durationTicks":8,"midi":68,"name":"G#4","ticks":35133,"time":154.0921669,"velocity":0.5590551181102362},{"duration":0.06578949999999395,"durationTicks":15,"midi":60,"name":"C4","ticks":35136,"time":154.1053248,"velocity":0.41732283464566927},{"duration":0.09210530000001427,"durationTicks":21,"midi":56,"name":"G#3","ticks":35196,"time":154.3684828,"velocity":0.6456692913385826},{"duration":0.28947380000002454,"durationTicks":66,"midi":65,"name":"F4","ticks":35201,"time":154.3904126333333,"velocity":0.5196850393700787},{"duration":0.25000009999999406,"durationTicks":57,"midi":62,"name":"D4","ticks":35205,"time":154.4079565,"velocity":0.5669291338582677},{"duration":0.048245633333351634,"durationTicks":11,"midi":58,"name":"A#3","ticks":35206,"time":154.41234246666667,"velocity":0.3779527559055118},{"duration":0.10087723333333543,"durationTicks":23,"midi":68,"name":"G#4","ticks":35270,"time":154.69304433333335,"velocity":0.47244094488188976},{"duration":0.09210530000001427,"durationTicks":21,"midi":70,"name":"A#4","ticks":35272,"time":154.70181626666667,"velocity":0.1968503937007874},{"duration":0.109649166666685,"durationTicks":25,"midi":94,"name":"A#6","ticks":35342,"time":155.00883393333334,"velocity":0.6850393700787402},{"duration":0.04824563333332321,"durationTicks":11,"midi":56,"name":"G#3","ticks":35346,"time":155.0263778,"velocity":0.30708661417322836},{"duration":0.07017546666665453,"durationTicks":16,"midi":58,"name":"A#3","ticks":35347,"time":155.03076376666667,"velocity":0.4409448818897638},{"duration":0.05263160000001221,"durationTicks":12,"midi":82,"name":"A#5","ticks":35350,"time":155.04392166666665,"velocity":0.4881889763779528},{"duration":0.07894740000000411,"durationTicks":18,"midi":70,"name":"A#4","ticks":35403,"time":155.2763779,"velocity":0.5984251968503937},{"duration":0.043859666666691055,"durationTicks":10,"midi":55,"name":"G3","ticks":35478,"time":155.6053254,"velocity":0.31496062992125984},{"duration":0.05263159999998379,"durationTicks":12,"midi":58,"name":"A#3","ticks":35480,"time":155.61409733333335,"velocity":0.4251968503937008},{"duration":0.09210530000001427,"durationTicks":21,"midi":63,"name":"D#4","ticks":35481,"time":155.6184833,"velocity":0.5354330708661418},{"duration":0.07456143333331511,"durationTicks":17,"midi":60,"name":"C4","ticks":35482,"time":155.62286926666667,"velocity":0.49606299212598426},{"duration":0.2894737999999961,"durationTicks":66,"midi":65,"name":"F4","ticks":35516,"time":155.77199213333333,"velocity":0.5511811023622047},{"duration":0.25438606666668306,"durationTicks":58,"midi":62,"name":"D4","ticks":35520,"time":155.789536,"velocity":0.6299212598425197},{"duration":0.08771933333335369,"durationTicks":20,"midi":70,"name":"A#4","ticks":35546,"time":155.90357113333332,"velocity":0.5984251968503937},{"duration":0.07017546666668295,"durationTicks":16,"midi":67,"name":"G4","ticks":35553,"time":155.9342729,"velocity":0.30708661417322836},{"duration":0.14035093333333748,"durationTicks":32,"midi":67,"name":"G4","ticks":35590,"time":156.09655366666667,"velocity":0.5905511811023622},{"duration":0.12280706666663832,"durationTicks":28,"midi":63,"name":"D#4","ticks":35593,"time":156.10971156666668,"velocity":0.5984251968503937},{"duration":0.11403513333334558,"durationTicks":26,"midi":65,"name":"F4","ticks":35612,"time":156.19304493333334,"velocity":0.5590551181102362},{"duration":0.04824563333332321,"durationTicks":11,"midi":58,"name":"A#3","ticks":35612,"time":156.19304493333334,"velocity":0.4645669291338583},{"duration":0.048245633333351634,"durationTicks":11,"midi":62,"name":"D4","ticks":35620,"time":156.22813266666665,"velocity":0.5433070866141733},{"duration":0.07894740000003253,"durationTicks":18,"midi":70,"name":"A#4","ticks":35680,"time":156.49129066666666,"velocity":0.5748031496062992},{"duration":0.14473689999999806,"durationTicks":33,"midi":63,"name":"D#4","ticks":35682,"time":156.5000626,"velocity":0.4881889763779528},{"duration":0.05263159999998379,"durationTicks":12,"midi":67,"name":"G4","ticks":35691,"time":156.5395363,"velocity":0.3543307086614173},{"duration":0.07456143333331511,"durationTicks":17,"midi":60,"name":"C4","ticks":35692,"time":156.54392226666667,"velocity":0.4094488188976378},{"duration":0.05701756666664437,"durationTicks":13,"midi":58,"name":"A#3","ticks":35750,"time":156.79830833333335,"velocity":0.4645669291338583},{"duration":0.17543866666665053,"durationTicks":40,"midi":65,"name":"F4","ticks":35751,"time":156.8026943,"velocity":0.5196850393700787},{"duration":0.11842110000000616,"durationTicks":27,"midi":62,"name":"D4","ticks":35752,"time":156.80708026666667,"velocity":0.5905511811023622},{"duration":0.04385966666663421,"durationTicks":10,"midi":70,"name":"A#4","ticks":35811,"time":157.06585230000002,"velocity":0.5196850393700787},{"duration":0.33333346666665875,"durationTicks":76,"midi":63,"name":"D#4","ticks":35812,"time":157.07023826666668,"velocity":0.6771653543307087},{"duration":0.33771943333331933,"durationTicks":77,"midi":60,"name":"C4","ticks":35817,"time":157.0921681,"velocity":0.5905511811023622},{"duration":0.12280706666669516,"durationTicks":28,"midi":65,"name":"F4","ticks":35883,"time":157.38164189999998,"velocity":0.5669291338582677},{"duration":0.20175446666664243,"durationTicks":46,"midi":58,"name":"A#3","ticks":35885,"time":157.39041383333335,"velocity":0.5590551181102362},{"duration":0.048245633333351634,"durationTicks":11,"midi":55,"name":"G3","ticks":35888,"time":157.40357173333334,"velocity":0.4015748031496063},{"duration":0.07017546666665453,"durationTicks":16,"midi":62,"name":"D4","ticks":35888,"time":157.40357173333334,"velocity":0.6299212598425197},{"duration":0.07017546666665453,"durationTicks":16,"midi":63,"name":"D#4","ticks":35948,"time":157.66672973333334,"velocity":0.6771653543307087},{"duration":0.035087733333341475,"durationTicks":8,"midi":70,"name":"A#4","ticks":35955,"time":157.6974315,"velocity":0.6141732283464567},{"duration":0.035087733333341475,"durationTicks":8,"midi":72,"name":"C5","ticks":35956,"time":157.70181746666665,"velocity":0.6220472440944882},{"duration":0.035087733333313054,"durationTicks":8,"midi":67,"name":"G4","ticks":35958,"time":157.7105894,"velocity":0.5196850393700787},{"duration":0.28947380000002454,"durationTicks":66,"midi":82,"name":"A#5","ticks":36031,"time":158.03076496666665,"velocity":0.8582677165354331},{"duration":0.1885965666666607,"durationTicks":43,"midi":70,"name":"A#4","ticks":36032,"time":158.03515093333334,"velocity":0.7007874015748031},{"duration":0.9342109000000107,"durationTicks":213,"midi":75,"name":"D#5","ticks":36033,"time":158.0395369,"velocity":0.8188976377952756},{"duration":1.3464917666666736,"durationTicks":307,"midi":59,"name":"B3","ticks":36035,"time":158.04830883333335,"velocity":0.7322834645669292},{"duration":1.5438602666666554,"durationTicks":352,"midi":71,"name":"B4","ticks":36037,"time":158.05708076666667,"velocity":0.7716535433070866},{"duration":1.1052636000000007,"durationTicks":252,"midi":63,"name":"D#4","ticks":36042,"time":158.0790106,"velocity":0.5275590551181102},{"duration":0.28508783333333554,"durationTicks":65,"midi":80,"name":"G#5","ticks":36062,"time":158.16672993333333,"velocity":0.6850393700787402},{"duration":0.2850878333333071,"durationTicks":65,"midi":68,"name":"G#4","ticks":36065,"time":158.17988783333334,"velocity":0.6456692913385826},{"duration":0.17982463333333953,"durationTicks":41,"midi":82,"name":"A#5","ticks":36136,"time":158.49129146666667,"velocity":0.8031496062992126},{"duration":0.1403509333333659,"durationTicks":32,"midi":70,"name":"A#4","ticks":36137,"time":158.49567743333333,"velocity":0.7244094488188977},{"duration":0.30701766666666686,"durationTicks":70,"midi":77,"name":"F5","ticks":36163,"time":158.60971256666667,"velocity":0.7165354330708661},{"duration":0.2675439666666648,"durationTicks":61,"midi":65,"name":"F4","ticks":36165,"time":158.6184845,"velocity":0.6299212598425197},{"duration":0.09649126666667485,"durationTicks":22,"midi":82,"name":"A#5","ticks":36227,"time":158.89041443333332,"velocity":0.84251968503937},{"duration":0.08771933333335369,"durationTicks":20,"midi":70,"name":"A#4","ticks":36228,"time":158.89480039999998,"velocity":0.8503937007874016},{"duration":0.14473689999996964,"durationTicks":33,"midi":80,"name":"G#5","ticks":36292,"time":159.17550226666668,"velocity":0.7952755905511811},{"duration":0.25000009999999406,"durationTicks":57,"midi":68,"name":"G#4","ticks":36295,"time":159.18866016666666,"velocity":0.8503937007874016},{"duration":0.31578960000001643,"durationTicks":72,"midi":77,"name":"F5","ticks":36325,"time":159.32023916666665,"velocity":0.6692913385826772},{"duration":0.28947380000002454,"durationTicks":66,"midi":65,"name":"F4","ticks":36328,"time":159.33339706666666,"velocity":0.5590551181102362},{"duration":0.16666673333332938,"durationTicks":38,"midi":63,"name":"D#4","ticks":36391,"time":159.60971296666668,"velocity":0.5669291338582677},{"duration":0.14473689999999806,"durationTicks":33,"midi":75,"name":"D#5","ticks":36393,"time":159.6184849,"velocity":0.7559055118110236},{"duration":0.09210529999998585,"durationTicks":21,"midi":59,"name":"B3","ticks":36418,"time":159.72813406666668,"velocity":0.6692913385826772},{"duration":0.09649126666667485,"durationTicks":22,"midi":71,"name":"B4","ticks":36420,"time":159.736906,"velocity":0.7401574803149606},{"duration":0.1798246333333111,"durationTicks":41,"midi":68,"name":"G#4","ticks":36553,"time":160.3202395666667,"velocity":0.7480314960629921},{"duration":0.1885965666666607,"durationTicks":43,"midi":56,"name":"G#3","ticks":36556,"time":160.33339746666667,"velocity":0.9291338582677166},{"duration":0.1798246333333111,"durationTicks":41,"midi":65,"name":"F4","ticks":36582,"time":160.4474326,"velocity":0.5984251968503937},{"duration":0.13157900000001632,"durationTicks":30,"midi":53,"name":"F3","ticks":36587,"time":160.46936243333332,"velocity":0.7165354330708661},{"duration":0.15350883333331922,"durationTicks":35,"midi":51,"name":"D#3","ticks":36606,"time":160.5526958,"velocity":0.7716535433070866},{"duration":0.1535088333332908,"durationTicks":35,"midi":63,"name":"D#4","ticks":36613,"time":160.5833975666667,"velocity":0.7244094488188977},{"duration":0.07017546666668295,"durationTicks":16,"midi":47,"name":"B2","ticks":36637,"time":160.68866076666666,"velocity":0.8031496062992126},{"duration":0.07456143333334353,"durationTicks":17,"midi":59,"name":"B3","ticks":36640,"time":160.70181866666667,"velocity":0.8267716535433071},{"duration":0.05701756666667279,"durationTicks":13,"midi":50,"name":"D3","ticks":36705,"time":160.9869065,"velocity":0.984251968503937},{"duration":0.026315799999991896,"durationTicks":6,"midi":55,"name":"G3","ticks":36705,"time":160.9869065,"velocity":1},{"duration":0.043859666666691055,"durationTicks":10,"midi":46,"name":"A#2","ticks":36707,"time":160.99567843333332,"velocity":1},{"duration":0.035087733333341475,"durationTicks":8,"midi":34,"name":"A#1","ticks":36708,"time":161.00006439999999,"velocity":0.968503937007874},{"duration":0.09649126666664642,"durationTicks":22,"midi":58,"name":"A#3","ticks":36862,"time":161.67550326666668,"velocity":0.6456692913385826},{"duration":0.07894739999997569,"durationTicks":18,"midi":55,"name":"G3","ticks":36863,"time":161.67988923333334,"velocity":0.5039370078740157},{"duration":0.07017546666665453,"durationTicks":16,"midi":51,"name":"D#3","ticks":36865,"time":161.68866116666666,"velocity":0.6535433070866141},{"duration":0.04824563333332321,"durationTicks":11,"midi":53,"name":"F3","ticks":36870,"time":161.710591,"velocity":0.4330708661417323},{"duration":0.05263160000001221,"durationTicks":12,"midi":39,"name":"D#2","ticks":36930,"time":161.973749,"velocity":0.5354330708661418},{"duration":0.05701756666667279,"durationTicks":13,"midi":46,"name":"A#2","ticks":36932,"time":161.98252093333332,"velocity":0.5275590551181102},{"duration":0.08771933333332527,"durationTicks":20,"midi":58,"name":"A#3","ticks":36997,"time":162.26760876666668,"velocity":0.5748031496062992},{"duration":0.09210529999998585,"durationTicks":21,"midi":51,"name":"D#3","ticks":36997,"time":162.26760876666668,"velocity":0.6062992125984252},{"duration":0.04824563333332321,"durationTicks":11,"midi":53,"name":"F3","ticks":37003,"time":162.29392456666667,"velocity":0.25984251968503935},{"duration":0.07456143333331511,"durationTicks":17,"midi":39,"name":"D#2","ticks":37072,"time":162.59655626666668,"velocity":0.4015748031496063},{"duration":0.05701756666667279,"durationTicks":13,"midi":46,"name":"A#2","ticks":37073,"time":162.60094223333334,"velocity":0.4645669291338583},{"duration":0.07456143333331511,"durationTicks":17,"midi":51,"name":"D#3","ticks":37410,"time":164.079013,"velocity":0.4881889763779528},{"duration":0.07456143333337195,"durationTicks":17,"midi":58,"name":"A#3","ticks":37412,"time":164.08778493333332,"velocity":0.4566929133858268},{"duration":0.057017566666701214,"durationTicks":13,"midi":55,"name":"G3","ticks":37416,"time":164.1053288,"velocity":0.28346456692913385},{"duration":0.048245633333351634,"durationTicks":11,"midi":53,"name":"F3","ticks":37420,"time":164.12287266666667,"velocity":0.25196850393700787},{"duration":0.07017546666668295,"durationTicks":16,"midi":39,"name":"D#2","ticks":37476,"time":164.3684868,"velocity":0.3858267716535433},{"duration":0.05263160000001221,"durationTicks":12,"midi":46,"name":"A#2","ticks":37481,"time":164.39041663333333,"velocity":0.4330708661417323},{"duration":0.09649126666667485,"durationTicks":22,"midi":58,"name":"A#3","ticks":37545,"time":164.6711185,"velocity":0.4566929133858268},{"duration":0.07894740000000411,"durationTicks":18,"midi":51,"name":"D#3","ticks":37546,"time":164.67550446666667,"velocity":0.3700787401574803},{"duration":0.09210530000001427,"durationTicks":21,"midi":46,"name":"A#2","ticks":37623,"time":165.01322389999999,"velocity":0.47244094488188976},{"duration":0.07456143333334353,"durationTicks":17,"midi":39,"name":"D#2","ticks":37627,"time":165.03076776666666,"velocity":0.3937007874015748},{"duration":0.07456143333331511,"durationTicks":17,"midi":51,"name":"D#3","ticks":37950,"time":166.447435,"velocity":0.4645669291338583},{"duration":0.07456143333331511,"durationTicks":17,"midi":58,"name":"A#3","ticks":37951,"time":166.45182096666667,"velocity":0.5118110236220472},{"duration":0.043859666666691055,"durationTicks":10,"midi":55,"name":"G3","ticks":37961,"time":166.4956806333333,"velocity":0.16535433070866143},{"duration":0.05263160000001221,"durationTicks":12,"midi":39,"name":"D#2","ticks":38018,"time":166.74568073333333,"velocity":0.41732283464566927},{"duration":0.06578950000002237,"durationTicks":15,"midi":46,"name":"A#2","ticks":38021,"time":166.7588386333333,"velocity":0.4015748031496063},{"duration":0.05701756666667279,"durationTicks":13,"midi":51,"name":"D#3","ticks":38080,"time":167.01761066666666,"velocity":0.4645669291338583},{"duration":0.048245633333351634,"durationTicks":11,"midi":58,"name":"A#3","ticks":38081,"time":167.02199663333332,"velocity":0.4566929133858268},{"duration":0.2894737999999961,"durationTicks":66,"midi":47,"name":"B2","ticks":38286,"time":167.9211198,"velocity":0.7559055118110236},{"duration":0.2719299333333254,"durationTicks":62,"midi":35,"name":"B1","ticks":38286,"time":167.9211198,"velocity":0.7401574803149606},{"duration":0.11842110000000616,"durationTicks":27,"midi":46,"name":"A#2","ticks":38341,"time":168.16234796666666,"velocity":0.5590551181102362},{"duration":0.1622807666666688,"durationTicks":37,"midi":34,"name":"A#1","ticks":38341,"time":168.16234796666666,"velocity":0.6456692913385826},{"duration":0.09210529999998585,"durationTicks":21,"midi":44,"name":"G#2","ticks":38357,"time":168.23252343333334,"velocity":0.7165354330708661},{"duration":0.12280706666666674,"durationTicks":28,"midi":32,"name":"G#1","ticks":38358,"time":168.2369094,"velocity":0.7244094488188977},{"duration":0.10087723333336385,"durationTicks":23,"midi":42,"name":"F#2","ticks":38366,"time":168.27199713333331,"velocity":0.7322834645669292},{"duration":0.09649126666667485,"durationTicks":22,"midi":41,"name":"F2","ticks":38381,"time":168.3377866333333,"velocity":0.7401574803149606},{"duration":0.07894739999997569,"durationTicks":18,"midi":29,"name":"F1","ticks":38382,"time":168.34217260000003,"velocity":0.7795275590551181},{"duration":0.026315799999963474,"durationTicks":6,"midi":30,"name":"F#1","ticks":38382,"time":168.34217260000003,"velocity":0.5354330708661418},{"duration":0.048245633333351634,"durationTicks":11,"midi":39,"name":"D#2","ticks":38416,"time":168.49129546666666,"velocity":1},{"duration":0.02192983333335974,"durationTicks":5,"midi":27,"name":"D#1","ticks":38418,"time":168.50006739999998,"velocity":0.968503937007874},{"duration":0.026315799999963474,"durationTicks":6,"midi":51,"name":"D#3","ticks":38420,"time":168.50883933333336,"velocity":0.8031496062992126},{"duration":0.026315799999991896,"durationTicks":6,"midi":30,"name":"F#1","ticks":38422,"time":168.51761126666668,"velocity":0.6535433070866141},{"duration":0.09210530000001427,"durationTicks":21,"midi":51,"name":"D#3","ticks":38711,"time":169.78515563333332,"velocity":1},{"duration":0.07017546666668295,"durationTicks":16,"midi":39,"name":"D#2","ticks":38711,"time":169.78515563333332,"velocity":1},{"duration":0.07456143333334353,"durationTicks":17,"midi":27,"name":"D#1","ticks":38712,"time":169.7895416,"velocity":0.9606299212598425}]}]}};